<svg width="230" height="150" viewBox="0 0 230 150" fill="none" xmlns="http://www.w3.org/2000/svg">
<g clip-path="url(#clip0_5593_131)">
<path d="M25 150L25 -8.10623e-06" stroke="url(#paint0_linear_5593_131)" stroke-opacity="0.4"/>
<path d="M205 150L205 -8.10623e-06" stroke="url(#paint1_linear_5593_131)" stroke-opacity="0.4"/>
<path d="M230 20L-4.11272e-06 20" stroke="url(#paint2_linear_5593_131)" stroke-opacity="0.4"/>
<path d="M230 130L-4.11272e-06 130" stroke="url(#paint3_linear_5593_131)" stroke-opacity="0.4"/>
<rect x="25" y="20" width="180" height="110" rx="8" fill="#76717F" fill-opacity="0.06"/>
<path d="M83.5589 80.1392C82.843 80.1392 82.2067 80.0166 81.6499 79.7713C81.0964 79.526 80.6589 79.1847 80.3374 78.7472C80.0159 78.3097 79.8452 77.8042 79.8253 77.2308H81.6946C81.7112 77.5059 81.8023 77.7462 81.968 77.9517C82.1338 78.1539 82.3542 78.3113 82.6293 78.424C82.9044 78.5367 83.2126 78.593 83.554 78.593C83.9186 78.593 84.2417 78.5301 84.5234 78.4041C84.8052 78.2749 85.0256 78.0959 85.1847 77.8672C85.3438 77.6385 85.4216 77.375 85.4183 77.0767C85.4216 76.7685 85.3421 76.4967 85.1797 76.2614C85.0173 76.026 84.782 75.8421 84.4737 75.7095C84.1688 75.5769 83.8009 75.5107 83.37 75.5107H82.4702V74.0888H83.37C83.7247 74.0888 84.0346 74.0275 84.2997 73.9048C84.5682 73.7822 84.7786 73.6098 84.9311 73.3878C85.0836 73.1624 85.1581 72.9022 85.1548 72.6072C85.1581 72.3189 85.0935 72.0687 84.9609 71.8565C84.8317 71.6411 84.6477 71.4737 84.4091 71.3544C84.1738 71.2351 83.897 71.1754 83.5788 71.1754C83.2673 71.1754 82.9789 71.2318 82.7138 71.3445C82.4486 71.4571 82.2348 71.6179 82.0724 71.8267C81.91 72.0322 81.8239 72.2775 81.8139 72.5625H80.0391C80.0523 71.9924 80.2164 71.492 80.5312 71.0611C80.8494 70.6269 81.2737 70.2888 81.804 70.0469C82.3343 69.8016 82.9292 69.679 83.5888 69.679C84.2682 69.679 84.8582 69.8066 85.3587 70.0618C85.8625 70.3137 86.2519 70.6534 86.527 71.081C86.8021 71.5085 86.9396 71.9808 86.9396 72.4979C86.9429 73.0713 86.7739 73.5518 86.4325 73.9396C86.0945 74.3274 85.6503 74.581 85.1001 74.7003V74.7798C85.8161 74.8793 86.3646 75.1444 86.7457 75.5753C87.1302 76.0028 87.3208 76.5348 87.3175 77.1712C87.3175 77.7412 87.1551 78.2517 86.8303 78.7024C86.5088 79.1499 86.0646 79.5012 85.4979 79.7564C84.9344 80.0116 84.2881 80.1392 83.5589 80.1392ZM89.024 80V78.6676L92.5588 75.2024C92.8968 74.861 93.1786 74.5578 93.4039 74.2926C93.6293 74.0275 93.7984 73.7706 93.911 73.522C94.0237 73.2734 94.0801 73.0083 94.0801 72.7266C94.0801 72.4051 94.0072 72.13 93.8613 71.9013C93.7155 71.6693 93.515 71.4903 93.2598 71.3643C93.0046 71.2384 92.7145 71.1754 92.3897 71.1754C92.055 71.1754 91.7617 71.245 91.5098 71.3842C91.2579 71.5201 91.0623 71.714 90.9231 71.9659C90.7872 72.2178 90.7193 72.5178 90.7193 72.8658H88.9643C88.9643 72.2195 89.1118 71.6577 89.4068 71.1804C89.7018 70.7031 90.1078 70.3336 90.6248 70.0717C91.1452 69.8099 91.7418 69.679 92.4146 69.679C93.0974 69.679 93.6973 69.8066 94.2143 70.0618C94.7314 70.317 95.1324 70.6667 95.4174 71.1108C95.7058 71.5549 95.85 72.062 95.85 72.6321C95.85 73.0133 95.777 73.3878 95.6312 73.7557C95.4854 74.1236 95.2285 74.5312 94.8606 74.9787C94.496 75.4261 93.984 75.968 93.3244 76.6044L91.5694 78.3892V78.4588H96.0041V80H89.024ZM101.483 80.1939C100.664 80.1939 99.9615 79.9867 99.3748 79.5724C98.7915 79.1548 98.3424 78.5533 98.0275 77.7678C97.716 76.9789 97.5602 76.0294 97.5602 74.919C97.5635 73.8087 97.7209 72.8641 98.0325 72.0852C98.3474 71.303 98.7965 70.7064 99.3798 70.2955C99.9664 69.8845 100.667 69.679 101.483 69.679C102.298 69.679 102.999 69.8845 103.586 70.2955C104.172 70.7064 104.622 71.303 104.933 72.0852C105.248 72.8674 105.405 73.812 105.405 74.919C105.405 76.0327 105.248 76.9839 104.933 77.7727C104.622 78.5582 104.172 79.1581 103.586 79.5724C103.002 79.9867 102.301 80.1939 101.483 80.1939ZM101.483 78.6378C102.119 78.6378 102.621 78.3246 102.989 77.6982C103.36 77.0684 103.546 76.142 103.546 74.919C103.546 74.1103 103.461 73.4309 103.292 72.8807C103.123 72.3305 102.885 71.9162 102.577 71.6378C102.268 71.3561 101.904 71.2152 101.483 71.2152C100.85 71.2152 100.349 71.5301 99.9814 72.1598C99.6135 72.7862 99.4279 73.706 99.4245 74.919C99.4212 75.7311 99.5024 76.4138 99.6681 76.9673C99.8372 77.5208 100.076 77.9384 100.384 78.2202C100.692 78.4986 101.059 78.6378 101.483 78.6378ZM116.69 78.4489L110.858 72.6271L111.982 71.4986L117.808 77.3253L116.69 78.4489ZM111.982 78.4489L110.858 77.3253L116.69 71.4986L117.808 72.6271L111.982 78.4489ZM126.962 80.1392C126.299 80.1392 125.706 80.0149 125.182 79.7663C124.659 79.5144 124.243 79.1697 123.934 78.7322C123.63 78.2947 123.467 77.7943 123.447 77.2308H125.237C125.27 77.6484 125.451 77.9898 125.779 78.255C126.107 78.5168 126.501 78.6477 126.962 78.6477C127.323 78.6477 127.645 78.5649 127.927 78.3991C128.208 78.2334 128.43 78.0031 128.593 77.7081C128.755 77.4131 128.835 77.0767 128.831 76.6989C128.835 76.3144 128.754 75.973 128.588 75.6747C128.422 75.3764 128.195 75.1428 127.907 74.9737C127.618 74.8014 127.287 74.7152 126.912 74.7152C126.608 74.7119 126.308 74.7682 126.013 74.8842C125.718 75.0002 125.484 75.1527 125.312 75.3416L123.646 75.0682L124.178 69.8182H130.084V71.3594H125.704L125.411 74.0589H125.471C125.66 73.8369 125.926 73.6529 126.271 73.5071C126.616 73.358 126.994 73.2834 127.405 73.2834C128.021 73.2834 128.571 73.4292 129.055 73.7209C129.539 74.0092 129.92 74.407 130.199 74.9141C130.477 75.4212 130.616 76.0012 130.616 76.6541C130.616 77.3269 130.461 77.9268 130.149 78.4538C129.841 78.9775 129.412 79.3902 128.861 79.6918C128.314 79.9901 127.681 80.1392 126.962 80.1392ZM136.01 80.1392C135.523 80.1359 135.048 80.0514 134.584 79.8857C134.12 79.7166 133.702 79.4432 133.331 79.0653C132.96 78.6842 132.665 78.1787 132.446 77.549C132.227 76.916 132.119 76.1321 132.123 75.1974C132.123 74.3258 132.215 73.5485 132.401 72.8658C132.587 72.183 132.854 71.6063 133.202 71.1357C133.55 70.6617 133.969 70.3004 134.459 70.0518C134.953 69.8033 135.505 69.679 136.115 69.679C136.755 69.679 137.321 69.8049 137.815 70.0568C138.312 70.3087 138.713 70.6534 139.018 71.0909C139.323 71.5251 139.512 72.0156 139.585 72.5625H137.77C137.678 72.1714 137.487 71.8598 137.199 71.6278C136.914 71.3925 136.552 71.2749 136.115 71.2749C135.409 71.2749 134.865 71.5814 134.484 72.1946C134.106 72.8078 133.916 73.6496 133.912 74.7202H133.982C134.144 74.4285 134.355 74.1783 134.613 73.9695C134.872 73.7607 135.164 73.5999 135.488 73.4872C135.817 73.3712 136.163 73.3132 136.528 73.3132C137.124 73.3132 137.659 73.4557 138.133 73.7408C138.611 74.0258 138.988 74.4186 139.267 74.919C139.545 75.4162 139.683 75.9863 139.68 76.6293C139.683 77.2988 139.53 77.9003 139.222 78.4339C138.914 78.9643 138.485 79.3819 137.934 79.6868C137.384 79.9917 136.743 80.1425 136.01 80.1392ZM136.001 78.6477C136.362 78.6477 136.685 78.5599 136.97 78.3842C137.255 78.2086 137.48 77.9716 137.646 77.6733C137.812 77.375 137.893 77.0402 137.89 76.669C137.893 76.3045 137.814 75.9747 137.651 75.6797C137.492 75.3847 137.272 75.151 136.99 74.9787C136.708 74.8063 136.387 74.7202 136.025 74.7202C135.757 74.7202 135.507 74.7715 135.275 74.8743C135.043 74.977 134.84 75.1196 134.668 75.3018C134.496 75.4808 134.36 75.6896 134.26 75.9283C134.164 76.1636 134.115 76.4155 134.111 76.6839C134.115 77.0386 134.198 77.3651 134.36 77.6634C134.522 77.9616 134.746 78.2003 135.031 78.3793C135.316 78.5582 135.639 78.6477 136.001 78.6477ZM144.979 80.1392C144.24 80.1392 143.584 80.0149 143.01 79.7663C142.44 79.5178 141.993 79.178 141.668 78.7472C141.347 78.313 141.188 77.8208 141.191 77.2706C141.188 76.843 141.28 76.4503 141.469 76.0923C141.658 75.7344 141.913 75.4361 142.235 75.1974C142.56 74.9555 142.921 74.8014 143.319 74.7351V74.6655C142.795 74.5495 142.371 74.2827 142.046 73.8651C141.724 73.4441 141.565 72.9586 141.569 72.4084C141.565 71.8847 141.711 71.4174 142.006 71.0064C142.301 70.5954 142.706 70.2723 143.219 70.0369C143.733 69.7983 144.32 69.679 144.979 69.679C145.632 69.679 146.214 69.7983 146.724 70.0369C147.238 70.2723 147.642 70.5954 147.937 71.0064C148.236 71.4174 148.385 71.8847 148.385 72.4084C148.385 72.9586 148.221 73.4441 147.893 73.8651C147.568 74.2827 147.148 74.5495 146.635 74.6655V74.7351C147.032 74.8014 147.39 74.9555 147.709 75.1974C148.03 75.4361 148.285 75.7344 148.474 76.0923C148.666 76.4503 148.763 76.843 148.763 77.2706C148.763 77.8208 148.6 78.313 148.275 78.7472C147.951 79.178 147.503 79.5178 146.933 79.7663C146.366 80.0149 145.715 80.1392 144.979 80.1392ZM144.979 78.7173C145.36 78.7173 145.692 78.6527 145.974 78.5234C146.255 78.3909 146.474 78.2053 146.63 77.9666C146.786 77.728 146.865 77.4529 146.868 77.1413C146.865 76.8165 146.781 76.5298 146.615 76.2812C146.452 76.0294 146.229 75.8321 145.944 75.6896C145.662 75.5471 145.34 75.4759 144.979 75.4759C144.615 75.4759 144.29 75.5471 144.005 75.6896C143.72 75.8321 143.494 76.0294 143.329 76.2812C143.166 76.5298 143.087 76.8165 143.09 77.1413C143.087 77.4529 143.163 77.728 143.319 77.9666C143.474 78.2019 143.693 78.3859 143.975 78.5185C144.26 78.651 144.595 78.7173 144.979 78.7173ZM144.979 74.0788C145.291 74.0788 145.566 74.0159 145.805 73.8899C146.046 73.764 146.237 73.5883 146.376 73.3629C146.515 73.1375 146.587 72.8774 146.59 72.5824C146.587 72.2907 146.517 72.0355 146.381 71.8168C146.245 71.5947 146.056 71.424 145.814 71.3047C145.573 71.1821 145.294 71.1207 144.979 71.1207C144.658 71.1207 144.374 71.1821 144.129 71.3047C143.887 71.424 143.698 71.5947 143.562 71.8168C143.43 72.0355 143.365 72.2907 143.368 72.5824C143.365 72.8774 143.431 73.1375 143.567 73.3629C143.706 73.585 143.897 73.7607 144.139 73.8899C144.384 74.0159 144.664 74.0788 144.979 74.0788Z" fill="#794DFF"/>
</g>
<defs>
<linearGradient id="paint0_linear_5593_131" x1="25.5" y1="8.04235e-06" x2="25.4735" y2="150" gradientUnits="userSpaceOnUse">
<stop stop-color="#76717F" stop-opacity="0"/>
<stop offset="0.245" stop-color="#3F404D" stop-opacity="0.5"/>
<stop offset="0.75" stop-color="#3F404D" stop-opacity="0.5"/>
<stop offset="1" stop-color="#76717F" stop-opacity="0"/>
</linearGradient>
<linearGradient id="paint1_linear_5593_131" x1="205.5" y1="8.04235e-06" x2="205.473" y2="150" gradientUnits="userSpaceOnUse">
<stop stop-color="#76717F" stop-opacity="0"/>
<stop offset="0.245" stop-color="#3F404D" stop-opacity="0.5"/>
<stop offset="0.75" stop-color="#3F404D" stop-opacity="0.5"/>
<stop offset="1" stop-color="#76717F" stop-opacity="0"/>
</linearGradient>
<linearGradient id="paint2_linear_5593_131" x1="1.22952e-05" y1="19.5" x2="230" y2="19.5624" gradientUnits="userSpaceOnUse">
<stop stop-color="#76717F" stop-opacity="0"/>
<stop offset="0.245" stop-color="#3F404D" stop-opacity="0.5"/>
<stop offset="0.75" stop-color="#3F404D" stop-opacity="0.5"/>
<stop offset="1" stop-color="#76717F" stop-opacity="0"/>
</linearGradient>
<linearGradient id="paint3_linear_5593_131" x1="1.22952e-05" y1="129.5" x2="230" y2="129.562" gradientUnits="userSpaceOnUse">
<stop stop-color="#76717F" stop-opacity="0"/>
<stop offset="0.245" stop-color="#3F404D" stop-opacity="0.5"/>
<stop offset="0.75" stop-color="#3F404D" stop-opacity="0.5"/>
<stop offset="1" stop-color="#76717F" stop-opacity="0"/>
</linearGradient>
<clipPath id="clip0_5593_131">
<rect width="230" height="150" fill="white"/>
</clipPath>
</defs>
</svg>
