<svg width="230" height="150" viewBox="0 0 230 150" fill="none" xmlns="http://www.w3.org/2000/svg">
<g clip-path="url(#clip0_5593_156)">
<path d="M25 150L25 -8.10623e-06" stroke="url(#paint0_linear_5593_156)" stroke-opacity="0.4"/>
<path d="M205 150L205 -8.10623e-06" stroke="url(#paint1_linear_5593_156)" stroke-opacity="0.4"/>
<path d="M230 20L-4.11272e-06 20" stroke="url(#paint2_linear_5593_156)" stroke-opacity="0.4"/>
<path d="M230 130L-4.11272e-06 130" stroke="url(#paint3_linear_5593_156)" stroke-opacity="0.4"/>
<rect x="25" y="20" width="180" height="110" rx="4" fill="#76717F" fill-opacity="0.06"/>
<path d="M25 24C25 21.7909 26.7909 20 29 20H201C203.209 20 205 21.7909 205 24V42H25V24Z" fill="#76717F" fill-opacity="0.06"/>
<path d="M63.1307 75.1136V79H61.8565V70.2727H63.1136V73.5199H63.1946C63.348 73.1676 63.5824 72.8878 63.8977 72.6804C64.2131 72.473 64.625 72.3693 65.1335 72.3693C65.5824 72.3693 65.9744 72.4616 66.3097 72.6463C66.6477 72.831 66.9091 73.1065 67.0938 73.473C67.2812 73.8366 67.375 74.2912 67.375 74.8366V79H66.1009V74.9901C66.1009 74.5099 65.9773 74.1378 65.7301 73.8736C65.483 73.6065 65.1392 73.473 64.6989 73.473C64.3977 73.473 64.1278 73.5369 63.8892 73.6648C63.6534 73.7926 63.4673 73.9801 63.331 74.2273C63.1974 74.4716 63.1307 74.767 63.1307 75.1136ZM72.1307 72.4545V73.4773H68.5554V72.4545H72.1307ZM69.5142 70.8864H70.7884V77.0781C70.7884 77.3253 70.8253 77.5114 70.8991 77.6364C70.973 77.7585 71.0682 77.8423 71.1847 77.8878C71.304 77.9304 71.4332 77.9517 71.5724 77.9517C71.6747 77.9517 71.7642 77.9446 71.8409 77.9304C71.9176 77.9162 71.9773 77.9048 72.0199 77.8963L72.25 78.9489C72.1761 78.9773 72.071 79.0057 71.9347 79.0341C71.7983 79.0653 71.6278 79.0824 71.4233 79.0852C71.0881 79.0909 70.7756 79.0312 70.4858 78.9062C70.196 78.7812 69.9616 78.5881 69.7827 78.3267C69.6037 78.0653 69.5142 77.7372 69.5142 77.3423V70.8864ZM76.5955 72.4545V73.4773H73.0202V72.4545H76.5955ZM73.979 70.8864H75.2532V77.0781C75.2532 77.3253 75.2901 77.5114 75.364 77.6364C75.4379 77.7585 75.533 77.8423 75.6495 77.8878C75.7688 77.9304 75.8981 77.9517 76.0373 77.9517C76.1396 77.9517 76.229 77.9446 76.3058 77.9304C76.3825 77.9162 76.4421 77.9048 76.4847 77.8963L76.7148 78.9489C76.641 78.9773 76.5359 79.0057 76.3995 79.0341C76.2631 79.0653 76.0927 79.0824 75.8881 79.0852C75.5529 79.0909 75.2404 79.0312 74.9506 78.9062C74.6609 78.7812 74.4265 78.5881 74.2475 78.3267C74.0685 78.0653 73.979 77.7372 73.979 77.3423V70.8864ZM78.005 81.4545V72.4545H79.2493V73.5156H79.3558C79.4297 73.3793 79.5362 73.2216 79.6754 73.0426C79.8146 72.8636 80.0078 72.7074 80.255 72.5739C80.5021 72.4375 80.8288 72.3693 81.2351 72.3693C81.7635 72.3693 82.2351 72.5028 82.6499 72.7699C83.0646 73.0369 83.3899 73.4219 83.6257 73.9247C83.8643 74.4276 83.9837 75.0327 83.9837 75.7401C83.9837 76.4474 83.8658 77.054 83.63 77.5597C83.3942 78.0625 83.0703 78.4503 82.6584 78.723C82.2464 78.9929 81.7763 79.1278 81.2479 79.1278C80.8501 79.1278 80.5249 79.0611 80.272 78.9276C80.022 78.794 79.826 78.6378 79.6839 78.4588C79.5419 78.2798 79.4325 78.1207 79.3558 77.9815H79.2791V81.4545H78.005ZM79.2536 75.7273C79.2536 76.1875 79.3203 76.5909 79.4538 76.9375C79.5874 77.2841 79.7805 77.5554 80.0334 77.7514C80.2862 77.9446 80.5959 78.0412 80.9624 78.0412C81.343 78.0412 81.6612 77.9403 81.9169 77.7386C82.1726 77.5341 82.3658 77.2571 82.4964 76.9077C82.63 76.5582 82.6967 76.1648 82.6967 75.7273C82.6967 75.2955 82.6314 74.9077 82.5007 74.5639C82.3729 74.2202 82.1797 73.9489 81.9212 73.75C81.6655 73.5511 81.3459 73.4517 80.9624 73.4517C80.593 73.4517 80.2805 73.5469 80.0249 73.7372C79.772 73.9276 79.5803 74.1932 79.4496 74.5341C79.3189 74.875 79.2536 75.2727 79.2536 75.7273ZM90.3161 74.0526L89.1612 74.2571C89.1129 74.1094 89.0362 73.9687 88.9311 73.8352C88.8288 73.7017 88.6896 73.5923 88.5135 73.5071C88.3374 73.4219 88.1172 73.3793 87.853 73.3793C87.4922 73.3793 87.1911 73.4602 86.9496 73.6222C86.7081 73.7812 86.5874 73.9872 86.5874 74.2401C86.5874 74.4588 86.6683 74.6349 86.8303 74.7685C86.9922 74.902 87.2536 75.0114 87.6143 75.0966L88.6541 75.3352C89.2564 75.4744 89.7053 75.6889 90.0007 75.9787C90.2962 76.2685 90.4439 76.6449 90.4439 77.108C90.4439 77.5 90.3303 77.8494 90.103 78.1562C89.8786 78.4602 89.5646 78.6989 89.1612 78.8722C88.7607 79.0455 88.2962 79.1321 87.7678 79.1321C87.0348 79.1321 86.4368 78.9759 85.9737 78.6634C85.5107 78.348 85.2266 77.9006 85.1214 77.321L86.353 77.1335C86.4297 77.4545 86.5874 77.6974 86.826 77.8622C87.0646 78.0241 87.3757 78.1051 87.7592 78.1051C88.1768 78.1051 88.5107 78.0185 88.7607 77.8452C89.0107 77.669 89.1357 77.4545 89.1357 77.2017C89.1357 76.9972 89.0589 76.8253 88.9055 76.6861C88.755 76.5469 88.5234 76.4418 88.2109 76.3707L87.103 76.1278C86.4922 75.9886 86.0405 75.767 85.7479 75.4631C85.4581 75.1591 85.3132 74.7741 85.3132 74.3082C85.3132 73.9219 85.4212 73.5838 85.6371 73.294C85.853 73.0043 86.1513 72.7784 86.532 72.6165C86.9126 72.4517 87.3487 72.3693 87.8402 72.3693C88.5476 72.3693 89.1044 72.5227 89.5107 72.8295C89.9169 73.1335 90.1854 73.5412 90.3161 74.0526ZM92.6843 79.081C92.4513 79.081 92.2511 78.9986 92.0835 78.8338C91.9158 78.6662 91.832 78.4645 91.832 78.2287C91.832 77.9957 91.9158 77.7969 92.0835 77.6321C92.2511 77.4645 92.4513 77.3807 92.6843 77.3807C92.9173 77.3807 93.1175 77.4645 93.2852 77.6321C93.4528 77.7969 93.5366 77.9957 93.5366 78.2287C93.5366 78.3849 93.4968 78.5284 93.4173 78.6591C93.3406 78.7869 93.2383 78.8892 93.1104 78.9659C92.9826 79.0426 92.8406 79.081 92.6843 79.081ZM92.6843 74.3168C92.4513 74.3168 92.2511 74.233 92.0835 74.0653C91.9158 73.8977 91.832 73.6974 91.832 73.4645C91.832 73.2315 91.9158 73.0327 92.0835 72.8679C92.2511 72.7003 92.4513 72.6165 92.6843 72.6165C92.9173 72.6165 93.1175 72.7003 93.2852 72.8679C93.4528 73.0327 93.5366 73.2315 93.5366 73.4645C93.5366 73.6207 93.4968 73.7642 93.4173 73.8949C93.3406 74.0227 93.2383 74.125 93.1104 74.2017C92.9826 74.2784 92.8406 74.3168 92.6843 74.3168ZM98.5671 69.8636L95.7546 80.3125H94.6168L97.4293 69.8636H98.5671ZM102.973 69.8636L100.161 80.3125H99.0231L101.836 69.8636H102.973ZM107.171 72.4545V73.4773H103.472V72.4545H107.171ZM104.486 79V71.696C104.486 71.2869 104.576 70.9474 104.755 70.6776C104.934 70.4048 105.171 70.2017 105.466 70.0682C105.762 69.9318 106.083 69.8636 106.429 69.8636C106.685 69.8636 106.904 69.8849 107.086 69.9276C107.267 69.9673 107.402 70.0043 107.49 70.0384L107.192 71.0696C107.132 71.0526 107.056 71.0327 106.962 71.0099C106.868 70.9844 106.755 70.9716 106.621 70.9716C106.311 70.9716 106.09 71.0483 105.956 71.2017C105.826 71.3551 105.76 71.5767 105.76 71.8665V79H104.486ZM109.76 70.2727V79H108.485V70.2727H109.76ZM112.279 81.4545C112.089 81.4545 111.915 81.4389 111.759 81.4077C111.603 81.3793 111.487 81.348 111.41 81.3139L111.717 80.2699C111.95 80.3324 112.157 80.3594 112.339 80.3509C112.521 80.3423 112.681 80.2741 112.82 80.1463C112.962 80.0185 113.087 79.8097 113.195 79.5199L113.353 79.0852L110.958 72.4545H112.322L113.979 77.5341H114.048L115.705 72.4545H117.073L114.376 79.8736C114.251 80.2145 114.092 80.5028 113.898 80.7386C113.705 80.9773 113.475 81.1563 113.208 81.2756C112.941 81.3949 112.631 81.4545 112.279 81.4545ZM120.805 79.1321C120.191 79.1321 119.656 78.9915 119.199 78.7102C118.741 78.429 118.386 78.0355 118.133 77.5298C117.88 77.0241 117.754 76.4332 117.754 75.7571C117.754 75.0781 117.88 74.4844 118.133 73.9759C118.386 73.4673 118.741 73.0724 119.199 72.7912C119.656 72.5099 120.191 72.3693 120.805 72.3693C121.419 72.3693 121.954 72.5099 122.412 72.7912C122.869 73.0724 123.224 73.4673 123.477 73.9759C123.73 74.4844 123.856 75.0781 123.856 75.7571C123.856 76.4332 123.73 77.0241 123.477 77.5298C123.224 78.0355 122.869 78.429 122.412 78.7102C121.954 78.9915 121.419 79.1321 120.805 79.1321ZM120.809 78.0625C121.207 78.0625 121.537 77.9574 121.798 77.7472C122.059 77.5369 122.252 77.2571 122.377 76.9077C122.505 76.5582 122.569 76.1733 122.569 75.7528C122.569 75.3352 122.505 74.9517 122.377 74.6023C122.252 74.25 122.059 73.9673 121.798 73.7543C121.537 73.5412 121.207 73.4347 120.809 73.4347C120.409 73.4347 120.076 73.5412 119.812 73.7543C119.551 73.9673 119.356 74.25 119.228 74.6023C119.103 74.9517 119.041 75.3352 119.041 75.7528C119.041 76.1733 119.103 76.5582 119.228 76.9077C119.356 77.2571 119.551 77.5369 119.812 77.7472C120.076 77.9574 120.409 78.0625 120.809 78.0625ZM126.553 75.1136V79H125.278V72.4545H126.501V73.5199H126.582C126.733 73.1733 126.969 72.8949 127.29 72.6847C127.614 72.4744 128.021 72.3693 128.513 72.3693C128.959 72.3693 129.349 72.4631 129.685 72.6506C130.02 72.8352 130.28 73.1108 130.464 73.4773C130.649 73.8437 130.741 74.2969 130.741 74.8366V79H129.467V74.9901C129.467 74.5156 129.344 74.1449 129.097 73.8778C128.849 73.608 128.51 73.473 128.078 73.473C127.783 73.473 127.52 73.5369 127.29 73.6648C127.063 73.7926 126.882 73.9801 126.749 74.2273C126.618 74.4716 126.553 74.767 126.553 75.1136ZM136.597 76.2855V72.4545H137.875V79H136.622V77.8665H136.554C136.403 78.2159 136.162 78.5071 135.83 78.7401C135.5 78.9702 135.089 79.0852 134.598 79.0852C134.178 79.0852 133.805 78.9929 133.482 78.8082C133.161 78.6207 132.908 78.3438 132.723 77.9773C132.541 77.6108 132.45 77.1577 132.45 76.6179V72.4545H133.724V76.4645C133.724 76.9105 133.848 77.2656 134.095 77.5298C134.342 77.794 134.663 77.9261 135.058 77.9261C135.297 77.9261 135.534 77.8665 135.77 77.7472C136.009 77.6278 136.206 77.4474 136.362 77.206C136.521 76.9645 136.599 76.6577 136.597 76.2855ZM139.587 79V72.4545H140.861V79H139.587ZM140.23 71.4446C140.009 71.4446 139.819 71.3707 139.659 71.223C139.503 71.0724 139.425 70.8935 139.425 70.6861C139.425 70.4759 139.503 70.2969 139.659 70.1491C139.819 69.9986 140.009 69.9233 140.23 69.9233C140.452 69.9233 140.641 69.9986 140.797 70.1491C140.956 70.2969 141.036 70.4759 141.036 70.6861C141.036 70.8935 140.956 71.0724 140.797 71.223C140.641 71.3707 140.452 71.4446 140.23 71.4446ZM143.415 79.081C143.182 79.081 142.982 78.9986 142.814 78.8338C142.646 78.6662 142.562 78.4645 142.562 78.2287C142.562 77.9957 142.646 77.7969 142.814 77.6321C142.982 77.4645 143.182 77.3807 143.415 77.3807C143.648 77.3807 143.848 77.4645 144.016 77.6321C144.183 77.7969 144.267 77.9957 144.267 78.2287C144.267 78.3849 144.227 78.5284 144.148 78.6591C144.071 78.7869 143.969 78.8892 143.841 78.9659C143.713 79.0426 143.571 79.081 143.415 79.081ZM148.731 79.1321C148.097 79.1321 147.552 78.9886 147.094 78.7017C146.64 78.4119 146.29 78.0128 146.046 77.5043C145.802 76.9957 145.68 76.4134 145.68 75.7571C145.68 75.0923 145.805 74.5057 146.055 73.9972C146.305 73.4858 146.657 73.0866 147.112 72.7997C147.566 72.5128 148.102 72.3693 148.718 72.3693C149.215 72.3693 149.658 72.4616 150.048 72.6463C150.437 72.8281 150.751 73.0838 150.989 73.4134C151.231 73.7429 151.374 74.1278 151.42 74.5682H150.18C150.112 74.2614 149.955 73.9972 149.711 73.7756C149.469 73.554 149.146 73.4432 148.739 73.4432C148.384 73.4432 148.073 73.5369 147.806 73.7244C147.542 73.9091 147.336 74.1733 147.188 74.517C147.04 74.858 146.967 75.2614 146.967 75.7273C146.967 76.2045 147.039 76.6165 147.184 76.9631C147.329 77.3097 147.533 77.5781 147.798 77.7685C148.065 77.9588 148.379 78.054 148.739 78.054C148.981 78.054 149.2 78.0099 149.396 77.9219C149.594 77.831 149.761 77.7017 149.894 77.5341C150.031 77.3665 150.126 77.1648 150.18 76.929H151.42C151.374 77.3523 151.237 77.7301 151.006 78.0625C150.776 78.3949 150.468 78.6562 150.082 78.8466C149.698 79.0369 149.248 79.1321 148.731 79.1321ZM155.539 79.1321C154.926 79.1321 154.39 78.9915 153.933 78.7102C153.475 78.429 153.12 78.0355 152.868 77.5298C152.615 77.0241 152.488 76.4332 152.488 75.7571C152.488 75.0781 152.615 74.4844 152.868 73.9759C153.12 73.4673 153.475 73.0724 153.933 72.7912C154.39 72.5099 154.926 72.3693 155.539 72.3693C156.153 72.3693 156.689 72.5099 157.146 72.7912C157.603 73.0724 157.958 73.4673 158.211 73.9759C158.464 74.4844 158.591 75.0781 158.591 75.7571C158.591 76.4332 158.464 77.0241 158.211 77.5298C157.958 78.0355 157.603 78.429 157.146 78.7102C156.689 78.9915 156.153 79.1321 155.539 79.1321ZM155.544 78.0625C155.941 78.0625 156.271 77.9574 156.532 77.7472C156.794 77.5369 156.987 77.2571 157.112 76.9077C157.24 76.5582 157.304 76.1733 157.304 75.7528C157.304 75.3352 157.24 74.9517 157.112 74.6023C156.987 74.25 156.794 73.9673 156.532 73.7543C156.271 73.5412 155.941 73.4347 155.544 73.4347C155.143 73.4347 154.811 73.5412 154.547 73.7543C154.285 73.9673 154.091 74.25 153.963 74.6023C153.838 74.9517 153.775 75.3352 153.775 75.7528C153.775 76.1733 153.838 76.5582 153.963 76.9077C154.091 77.2571 154.285 77.5369 154.547 77.7472C154.811 77.9574 155.143 78.0625 155.544 78.0625ZM160.013 79V72.4545H161.236V73.5199H161.317C161.453 73.1591 161.676 72.8778 161.986 72.6761C162.295 72.4716 162.666 72.3693 163.098 72.3693C163.536 72.3693 163.902 72.4716 164.197 72.6761C164.496 72.8807 164.716 73.1619 164.858 73.5199H164.926C165.082 73.1705 165.331 72.892 165.672 72.6847C166.013 72.4744 166.419 72.3693 166.891 72.3693C167.484 72.3693 167.969 72.5554 168.344 72.9276C168.722 73.2997 168.911 73.8608 168.911 74.6108V79H167.636V74.7301C167.636 74.2869 167.516 73.9659 167.274 73.767C167.033 73.5682 166.744 73.4688 166.409 73.4688C165.994 73.4688 165.672 73.5966 165.442 73.8523C165.212 74.1051 165.097 74.4304 165.097 74.8281V79H163.827V74.6491C163.827 74.294 163.716 74.0085 163.494 73.7926C163.273 73.5767 162.984 73.4688 162.629 73.4688C162.388 73.4688 162.165 73.5327 161.96 73.6605C161.759 73.7855 161.595 73.9602 161.47 74.1847C161.348 74.4091 161.287 74.669 161.287 74.9645V79H160.013Z" fill="#794DFF"/>
<circle cx="38" cy="31" r="4" fill="#794DFF"/>
<circle opacity="0.4" cx="50" cy="31" r="4" fill="#794DFF"/>
<circle opacity="0.4" cx="62" cy="31" r="4" fill="#794DFF"/>
</g>
<defs>
<linearGradient id="paint0_linear_5593_156" x1="25.5" y1="8.04235e-06" x2="25.4735" y2="150" gradientUnits="userSpaceOnUse">
<stop stop-color="#76717F" stop-opacity="0"/>
<stop offset="0.245" stop-color="#3F404D" stop-opacity="0.5"/>
<stop offset="0.75" stop-color="#3F404D" stop-opacity="0.5"/>
<stop offset="1" stop-color="#76717F" stop-opacity="0"/>
</linearGradient>
<linearGradient id="paint1_linear_5593_156" x1="205.5" y1="8.04235e-06" x2="205.473" y2="150" gradientUnits="userSpaceOnUse">
<stop stop-color="#76717F" stop-opacity="0"/>
<stop offset="0.245" stop-color="#3F404D" stop-opacity="0.5"/>
<stop offset="0.75" stop-color="#3F404D" stop-opacity="0.5"/>
<stop offset="1" stop-color="#76717F" stop-opacity="0"/>
</linearGradient>
<linearGradient id="paint2_linear_5593_156" x1="1.22952e-05" y1="19.5" x2="230" y2="19.5624" gradientUnits="userSpaceOnUse">
<stop stop-color="#76717F" stop-opacity="0"/>
<stop offset="0.245" stop-color="#3F404D" stop-opacity="0.5"/>
<stop offset="0.75" stop-color="#3F404D" stop-opacity="0.5"/>
<stop offset="1" stop-color="#76717F" stop-opacity="0"/>
</linearGradient>
<linearGradient id="paint3_linear_5593_156" x1="1.22952e-05" y1="129.5" x2="230" y2="129.562" gradientUnits="userSpaceOnUse">
<stop stop-color="#76717F" stop-opacity="0"/>
<stop offset="0.245" stop-color="#3F404D" stop-opacity="0.5"/>
<stop offset="0.75" stop-color="#3F404D" stop-opacity="0.5"/>
<stop offset="1" stop-color="#76717F" stop-opacity="0"/>
</linearGradient>
<clipPath id="clip0_5593_156">
<rect width="230" height="150" fill="white"/>
</clipPath>
</defs>
</svg>
