<svg width="118" height="32" viewBox="0 0 118 32" fill="none" xmlns="http://www.w3.org/2000/svg">
<g clip-path="url(#clip0_6687_43467)">
<mask id="mask0_6687_43467" style="mask-type:luminance" maskUnits="userSpaceOnUse" x="0" y="0" width="32" height="32">
<path d="M24 0H8C3.58172 0 0 3.58172 0 8V24C0 28.4183 3.58172 32 8 32H24C28.4183 32 32 28.4183 32 24V8C32 3.58172 28.4183 0 24 0Z" fill="white"/>
</mask>
<g mask="url(#mask0_6687_43467)">
<path d="M24 0H8C3.58172 0 0 3.58172 0 8V24C0 28.4183 3.58172 32 8 32H24C28.4183 32 32 28.4183 32 24V8C32 3.58172 28.4183 0 24 0Z" fill="#794DFF"/>
<path d="M24 0H8C3.58172 0 0 3.58172 0 8V24C0 28.4183 3.58172 32 8 32H24C28.4183 32 32 28.4183 32 24V8C32 3.58172 28.4183 0 24 0Z" fill="url(#paint0_linear_6687_43467)"/>
<path fill-rule="evenodd" clip-rule="evenodd" d="M22.2575 20.4674L16.7088 13.6282C16.302 13.1268 15.534 13.1365 15.14 13.6479L10.1166 20.1691C9.92729 20.4148 9.63463 20.5588 9.3244 20.5588H7.16985C6.33099 20.5588 5.86493 19.5882 6.38944 18.9335L15.1381 8.01437C15.5363 7.5174 16.2914 7.51426 16.6937 8.0079L25.8194 19.2056C26.3518 19.8589 25.887 20.8374 25.0443 20.8374H23.0341C22.7327 20.8374 22.4474 20.7014 22.2575 20.4674ZM16.6681 18.9827L19.2583 21.9356C19.8253 22.5819 19.3663 23.595 18.5066 23.595H13.585C12.7495 23.595 12.2824 22.6312 12.8002 21.9754L15.1314 19.0225C15.5187 18.532 16.2559 18.5129 16.6681 18.9827Z" fill="url(#paint1_linear_6687_43467)"/>
</g>
<path d="M24.0003 0.66626H8.00033C3.95024 0.66626 0.666992 3.94951 0.666992 7.99959V23.9996C0.666992 28.0497 3.95024 31.3329 8.00033 31.3329H24.0003C28.0504 31.3329 31.3337 28.0497 31.3337 23.9996V7.99959C31.3337 3.94951 28.0504 0.66626 24.0003 0.66626Z" stroke="url(#paint2_linear_6687_43467)" stroke-width="2"/>
</g>
<path d="M45.2642 23V8.45455H54.8949V10.9901H48.3395V14.456H54.2557V16.9915H48.3395V23H45.2642ZM59.9322 8.45455V23H56.9066V8.45455H59.9322ZM64.2237 27.0909C63.8402 27.0909 63.4804 27.0601 63.1442 26.9986C62.8127 26.9418 62.5381 26.8684 62.3203 26.7784L63.0021 24.5199C63.3572 24.6288 63.6768 24.688 63.9609 24.6974C64.2498 24.7069 64.4983 24.6406 64.7067 24.4986C64.9197 24.3565 65.0926 24.1151 65.2251 23.7741L65.4027 23.3125L61.4893 12.0909H64.6712L66.9297 20.1023H67.0433L69.3232 12.0909H72.5263L68.2862 24.179C68.0826 24.7661 67.8056 25.2775 67.4553 25.7131C67.1096 26.1534 66.6716 26.492 66.1413 26.7287C65.611 26.9702 64.9718 27.0909 64.2237 27.0909ZM78.652 23.2131C77.5488 23.2131 76.5947 22.9787 75.7898 22.5099C74.9896 22.0365 74.3717 21.3783 73.9361 20.5355C73.5005 19.688 73.2827 18.7055 73.2827 17.5881C73.2827 16.4612 73.5005 15.4763 73.9361 14.6335C74.3717 13.786 74.9896 13.1278 75.7898 12.6591C76.5947 12.1856 77.5488 11.9489 78.652 11.9489C79.7552 11.9489 80.7069 12.1856 81.5071 12.6591C82.312 13.1278 82.9323 13.786 83.3679 14.6335C83.8035 15.4763 84.0213 16.4612 84.0213 17.5881C84.0213 18.7055 83.8035 19.688 83.3679 20.5355C82.9323 21.3783 82.312 22.0365 81.5071 22.5099C80.7069 22.9787 79.7552 23.2131 78.652 23.2131ZM78.6662 20.8693C79.1681 20.8693 79.5871 20.7273 79.9233 20.4432C80.2595 20.1544 80.5128 19.7614 80.6832 19.2642C80.8584 18.767 80.946 18.2012 80.946 17.5668C80.946 16.9323 80.8584 16.3665 80.6832 15.8693C80.5128 15.3722 80.2595 14.9792 79.9233 14.6903C79.5871 14.4015 79.1681 14.2571 78.6662 14.2571C78.1596 14.2571 77.7334 14.4015 77.3878 14.6903C77.0469 14.9792 76.7888 15.3722 76.6136 15.8693C76.4432 16.3665 76.358 16.9323 76.358 17.5668C76.358 18.2012 76.4432 18.767 76.6136 19.2642C76.7888 19.7614 77.0469 20.1544 77.3878 20.4432C77.7334 20.7273 78.1596 20.8693 78.6662 20.8693ZM89.0142 16.6932V23H85.9886V12.0909H88.8722V14.0156H89C89.2415 13.3812 89.6463 12.8793 90.2145 12.5099C90.7827 12.1359 91.4716 11.9489 92.2812 11.9489C93.0388 11.9489 93.6993 12.1146 94.2628 12.446C94.8262 12.7775 95.2642 13.2509 95.5767 13.8665C95.8892 14.4773 96.0455 15.2064 96.0455 16.054V23H93.0199V16.5938C93.0246 15.9261 92.8542 15.4053 92.5085 15.0312C92.1629 14.6525 91.687 14.4631 91.081 14.4631C90.6738 14.4631 90.3139 14.5507 90.0014 14.7259C89.6937 14.901 89.4522 15.1567 89.277 15.4929C89.1065 15.8243 89.0189 16.2244 89.0142 16.6932ZM107.471 8.45455H110.547V17.9006C110.547 18.9612 110.293 19.8892 109.787 20.6847C109.285 21.4801 108.582 22.1004 107.677 22.5455C106.773 22.9858 105.719 23.206 104.517 23.206C103.309 23.206 102.253 22.9858 101.349 22.5455C100.445 22.1004 99.7416 21.4801 99.2397 20.6847C98.7378 19.8892 98.4869 18.9612 98.4869 17.9006V8.45455H101.562V17.6378C101.562 18.1918 101.683 18.6842 101.924 19.1151C102.171 19.5459 102.516 19.8845 102.961 20.1307C103.406 20.3769 103.925 20.5 104.517 20.5C105.113 20.5 105.632 20.3769 106.072 20.1307C106.517 19.8845 106.86 19.5459 107.102 19.1151C107.348 18.6842 107.471 18.1918 107.471 17.6378V8.45455ZM116.152 8.45455V23H113.077V8.45455H116.152Z" fill="#3F404D" fill-opacity="0.9"/>
<defs>
<linearGradient id="paint0_linear_6687_43467" x1="29" y1="2" x2="3" y2="29.5" gradientUnits="userSpaceOnUse">
<stop stop-opacity="0"/>
<stop offset="1" stop-opacity="0.38"/>
</linearGradient>
<linearGradient id="paint1_linear_6687_43467" x1="16.1071" y1="7.63965" x2="16.1071" y2="23.595" gradientUnits="userSpaceOnUse">
<stop stop-color="white"/>
<stop offset="1" stop-color="white" stop-opacity="0.6"/>
</linearGradient>
<linearGradient id="paint2_linear_6687_43467" x1="16.0003" y1="-0.000407004" x2="16.0003" y2="31.9996" gradientUnits="userSpaceOnUse">
<stop stop-color="white" stop-opacity="0.28"/>
<stop offset="1" stop-color="white" stop-opacity="0.04"/>
</linearGradient>
<clipPath id="clip0_6687_43467">
<rect width="32" height="32" fill="white"/>
</clipPath>
</defs>
</svg>
