<svg width="32" height="32" viewBox="0 0 32 32" fill="none" xmlns="http://www.w3.org/2000/svg">
<g clip-path="url(#clip0_6687_43485)">
<mask id="mask0_6687_43485" style="mask-type:luminance" maskUnits="userSpaceOnUse" x="0" y="0" width="32" height="32">
<path d="M24 0H8C3.58172 0 0 3.58172 0 8V24C0 28.4183 3.58172 32 8 32H24C28.4183 32 32 28.4183 32 24V8C32 3.58172 28.4183 0 24 0Z" fill="white"/>
</mask>
<g mask="url(#mask0_6687_43485)">
<path d="M24 0H8C3.58172 0 0 3.58172 0 8V24C0 28.4183 3.58172 32 8 32H24C28.4183 32 32 28.4183 32 24V8C32 3.58172 28.4183 0 24 0Z" fill="#794DFF"/>
<path d="M24 0H8C3.58172 0 0 3.58172 0 8V24C0 28.4183 3.58172 32 8 32H24C28.4183 32 32 28.4183 32 24V8C32 3.58172 28.4183 0 24 0Z" fill="url(#paint0_linear_6687_43485)"/>
<path fill-rule="evenodd" clip-rule="evenodd" d="M22.2575 20.4674L16.7088 13.6282C16.302 13.1268 15.534 13.1365 15.14 13.6479L10.1166 20.1691C9.92729 20.4148 9.63463 20.5588 9.3244 20.5588H7.16985C6.33099 20.5588 5.86493 19.5882 6.38944 18.9335L15.1381 8.01437C15.5363 7.5174 16.2914 7.51426 16.6937 8.0079L25.8194 19.2056C26.3518 19.8589 25.887 20.8374 25.0443 20.8374H23.0341C22.7327 20.8374 22.4474 20.7014 22.2575 20.4674ZM16.6681 18.9827L19.2583 21.9356C19.8253 22.5819 19.3663 23.595 18.5066 23.595H13.585C12.7495 23.595 12.2824 22.6312 12.8002 21.9754L15.1314 19.0225C15.5187 18.532 16.2559 18.5129 16.6681 18.9827Z" fill="url(#paint1_linear_6687_43485)"/>
</g>
<path d="M24.0003 0.66626H8.00033C3.95024 0.66626 0.666992 3.94951 0.666992 7.99959V23.9996C0.666992 28.0497 3.95024 31.3329 8.00033 31.3329H24.0003C28.0504 31.3329 31.3337 28.0497 31.3337 23.9996V7.99959C31.3337 3.94951 28.0504 0.66626 24.0003 0.66626Z" stroke="url(#paint2_linear_6687_43485)" stroke-width="2"/>
</g>
<defs>
<linearGradient id="paint0_linear_6687_43485" x1="29" y1="2" x2="3" y2="29.5" gradientUnits="userSpaceOnUse">
<stop stop-opacity="0"/>
<stop offset="1" stop-opacity="0.38"/>
</linearGradient>
<linearGradient id="paint1_linear_6687_43485" x1="16.1071" y1="7.63965" x2="16.1071" y2="23.595" gradientUnits="userSpaceOnUse">
<stop stop-color="white"/>
<stop offset="1" stop-color="white" stop-opacity="0.6"/>
</linearGradient>
<linearGradient id="paint2_linear_6687_43485" x1="16.0003" y1="-0.000407004" x2="16.0003" y2="31.9996" gradientUnits="userSpaceOnUse">
<stop stop-color="white" stop-opacity="0.28"/>
<stop offset="1" stop-color="white" stop-opacity="0.04"/>
</linearGradient>
<clipPath id="clip0_6687_43485">
<rect width="32" height="32" fill="white"/>
</clipPath>
</defs>
</svg>
