<svg width="183" height="259" viewBox="0 0 183 259" fill="none" xmlns="http://www.w3.org/2000/svg">
<path opacity="0.1" fill-rule="evenodd" clip-rule="evenodd" d="M30.8015 205.166L120.033 127.636C120.5 127.23 120.491 126.503 120.014 126.11L33.8975 55.0662C33.6672 54.8762 33.5338 54.5933 33.5338 54.2948L33.5338 1.00779C33.5338 0.153186 34.5364 -0.307636 35.185 0.24887L181.866 126.109C182.329 126.506 182.332 127.22 181.872 127.621L32.1149 258.325C31.468 258.89 30.4573 258.43 30.4573 257.572L30.4573 205.921C30.4573 205.631 30.5829 205.356 30.8015 205.166ZM60.0962 127.203L1.6843 182.076C1.04589 182.676 -0.000374449 182.223 -0.00037441 181.347L-0.000369853 77.0886C-0.000369816 76.2374 0.995281 75.7754 1.64528 76.325L60.0572 125.711C60.5136 126.096 60.5318 126.794 60.0962 127.203Z" fill="white"/>
</svg>
