<svg width="153" height="259" viewBox="0 0 153 259" fill="none" xmlns="http://www.w3.org/2000/svg">
<g clip-path="url(#clip0_10139_102425)">
<path opacity="0.1" fill-rule="evenodd" clip-rule="evenodd" d="M1.077 206.092L90.3088 128.562C90.7755 128.156 90.7662 127.429 90.2893 127.035L4.17302 55.9924C3.94302 55.8024 3.80902 55.5194 3.80902 55.2214L3.80903 1.9344C3.80903 1.0794 4.81203 0.618402 5.46003 1.1754L152.141 127.035C152.604 127.431 152.607 128.146 152.148 128.547L2.39 259.251C1.743 259.816 0.733002 259.357 0.733002 258.498L0.733006 206.847C0.733006 206.557 0.858001 206.282 1.077 206.092ZM60.373 128.129L1.96101 183.002C1.32201 183.602 0.276008 183.149 0.276008 182.273L0.276017 78.0144C0.276017 77.1634 1.27201 76.7014 1.92201 77.2514L60.334 126.636C60.79 127.022 60.808 127.72 60.373 128.129Z" fill="white"/>
</g>
<defs>
<clipPath id="clip0_10139_102425">
<rect width="153" height="259" fill="white" transform="translate(153 259) rotate(-180)"/>
</clipPath>
</defs>
</svg>
