<svg width="183" height="259" viewBox="0 0 183 259" fill="none" xmlns="http://www.w3.org/2000/svg">
<path opacity="0.1" fill-rule="evenodd" clip-rule="evenodd" d="M151.923 53.4083L62.6912 130.938C62.2245 131.344 62.2338 132.071 62.7107 132.465L148.827 203.508C149.057 203.698 149.191 203.981 149.191 204.279L149.191 257.566C149.191 258.421 148.188 258.882 147.54 258.325L0.858578 132.465C0.396073 132.069 0.393066 131.354 0.852215 130.953L150.61 0.248964C151.257 -0.31558 152.267 0.143831 152.267 1.00238L152.267 52.6534C152.267 52.943 152.142 53.2184 151.923 53.4083ZM122.627 131.371L181.039 76.4983C181.678 75.8986 182.724 76.3512 182.724 77.2271L182.724 181.486C182.724 182.337 181.728 182.799 181.078 182.249L122.666 132.864C122.21 132.478 122.192 131.78 122.627 131.371Z" fill="white"/>
</svg>
