<svg width="153" height="259" viewBox="0 0 153 259" fill="none" xmlns="http://www.w3.org/2000/svg">
<g clip-path="url(#clip0_10139_101646)">
<path opacity="0.1" fill-rule="evenodd" clip-rule="evenodd" d="M151.923 52.9079L62.6912 130.438C62.2245 130.844 62.2338 131.571 62.7107 131.965L148.827 203.008C149.057 203.198 149.191 203.481 149.191 203.779V257.066C149.191 257.921 148.188 258.382 147.54 257.825L0.858576 131.965C0.396071 131.569 0.393064 130.854 0.852213 130.453L150.61 -0.251471C151.257 -0.816015 152.267 -0.356604 152.267 0.501945V52.153C152.267 52.4426 152.142 52.718 151.923 52.9079ZM92.627 130.871L151.039 75.9979C151.678 75.3982 152.724 75.8508 152.724 76.7267V180.986C152.724 181.837 151.728 182.299 151.078 181.749L92.666 132.364C92.21 131.978 92.192 131.28 92.627 130.871Z" fill="white"/>
</g>
<defs>
<clipPath id="clip0_10139_101646">
<rect width="153" height="259" fill="white"/>
</clipPath>
</defs>
</svg>
