<svg width="76" height="73" viewBox="0 0 76 73" fill="none" xmlns="http://www.w3.org/2000/svg">
<path d="M64.5554 44.1089L74.2906 41.8699L63.9646 38.1795C65.1004 32.3316 64.3495 26.4143 61.5552 21.4328" stroke="#3F404D" stroke-miterlimit="10" stroke-linecap="round" stroke-linejoin="round"/>
<path d="M56.3632 53.0987C58.6954 50.528 60.5316 47.6876 61.8713 44.7271" stroke="#3F404D" stroke-miterlimit="10" stroke-linecap="round" stroke-linejoin="round"/>
<path d="M15.5605 56.1489C24.7724 66.4803 41.9214 66.223 53.8642 55.5748" stroke="#3F404D" stroke-miterlimit="10" stroke-linecap="round" stroke-linejoin="round"/>
<path d="M9.8966 41.7709C9.94931 43.0682 10.1001 44.3513 10.3514 45.608" stroke="#3F404D" stroke-miterlimit="10" stroke-linecap="round" stroke-linejoin="round"/>
<path d="M58.8094 17.5877C49.5976 7.25626 32.4485 7.51364 20.5057 18.1618C14.7341 23.3082 11.2343 29.9396 10.1989 36.5851" stroke="#3F404D" stroke-miterlimit="10" stroke-linecap="round" stroke-linejoin="round"/>
<path d="M41.9321 21.5959C35.5687 19.5941 31.9489 25.6196 32.2295 31.2157C26.7299 30.1424 20.2511 32.8688 21.3285 39.4518C23.144 50.5507 38.1374 49.2966 44.7504 48.1624C45.5032 48.0379 46.1248 47.9342 46.6329 47.8353C46.8024 47.3463 46.9947 46.7455 47.2239 46.0183C49.2871 39.6342 52.6602 24.9709 41.9321 21.5959Z" stroke="#3F404D" stroke-miterlimit="10" stroke-linecap="round" stroke-linejoin="round"/>
</svg>
