<svg width="68" height="64" viewBox="0 0 68 64" fill="none" xmlns="http://www.w3.org/2000/svg">
<path d="M61.775 29.7136L27.8321 59.0673C26.5348 60.1894 24.5732 60.047 23.4512 58.7497L5.57358 38.0772C4.45152 36.7799 4.59395 34.8183 5.89125 33.6962L39.8345 4.34306C41.1318 3.221 43.0934 3.36342 44.2154 4.66072L62.093 25.3332C63.215 26.6305 63.0726 28.5921 61.775 29.7136Z" stroke="#3F404D" stroke-miterlimit="10" stroke-linecap="round" stroke-linejoin="round"/>
<path d="M8.45872 41.4147L47.1002 7.99765" stroke="#3F404D" stroke-miterlimit="10" stroke-linecap="round" stroke-linejoin="round"/>
<path d="M48.4452 17.6011L42.2051 22.9976L49.9782 31.9859L56.2183 26.5895L48.4452 17.6011Z" stroke="#3F404D" stroke-miterlimit="10" stroke-linecap="round" stroke-linejoin="round"/>
<path d="M46.0672 22.8916C46.4495 20.2579 49.5661 19.9079 52.3765 25.6386L55.1771 25.3622L56.2387 26.59L49.9983 31.9865L48.5828 30.3494L50.5517 27.7C50.5517 27.7 45.7072 25.3702 46.0672 22.8916Z" stroke="#3F404D" stroke-miterlimit="10" stroke-linecap="round" stroke-linejoin="round"/>
<path d="M38.6952 44.4471C38.6952 44.4471 43.7133 41.3592 41.6589 41.2579C39.6045 41.1567 38.7584 40.282 39.9648 39.5056C41.1712 38.7293 44.6565 39.7618 43.6179 38.4574C42.5797 37.1536 44.0251 37.5127 44.2494 37.4973C44.4737 37.4819 45.5607 36.0059 45.7328 36.1248C45.9054 36.2434 46.1062 36.7857 50.3516 33.1143" stroke="#3F404D" stroke-miterlimit="10" stroke-linecap="round" stroke-linejoin="round"/>
<path d="M14.8656 43.5831L33.7913 27.2164" stroke="#3F404D" stroke-miterlimit="10" stroke-linecap="round" stroke-linejoin="round"/>
<path d="M16.7185 45.7346L27.8694 36.0914" stroke="#3F404D" stroke-miterlimit="10" stroke-linecap="round" stroke-linejoin="round"/>
<path d="M20.0031 49.5149L35.5528 36.0679" stroke="#3F404D" stroke-miterlimit="10" stroke-linecap="round" stroke-linejoin="round"/>
<path d="M15.5273 30.4956L34.5037 14.085" stroke="#3F404D" stroke-miterlimit="10" stroke-linecap="round" stroke-linejoin="round"/>
</svg>
