<svg width="90" height="88" viewBox="0 0 90 88" fill="none" xmlns="http://www.w3.org/2000/svg">
<path d="M12.6807 40.526L1.40331 44.6699L13.5704 47.1508C12.4434 53.9669 13.519 60.55 16.9467 65.7367" stroke="#3F404D" stroke-miterlimit="10" stroke-linecap="round" stroke-linejoin="round"/>
<path d="M21.94 28.9802C19.3069 32.2786 17.2615 35.8018 15.7997 39.3782" stroke="#3F404D" stroke-miterlimit="10" stroke-linecap="round" stroke-linejoin="round"/>
<path d="M69.4148 18.7978C58.3225 8.60643 38.331 11.7262 24.7626 25.7661" stroke="#3F404D" stroke-miterlimit="10" stroke-linecap="round" stroke-linejoin="round"/>
<path d="M76.5002 34.1642C76.395 32.7022 76.1756 31.2731 75.84 29.8891" stroke="#3F404D" stroke-miterlimit="10" stroke-linecap="round" stroke-linejoin="round"/>
<path d="M20.2793 69.6406C31.3716 79.832 51.3631 76.7122 64.9315 62.6723C71.4885 55.887 75.3456 47.7924 76.3288 40.0895" stroke="#3F404D" stroke-miterlimit="10" stroke-linecap="round" stroke-linejoin="round"/>
<path d="M59.2298 48.458C63.1237 39.7443 59.4033 30.3802 50.9202 27.5425C42.437 24.7049 32.4034 29.4684 28.5095 38.182C24.6156 46.8957 28.3359 56.2598 36.8191 59.0975C45.3023 61.9351 55.3359 57.1716 59.2298 48.458Z" stroke="#3F404D" stroke-miterlimit="10" stroke-linecap="round" stroke-linejoin="round"/>
<path d="M40.0408 49.1922L46.9498 49.1401L44.8967 33.1199" stroke="#3F404D" stroke-miterlimit="10" stroke-linecap="round" stroke-linejoin="round"/>
</svg>
