<svg width="120" height="130" viewBox="0 0 120 130" fill="none" xmlns="http://www.w3.org/2000/svg">
<path d="M5.8727 49.2638L46.98 10.4645L112.706 78.9599L69.4749 120.942L5.8727 49.2638Z" stroke="#3F404D" stroke-miterlimit="10" stroke-linecap="round" stroke-linejoin="round"/>
<path d="M60.5522 110.883L104.742 70.6573" stroke="#3F404D" stroke-miterlimit="10" stroke-linecap="round" stroke-linejoin="round"/>
<path d="M94.6332 67.6562L73.5852 86.9516" stroke="#3F404D" stroke-miterlimit="10" stroke-linecap="round" stroke-linejoin="round"/>
<path d="M88.6359 65.9084L82.3235 71.2879" stroke="#3F404D" stroke-miterlimit="10" stroke-linecap="round" stroke-linejoin="round"/>
<path d="M84.6679 57.2082L53.3143 86.1144" stroke="#3F404D" stroke-miterlimit="10" stroke-linecap="round" stroke-linejoin="round"/>
<path d="M34.9299 82.0123L78.1776 42.9788" stroke="#3F404D" stroke-miterlimit="10" stroke-linecap="round" stroke-linejoin="round" stroke-dasharray="1 2"/>
<path d="M105.531 79.9037L79.8702 104.588" stroke="#3F404D" stroke-miterlimit="10" stroke-linecap="round" stroke-linejoin="round"/>
<path d="M103.106 77.9636L90.7753 89.1492" stroke="#3F404D" stroke-miterlimit="10" stroke-linecap="round" stroke-linejoin="round"/>
<path d="M69.5757 41.1368L48.2433 61.2137" stroke="#3F404D" stroke-miterlimit="10" stroke-linecap="round" stroke-linejoin="round"/>
<path d="M64.2757 36.9339L57.473 43.3174" stroke="#3F404D" stroke-miterlimit="10" stroke-linecap="round" stroke-linejoin="round"/>
<path d="M61.4612 33.4673L30.2673 62.5164" stroke="#3F404D" stroke-miterlimit="10" stroke-linecap="round" stroke-linejoin="round"/>
<path d="M46.7946 17.2072L38.4578 25.1861" stroke="#3F404D" stroke-miterlimit="10" stroke-linecap="round" stroke-linejoin="round"/>
<path d="M18.8068 44.2084L11.5458 50.9885" stroke="#3F404D" stroke-miterlimit="10" stroke-linecap="round" stroke-linejoin="round"/>
<path d="M17.3937 53.6658C16.9928 52.2744 17.2181 50.757 18.001 49.54" stroke="#3F404D" stroke-miterlimit="10" stroke-linecap="round" stroke-linejoin="round"/>
<path d="M24.3951 56.6731C22.1436 57.7077 19.3095 57.071 17.9629 54.9204" stroke="#3F404D" stroke-miterlimit="10" stroke-linecap="round" stroke-linejoin="round"/>
<path d="M27.008 53.6711C26.746 54.5644 26.2278 55.364 25.5161 55.9654" stroke="#3F404D" stroke-miterlimit="10" stroke-linecap="round" stroke-linejoin="round"/>
<path d="M19.541 48.0229C22.7472 46.034 27.1828 48.4528 27.2004 52.2471" stroke="#3F404D" stroke-miterlimit="10" stroke-linecap="round" stroke-linejoin="round"/>
<path d="M28.6726 43.8275C27.748 44.0619 26.8068 44.2632 25.9082 44.5854" stroke="#3F404D" stroke-miterlimit="10" stroke-linecap="round" stroke-linejoin="round"/>
<path d="M35.5974 40.2655C35.9158 42.2338 31.3625 43.1058 30.0918 43.4521" stroke="#3F404D" stroke-miterlimit="10" stroke-linecap="round" stroke-linejoin="round"/>
<path d="M26.7402 40.0547C29.3626 39.1678 31.9844 38.2813 34.6071 37.3951C34.7849 37.9186 34.9868 38.4344 35.1884 38.9495" stroke="#3F404D" stroke-miterlimit="10" stroke-linecap="round" stroke-linejoin="round"/>
<path d="M24.3657 43.8076C23.991 41.5857 23.3523 41.2007 25.4436 40.4939" stroke="#3F404D" stroke-miterlimit="10" stroke-linecap="round" stroke-linejoin="round"/>
</svg>
