<svg width="126" height="105" viewBox="0 0 126 105" fill="none" xmlns="http://www.w3.org/2000/svg">
<g clip-path="url(#clip0_5515_5168)">
<path d="M126 17L-2.17557e-06 17" stroke="url(#paint0_linear_5515_5168)" stroke-opacity="0.4"/>
<path d="M126 87L-2.17557e-06 87" stroke="url(#paint1_linear_5515_5168)" stroke-opacity="0.4"/>
<path d="M28 105L28 -3.27826e-07" stroke="url(#paint2_linear_5515_5168)" stroke-opacity="0.4"/>
<path d="M98 105L98 -3.27826e-07" stroke="url(#paint3_linear_5515_5168)" stroke-opacity="0.4"/>
<path d="M33 51.9138C33 58.3174 35.0373 64.554 38.8156 69.7163C42.5939 74.8785 47.916 78.6972 54.0077 80.6166C60.0993 82.5361 66.6428 82.4562 72.6861 80.3887C78.7294 78.3211 83.9573 74.3738 87.6092 69.1208C91.2611 63.8679 93.1465 57.5834 92.9911 51.1817C92.8357 44.78 90.6477 38.5949 86.7453 33.5264C82.8429 28.4579 77.4297 24.7702 71.2933 23" stroke="#794DFF" stroke-width="5" stroke-linecap="round"/>
<path d="M49.4602 58L54.4091 48.2045V48.125H48.6648V46.3636H56.5909V48.1648L51.6477 58H49.4602ZM58.4247 58V56.4773L62.4645 52.517C62.8509 52.1269 63.1728 51.7803 63.4304 51.4773C63.688 51.1742 63.8812 50.8807 64.0099 50.5966C64.1387 50.3125 64.2031 50.0095 64.2031 49.6875C64.2031 49.3201 64.1198 49.0057 63.9531 48.7443C63.7865 48.4792 63.5573 48.2746 63.2656 48.1307C62.974 47.9867 62.6425 47.9148 62.2713 47.9148C61.8887 47.9148 61.5535 47.9943 61.2656 48.1534C60.9777 48.3087 60.7543 48.5303 60.5952 48.8182C60.4399 49.1061 60.3622 49.4489 60.3622 49.8466H58.3565C58.3565 49.108 58.5251 48.4659 58.8622 47.9205C59.1993 47.375 59.6634 46.9527 60.2543 46.6534C60.849 46.3542 61.5308 46.2045 62.2997 46.2045C63.08 46.2045 63.7656 46.3504 64.3565 46.642C64.9474 46.9337 65.4058 47.3333 65.7315 47.8409C66.0611 48.3485 66.2259 48.928 66.2259 49.5795C66.2259 50.0152 66.1425 50.4432 65.9759 50.8636C65.8092 51.2841 65.5156 51.75 65.0952 52.2614C64.6785 52.7727 64.0933 53.392 63.3395 54.1193L61.3338 56.1591V56.2386H66.402V58H58.4247ZM74.5838 55.8182V55.2045C74.5838 54.7538 74.6785 54.339 74.8679 53.9602C75.0611 53.5814 75.3414 53.2765 75.7088 53.0455C76.0762 52.8144 76.5213 52.6989 77.044 52.6989C77.5819 52.6989 78.0327 52.8144 78.3963 53.0455C78.7599 53.2727 79.0346 53.5758 79.2202 53.9545C79.4096 54.3333 79.5043 54.75 79.5043 55.2045V55.8182C79.5043 56.2689 79.4096 56.6837 79.2202 57.0625C79.0308 57.4413 78.7524 57.7462 78.3849 57.9773C78.0213 58.2083 77.5743 58.3239 77.044 58.3239C76.5137 58.3239 76.0649 58.2083 75.6974 57.9773C75.33 57.7462 75.0516 57.4413 74.8622 57.0625C74.6766 56.6837 74.5838 56.2689 74.5838 55.8182ZM76.0668 55.2045V55.8182C76.0668 56.1174 76.1387 56.392 76.2827 56.642C76.4266 56.892 76.6804 57.017 77.044 57.017C77.4115 57.017 77.6634 56.8939 77.7997 56.6477C77.9399 56.3977 78.0099 56.1212 78.0099 55.8182V55.2045C78.0099 54.9015 77.9437 54.625 77.8111 54.375C77.6785 54.1212 77.4228 53.9943 77.044 53.9943C76.688 53.9943 76.4361 54.1212 76.2884 54.375C76.1406 54.625 76.0668 54.9015 76.0668 55.2045ZM68.669 49.1591V48.5455C68.669 48.0909 68.7656 47.6742 68.9588 47.2955C69.152 46.9167 69.4323 46.6136 69.7997 46.3864C70.1671 46.1553 70.6122 46.0398 71.1349 46.0398C71.669 46.0398 72.1179 46.1553 72.4815 46.3864C72.849 46.6136 73.1255 46.9167 73.3111 47.2955C73.4967 47.6742 73.5895 48.0909 73.5895 48.5455V49.1591C73.5895 49.6136 73.4948 50.0303 73.3054 50.4091C73.1198 50.7841 72.8433 51.0852 72.4759 51.3125C72.1084 51.5398 71.6615 51.6534 71.1349 51.6534C70.6009 51.6534 70.1501 51.5398 69.7827 51.3125C69.419 51.0852 69.1425 50.7822 68.9531 50.4034C68.7637 50.0246 68.669 49.6098 68.669 49.1591ZM70.1634 48.5455V49.1591C70.1634 49.4621 70.2334 49.7386 70.3736 49.9886C70.5175 50.2348 70.7713 50.358 71.1349 50.358C71.4986 50.358 71.7486 50.2348 71.8849 49.9886C72.0251 49.7386 72.0952 49.4621 72.0952 49.1591V48.5455C72.0952 48.2424 72.0289 47.9659 71.8963 47.7159C71.7637 47.4621 71.5099 47.3352 71.1349 47.3352C70.7751 47.3352 70.5232 47.4621 70.3793 47.7159C70.2353 47.9697 70.1634 48.2462 70.1634 48.5455ZM69.3168 58L77.3168 46.3636H78.7372L70.7372 58H69.3168Z" fill="#3F404D" fill-opacity="0.9"/>
</g>
<defs>
<linearGradient id="paint0_linear_5515_5168" x1="6.73562e-06" y1="16.5" x2="126" y2="16.5187" gradientUnits="userSpaceOnUse">
<stop stop-color="#76717F" stop-opacity="0"/>
<stop offset="0.245" stop-color="#3F404D" stop-opacity="0.5"/>
<stop offset="0.75" stop-color="#3F404D" stop-opacity="0.5"/>
<stop offset="1" stop-color="#76717F" stop-opacity="0"/>
</linearGradient>
<linearGradient id="paint1_linear_5515_5168" x1="6.73562e-06" y1="86.5" x2="126" y2="86.5187" gradientUnits="userSpaceOnUse">
<stop stop-color="#76717F" stop-opacity="0"/>
<stop offset="0.245" stop-color="#3F404D" stop-opacity="0.5"/>
<stop offset="0.75" stop-color="#3F404D" stop-opacity="0.5"/>
<stop offset="1" stop-color="#76717F" stop-opacity="0"/>
</linearGradient>
<linearGradient id="paint2_linear_5515_5168" x1="28.5" y1="5.61762e-06" x2="28.487" y2="105" gradientUnits="userSpaceOnUse">
<stop stop-color="#76717F" stop-opacity="0"/>
<stop offset="0.245" stop-color="#3F404D" stop-opacity="0.5"/>
<stop offset="0.75" stop-color="#3F404D" stop-opacity="0.5"/>
<stop offset="1" stop-color="#76717F" stop-opacity="0"/>
</linearGradient>
<linearGradient id="paint3_linear_5515_5168" x1="98.5" y1="5.61762e-06" x2="98.487" y2="105" gradientUnits="userSpaceOnUse">
<stop stop-color="#76717F" stop-opacity="0"/>
<stop offset="0.245" stop-color="#3F404D" stop-opacity="0.5"/>
<stop offset="0.75" stop-color="#3F404D" stop-opacity="0.5"/>
<stop offset="1" stop-color="#76717F" stop-opacity="0"/>
</linearGradient>
<clipPath id="clip0_5515_5168">
<rect width="126" height="105" fill="white"/>
</clipPath>
</defs>
</svg>
