<svg width="190" height="124" viewBox="0 0 190 124" fill="none" xmlns="http://www.w3.org/2000/svg">
<g clip-path="url(#clip0_5515_5696)">
<path d="M20 124L20 3.51667e-06" stroke="url(#paint0_linear_5515_5696)" stroke-opacity="0.4"/>
<path d="M168 124L168 3.51667e-06" stroke="url(#paint1_linear_5515_5696)" stroke-opacity="0.4"/>
<path d="M190 18L-1.99999 18" stroke="url(#paint2_linear_5515_5696)" stroke-opacity="0.4"/>
<path d="M190 104L-1.99999 104" stroke="url(#paint3_linear_5515_5696)" stroke-opacity="0.4"/>
<rect x="42" y="18" width="42" height="6" rx="3" fill="#76717F" fill-opacity="0.2"/>
<rect x="42" y="98" width="30" height="6" rx="3" fill="#76717F" fill-opacity="0.2"/>
<rect x="42" y="32" width="54" height="6" rx="3" fill="#76717F" fill-opacity="0.2"/>
<rect x="53" y="46" width="32" height="6" rx="3" fill="#76717F" fill-opacity="0.2"/>
<rect x="53" y="83" width="45" height="6" rx="3" fill="#76717F" fill-opacity="0.2"/>
<rect x="63" y="63" width="50" height="6" rx="3" fill="#76717F" fill-opacity="0.2"/>
<rect x="35" y="18" width="2" height="86" rx="1" fill="#76717F" fill-opacity="0.2"/>
<rect x="45" y="46" width="2" height="43" rx="1" fill="#76717F" fill-opacity="0.2"/>
<rect x="55" y="57" width="2" height="21" rx="1" fill="#76717F" fill-opacity="0.2"/>
</g>
<defs>
<linearGradient id="paint0_linear_5515_5696" x1="20.5" y1="6.6529e-06" x2="20.4819" y2="124" gradientUnits="userSpaceOnUse">
<stop stop-color="#76717F" stop-opacity="0"/>
<stop offset="0.245" stop-color="#3F404D" stop-opacity="0.5"/>
<stop offset="0.75" stop-color="#3F404D" stop-opacity="0.5"/>
<stop offset="1" stop-color="#76717F" stop-opacity="0"/>
</linearGradient>
<linearGradient id="paint1_linear_5515_5696" x1="168.5" y1="6.6529e-06" x2="168.482" y2="124" gradientUnits="userSpaceOnUse">
<stop stop-color="#76717F" stop-opacity="0"/>
<stop offset="0.245" stop-color="#3F404D" stop-opacity="0.5"/>
<stop offset="0.75" stop-color="#3F404D" stop-opacity="0.5"/>
<stop offset="1" stop-color="#76717F" stop-opacity="0"/>
</linearGradient>
<linearGradient id="paint2_linear_5515_5696" x1="-1.99999" y1="17.5" x2="190" y2="17.5435" gradientUnits="userSpaceOnUse">
<stop stop-color="#76717F" stop-opacity="0"/>
<stop offset="0.245" stop-color="#3F404D" stop-opacity="0.5"/>
<stop offset="0.75" stop-color="#3F404D" stop-opacity="0.5"/>
<stop offset="1" stop-color="#76717F" stop-opacity="0"/>
</linearGradient>
<linearGradient id="paint3_linear_5515_5696" x1="-1.99999" y1="103.5" x2="190" y2="103.543" gradientUnits="userSpaceOnUse">
<stop stop-color="#76717F" stop-opacity="0"/>
<stop offset="0.245" stop-color="#3F404D" stop-opacity="0.5"/>
<stop offset="0.75" stop-color="#3F404D" stop-opacity="0.5"/>
<stop offset="1" stop-color="#76717F" stop-opacity="0"/>
</linearGradient>
<clipPath id="clip0_5515_5696">
<rect width="190" height="124" fill="white"/>
</clipPath>
</defs>
</svg>
