<svg width="52" height="52" viewBox="0 0 52 52" fill="none" xmlns="http://www.w3.org/2000/svg">
<path fill-rule="evenodd" clip-rule="evenodd" d="M25.8013 11.6001H30.1159C32.2164 11.6001 33.9097 11.6 35.2414 11.7721C36.6239 11.9508 37.7879 12.333 38.7126 13.2216C39.6371 14.1103 40.0347 15.2291 40.2206 16.558C40.3996 17.8379 40.3996 19.4653 40.3996 21.4843V30.5043C40.3996 32.5233 40.3996 34.1507 40.2206 35.4307C40.0347 36.7595 39.6371 37.8783 38.7126 38.767C37.7879 39.6556 36.6239 40.0379 35.2414 40.2164C33.9097 40.3886 32.2164 40.3886 30.1159 40.3886H15.5176V21.4843C15.5175 19.4653 15.5175 17.8379 15.6966 16.558C15.8824 15.2291 16.2801 14.1103 17.2047 13.2216C18.1292 12.333 19.2933 11.9508 20.6759 11.7721C22.0075 11.6 23.7007 11.6001 25.8013 11.6001Z" fill="#794DFF" fill-opacity="0.2"/>
<path d="M13.9816 16.8037C14.5214 16.6702 15.1702 16.6675 15.6696 16.6924C15.5497 17.9537 15.5497 19.5429 15.5497 21.5003V40.3849C15.4538 40.3779 15.3648 40.3676 15.2794 40.3531C13.3803 40.026 11.8859 38.0716 11.6358 35.5878C11.5995 35.2268 11.5995 34.8159 11.5996 34.2127L11.5996 20.9668C11.5996 19.2093 12.3868 17.1983 13.9816 16.8037Z" fill="#794DFF"/>
<path fill-rule="evenodd" clip-rule="evenodd" d="M21.7452 18.0186C21.7602 18.0186 21.7751 18.0186 21.79 18.0186H24.8019C24.8168 18.0186 24.8317 18.0186 24.8467 18.0186C25.1139 18.0185 25.4028 18.0184 25.6466 18.0499C25.9323 18.0868 26.2972 18.1817 26.6042 18.4769C26.9114 18.7721 27.0101 19.1228 27.0485 19.3974C27.0813 19.6317 27.0812 19.9094 27.0812 20.1662C27.0812 20.1806 27.0812 20.195 27.0812 20.2093V21.9305C27.0812 21.9449 27.0812 21.9592 27.0812 21.9737C27.0812 22.2304 27.0813 22.5081 27.0485 22.7425C27.0101 23.017 26.9114 23.3677 26.6042 23.6629C26.2972 23.9581 25.9323 24.053 25.6466 24.09C25.4028 24.1215 25.1139 24.1214 24.8467 24.1213C24.8317 24.1213 24.8168 24.1213 24.8019 24.1213H21.79C21.7751 24.1213 21.7602 24.1213 21.7452 24.1213C21.478 24.1214 21.1891 24.1215 20.9453 24.09C20.6596 24.053 20.2947 23.9581 19.9876 23.6629C19.6805 23.3677 19.5817 23.017 19.5433 22.7425C19.5105 22.5081 19.5107 22.2304 19.5108 21.9737C19.5108 21.9592 19.5108 21.9449 19.5108 21.9305V20.2093C19.5108 20.195 19.5108 20.1806 19.5108 20.1662C19.5107 19.9094 19.5105 19.6317 19.5433 19.3974C19.5817 19.1228 19.6805 18.7721 19.9876 18.4769C20.2947 18.1817 20.6596 18.0868 20.9453 18.0499C21.1891 18.0184 21.478 18.0185 21.7452 18.0186Z" fill="#794DFF"/>
<path fill-rule="evenodd" clip-rule="evenodd" d="M31.0312 19.0643C31.0312 18.4528 31.5469 17.957 32.1833 17.957H35.2552C35.8914 17.957 36.4073 18.4528 36.4073 19.0643C36.4073 19.6758 35.8914 20.1715 35.2552 20.1715H32.1833C31.5469 20.1715 31.0312 19.6758 31.0312 19.0643Z" fill="#794DFF"/>
<path fill-rule="evenodd" clip-rule="evenodd" d="M31.0312 23.0418C31.0312 22.4303 31.5469 21.9346 32.1833 21.9346H35.2552C35.8914 21.9346 36.4073 22.4303 36.4073 23.0418C36.4073 23.6533 35.8914 24.1491 35.2552 24.1491H32.1833C31.5469 24.1491 31.0312 23.6533 31.0312 23.0418Z" fill="#794DFF"/>
<path fill-rule="evenodd" clip-rule="evenodd" d="M19.5107 28.947C19.5107 28.3355 20.0265 27.8398 20.6627 27.8398H35.2548C35.891 27.8398 36.4068 28.3355 36.4068 28.947C36.4068 29.5586 35.891 30.0542 35.2548 30.0542H20.6627C20.0265 30.0542 19.5107 29.5586 19.5107 28.947Z" fill="#794DFF"/>
<path fill-rule="evenodd" clip-rule="evenodd" d="M19.5107 33.3762C19.5107 32.7647 20.0265 32.269 20.6627 32.269H35.2548C35.891 32.269 36.4068 32.7647 36.4068 33.3762C36.4068 33.9878 35.891 34.4836 35.2548 34.4836H20.6627C20.0265 34.4836 19.5107 33.9878 19.5107 33.3762Z" fill="#794DFF"/>
</svg>
