<svg width="52" height="52" viewBox="0 0 52 52" fill="none" xmlns="http://www.w3.org/2000/svg">
<path d="M25.277 11.6769C25.7533 11.5745 26.2458 11.5745 26.7222 11.6769C27.7817 11.9049 28.4665 12.7408 29.0034 13.6236C29.5466 14.5169 30.1182 15.7732 30.8204 17.3165L30.854 17.3905C31.3278 18.4319 31.4406 18.6227 31.5806 18.7471C31.6351 18.7956 31.6942 18.8387 31.7567 18.876C31.9175 18.9717 32.1326 19.0206 33.2626 19.1526L33.5393 19.1849C35.1289 19.3704 36.4233 19.5215 37.3889 19.7491C38.3418 19.9737 39.3001 20.339 39.8535 21.2077C40.1743 21.7112 40.3609 22.2895 40.3953 22.8867C40.4546 23.9171 39.8927 24.7797 39.2529 25.5254C38.6046 26.2811 37.6455 27.1694 36.4678 28.2604L36.4114 28.3126C35.5318 29.1275 35.3786 29.3041 35.3046 29.4838C35.2674 29.5735 35.2418 29.6676 35.2281 29.7638C35.2006 29.9563 35.2425 30.187 35.5849 31.3403L35.6554 31.5779C36.2015 33.4177 36.6446 34.9095 36.8318 36.0607C37.0162 37.1945 37.0286 38.4012 36.2162 39.3081C36.011 39.5374 35.7762 39.7382 35.5183 39.9052C34.4982 40.5655 33.3175 40.3583 32.2361 39.9918C31.1383 39.6195 29.7478 38.938 28.0329 38.0979L27.5074 37.8404C26.4332 37.314 26.2183 37.2383 26.0186 37.2367L25.9918 37.2369C25.7921 37.2399 25.5778 37.3175 24.5077 37.8524L24.0348 38.0889C22.3028 38.955 20.899 39.6567 19.7908 40.0417C18.7002 40.4206 17.5071 40.6382 16.4761 39.9683C16.2319 39.8095 16.0085 39.6206 15.8112 39.4055C14.9785 38.4982 14.986 37.2772 15.169 36.1303C15.3549 34.9649 15.8 33.4518 16.3492 31.5847L16.4213 31.3395C16.7603 30.1868 16.8016 29.9564 16.7737 29.7641C16.7598 29.6686 16.7342 29.5751 16.6974 29.486C16.6233 29.3067 16.4704 29.1302 15.5918 28.3164L15.5355 28.2641C14.3559 27.1715 13.3955 26.2819 12.7464 25.5251C12.1057 24.7783 11.5434 23.9142 11.6041 22.8823C11.6391 22.2881 11.8247 21.7128 12.1433 21.2114C12.6965 20.3407 13.6559 19.9744 14.6101 19.7494C15.577 19.5214 16.8733 19.37 18.4654 19.1842L18.7365 19.1526C19.8666 19.0206 20.0816 18.9717 20.2424 18.876C20.305 18.8387 20.364 18.7956 20.4186 18.7471C20.5586 18.6227 20.6713 18.4319 21.1451 17.3905L21.1787 17.3167C21.8809 15.7733 22.4525 14.5169 22.9957 13.6236C23.5327 12.7408 24.2174 11.9049 25.277 11.6769Z" fill="#794DFF" fill-opacity="0.2"/>
</svg>
