<svg width="52" height="52" viewBox="0 0 52 52" fill="none" xmlns="http://www.w3.org/2000/svg">
<g clip-path="url(#clip0_9967_24906)">
<path d="M22.3113 10H29.6892C30.0026 9.99998 30.2906 9.99997 30.5324 10.0168C30.7924 10.0348 31.0781 10.0759 31.3684 10.1983C31.9957 10.4626 32.4941 10.9697 32.754 11.6079C32.8413 11.8225 32.8864 12.0346 32.9114 12.236C33.6495 12.2459 34.2229 12.2833 34.7343 12.4227C36.6272 12.9388 38.106 14.4433 38.6132 16.3694C38.8008 17.0818 38.8005 17.9125 38.8002 19.13V32.0352C38.8002 34.0706 38.8002 35.7114 38.6296 37.0016C38.4527 38.3414 38.074 39.4694 37.1935 40.3653C36.3128 41.2611 35.2042 41.6464 33.8876 41.8266C32.6192 42 31.0068 42 29.0061 42H22.9942C20.9937 42 19.3811 42 18.1129 41.8266C16.7962 41.6464 15.6875 41.2611 14.807 40.3653C13.9265 39.4694 13.5477 38.3414 13.3707 37.0016C13.2002 35.7114 13.2002 34.0706 13.2003 32.0352L13.2002 19.13C13.1998 17.9125 13.1996 17.0818 13.3872 16.3694C13.8944 14.4433 15.3731 12.9388 17.2661 12.4227C17.7775 12.2833 18.3509 12.2459 19.089 12.236C19.114 12.0346 19.1592 11.8225 19.2465 11.6079C19.5064 10.9697 20.0047 10.4626 20.632 10.1983C20.9224 10.0759 21.2081 10.0348 21.468 10.0168C21.7098 9.99997 21.9978 9.99998 22.3113 10Z" fill="#794DFF" fill-opacity="0.2"/>
<path fill-rule="evenodd" clip-rule="evenodd" d="M21.2752 12.4576C21.3122 12.3701 21.3808 12.3003 21.4669 12.2626C21.4776 12.2599 21.5192 12.2508 21.6169 12.244C21.7749 12.233 21.9868 12.2324 22.3426 12.2324H29.6569C30.0128 12.2324 30.2246 12.233 30.3827 12.244C30.4804 12.2508 30.5219 12.2599 30.5326 12.2626C30.6187 12.3003 30.6873 12.3701 30.7243 12.4576C30.727 12.4686 30.736 12.5109 30.7427 12.6103C30.7534 12.7711 30.7541 12.9867 30.7541 13.3487C30.7541 13.7107 30.7534 13.9263 30.7427 14.0871C30.736 14.1866 30.727 14.2288 30.7243 14.2398C30.6873 14.3274 30.6187 14.3971 30.5326 14.4348C30.5219 14.4375 30.4804 14.4466 30.3827 14.4534C30.2246 14.4644 30.0128 14.465 29.6569 14.465H22.3426C21.9868 14.465 21.7749 14.4644 21.6169 14.4534C21.5192 14.4466 21.4776 14.4375 21.4669 14.4348C21.3808 14.3971 21.3122 14.3274 21.2752 14.2398C21.2725 14.2288 21.2636 14.1866 21.2569 14.0871C21.2461 13.9263 21.2455 13.7107 21.2455 13.3487C21.2455 12.9867 21.2461 12.7711 21.2569 12.6103C21.2636 12.5109 21.2725 12.4686 21.2752 12.4576ZM19.7256 24.5218C19.7256 23.85 20.2604 23.3021 20.9242 23.3021H31.0753C31.7392 23.3021 32.2741 23.85 32.2741 24.5218C32.2741 25.1937 31.7392 25.7416 31.0753 25.7416H20.9242C20.2604 25.7416 19.7256 25.1937 19.7256 24.5218ZM19.7256 30.4339C19.7256 29.7621 20.2604 29.2142 20.9242 29.2142H31.0753C31.7392 29.2142 32.2741 29.7621 32.2741 30.4339C32.2741 31.1058 31.7392 31.6538 31.0753 31.6538H20.9242C20.2604 31.6538 19.7256 31.1058 19.7256 30.4339Z" fill="#794DFF"/>
</g>
<defs>
<clipPath id="clip0_9967_24906">
<rect width="32" height="32" fill="white" transform="translate(10 10)"/>
</clipPath>
</defs>
</svg>
