<svg width="52" height="52" viewBox="0 0 52 52" fill="none" xmlns="http://www.w3.org/2000/svg">
<path fill-rule="evenodd" clip-rule="evenodd" d="M36.781 29.6646C36.781 35.5916 31.9545 40.3966 26.0004 40.3966C20.0464 40.3966 15.2197 35.5916 15.2197 29.6646C15.2197 23.7375 20.0464 18.9326 26.0004 18.9326C31.9545 18.9326 36.781 23.7375 36.781 29.6646Z" fill="#794DFF" fill-opacity="0.2"/>
<path d="M27.9258 17.4353C30.6365 17.8546 33.0578 19.1453 34.8915 21.0108C34.9296 20.9537 34.9687 20.895 35.009 20.8344L39.4243 14.2027C40.1866 13.0579 40.5677 12.4855 40.3298 12.0442C40.0919 11.603 39.4019 11.603 38.0223 11.603H35.3261C33.5082 11.603 32.5992 11.603 31.8397 12.0209C31.0802 12.4387 30.5965 13.2048 29.6291 14.7371L27.9258 17.4353Z" fill="#794DFF"/>
<path d="M17.1268 20.992C18.9647 19.1302 21.3892 17.8443 24.1024 17.4309L21.4124 13.1701C20.7967 12.1949 19.7209 11.603 18.5639 11.603H12.4421C11.7714 11.603 11.3705 12.3463 11.741 12.9029L17.0218 20.8344C17.0577 20.8884 17.0927 20.9409 17.1268 20.992Z" fill="#794DFF"/>
<path d="M26.0004 25.0288C25.7816 25.0288 25.6489 25.323 25.3836 25.9115L25.2868 26.126C24.9037 26.9757 24.7121 27.4005 24.3529 27.6631C23.9937 27.9257 23.5291 27.9804 22.6 28.0898L22.3713 28.1169C21.748 28.1901 21.4364 28.2269 21.369 28.4306C21.3016 28.6345 21.5304 28.8482 21.9879 29.2759L22.0667 29.3495C22.8016 30.0364 23.1691 30.3799 23.2949 30.8375C23.4208 31.2951 23.2803 31.777 22.9993 32.7409L22.8798 33.1509C22.6939 33.7885 22.601 34.1073 22.7717 34.2482C22.9425 34.389 23.2399 34.2389 23.8347 33.9389L24.4876 33.6095C25.2299 33.2351 25.601 33.0479 26.0012 33.0463C26.4013 33.0447 26.7741 33.2289 27.5194 33.5973L28.1711 33.9196C28.7644 34.2129 29.061 34.3596 29.2305 34.2181C29.3999 34.0769 29.3068 33.7604 29.1207 33.1276L29.0081 32.7449C28.7239 31.7793 28.5818 31.2964 28.7074 30.8375C28.833 30.3786 29.2015 30.0343 29.9383 29.3455L30.0129 29.2759C30.4705 28.8482 30.6991 28.6345 30.6317 28.4306C30.5644 28.2269 30.2527 28.1901 29.6295 28.1169L29.4009 28.0898C28.4717 27.9804 28.0071 27.9257 27.6479 27.6631C27.2887 27.4005 27.0972 26.9757 26.714 26.126L26.6172 25.9115C26.3519 25.323 26.2193 25.0288 26.0004 25.0288Z" fill="#794DFF"/>
</svg>
