<svg width="51" height="57" viewBox="0 0 51 57" fill="none" xmlns="http://www.w3.org/2000/svg">
<g opacity="0.18">
<ellipse cx="2.1702" cy="2.50139" rx="2.1702" ry="2.50139" transform="matrix(0 -1 -1 0 50.0283 56.4263)" fill="#794DFF" fill-opacity="0.5"/>
<ellipse cx="2.1702" cy="2.50139" rx="2.1702" ry="2.50139" transform="matrix(0 -1 -1 0 50.0283 4.34033)" fill="#794DFF" fill-opacity="0.5"/>
<ellipse cx="2.1702" cy="2.50139" rx="2.1702" ry="2.50139" transform="matrix(0 -1 -1 0 42.5234 56.4263)" fill="#794DFF" fill-opacity="0.5"/>
<ellipse cx="2.1702" cy="2.50139" rx="2.1702" ry="2.50139" transform="matrix(0 -1 -1 0 42.5244 4.34033)" fill="#794DFF" fill-opacity="0.5"/>
<ellipse cx="2.1702" cy="2.50139" rx="2.1702" ry="2.50139" transform="matrix(0 -1 -1 0 35.0195 56.4263)" fill="#794DFF" fill-opacity="0.5"/>
<ellipse cx="2.1702" cy="2.50139" rx="2.1702" ry="2.50139" transform="matrix(0 -1 -1 0 35.0205 4.34033)" fill="#794DFF" fill-opacity="0.5"/>
<ellipse cx="2.1702" cy="2.50139" rx="2.1702" ry="2.50139" transform="matrix(0 -1 -1 0 27.5156 56.4263)" fill="#794DFF" fill-opacity="0.5"/>
<ellipse cx="2.1702" cy="2.50139" rx="2.1702" ry="2.50139" transform="matrix(0 -1 -1 0 27.5156 4.34033)" fill="#794DFF" fill-opacity="0.5"/>
<ellipse cx="2.1702" cy="2.50139" rx="2.1702" ry="2.50139" transform="matrix(0 -1 -1 0 20.0117 56.4263)" fill="#794DFF" fill-opacity="0.5"/>
<ellipse cx="2.1702" cy="2.50139" rx="2.1702" ry="2.50139" transform="matrix(0 -1 -1 0 20.0107 4.34033)" fill="#794DFF" fill-opacity="0.5"/>
<ellipse cx="2.1702" cy="2.50139" rx="2.1702" ry="2.50139" transform="matrix(0 -1 -1 0 12.5078 56.4263)" fill="#794DFF" fill-opacity="0.5"/>
<ellipse cx="2.1702" cy="2.50139" rx="2.1702" ry="2.50139" transform="matrix(0 -1 -1 0 12.5068 4.34033)" fill="#794DFF" fill-opacity="0.5"/>
<ellipse cx="2.1702" cy="2.50139" rx="2.1702" ry="2.50139" transform="matrix(0 -1 -1 0 5.00293 56.4263)" fill="#794DFF" fill-opacity="0.5"/>
<ellipse cx="2.1702" cy="2.50139" rx="2.1702" ry="2.50139" transform="matrix(0 -1 -1 0 5.00293 4.34033)" fill="#794DFF" fill-opacity="0.5"/>
<ellipse cx="2.1702" cy="2.50139" rx="2.1702" ry="2.50139" transform="matrix(0 -1 -1 0 50.0283 49.9146)" fill="#794DFF" fill-opacity="0.5"/>
<ellipse cx="2.1702" cy="2.50139" rx="2.1702" ry="2.50139" transform="matrix(0 -1 -1 0 42.5244 49.9146)" fill="#794DFF" fill-opacity="0.5"/>
<ellipse cx="2.1702" cy="2.50139" rx="2.1702" ry="2.50139" transform="matrix(0 -1 -1 0 35.0205 49.9146)" fill="#794DFF" fill-opacity="0.5"/>
<ellipse cx="2.1702" cy="2.50139" rx="2.1702" ry="2.50139" transform="matrix(0 -1 -1 0 27.5156 49.9146)" fill="#794DFF" fill-opacity="0.5"/>
<ellipse cx="2.1702" cy="2.50139" rx="2.1702" ry="2.50139" transform="matrix(0 -1 -1 0 20.0107 49.9146)" fill="#794DFF" fill-opacity="0.5"/>
<ellipse cx="2.1702" cy="2.50139" rx="2.1702" ry="2.50139" transform="matrix(0 -1 -1 0 12.5068 49.9146)" fill="#794DFF" fill-opacity="0.5"/>
<ellipse cx="2.1702" cy="2.50139" rx="2.1702" ry="2.50139" transform="matrix(0 -1 -1 0 5.00293 49.9146)" fill="#794DFF" fill-opacity="0.5"/>
<ellipse cx="2.1702" cy="2.50139" rx="2.1702" ry="2.50139" transform="matrix(0 -1 -1 0 50.0283 43.4067)" fill="#794DFF" fill-opacity="0.5"/>
<ellipse cx="2.1702" cy="2.50139" rx="2.1702" ry="2.50139" transform="matrix(0 -1 -1 0 42.5234 43.4067)" fill="#794DFF" fill-opacity="0.5"/>
<ellipse cx="2.1702" cy="2.50139" rx="2.1702" ry="2.50139" transform="matrix(0 -1 -1 0 35.0195 43.4067)" fill="#794DFF" fill-opacity="0.5"/>
<ellipse cx="2.1702" cy="2.50139" rx="2.1702" ry="2.50139" transform="matrix(0 -1 -1 0 27.5156 43.4067)" fill="#794DFF" fill-opacity="0.5"/>
<ellipse cx="2.1702" cy="2.50139" rx="2.1702" ry="2.50139" transform="matrix(0 -1 -1 0 20.0117 43.4067)" fill="#794DFF" fill-opacity="0.5"/>
<ellipse cx="2.1702" cy="2.50139" rx="2.1702" ry="2.50139" transform="matrix(0 -1 -1 0 12.5078 43.4067)" fill="#794DFF" fill-opacity="0.5"/>
<ellipse cx="2.1702" cy="2.50139" rx="2.1702" ry="2.50139" transform="matrix(0 -1 -1 0 5.00293 43.4067)" fill="#794DFF" fill-opacity="0.5"/>
<ellipse cx="2.1702" cy="2.50139" rx="2.1702" ry="2.50139" transform="matrix(0 -1 -1 0 50.0283 36.8911)" fill="#794DFF" fill-opacity="0.5"/>
<ellipse cx="2.1702" cy="2.50139" rx="2.1702" ry="2.50139" transform="matrix(0 -1 -1 0 42.5244 36.8911)" fill="#794DFF" fill-opacity="0.5"/>
<ellipse cx="2.1702" cy="2.50139" rx="2.1702" ry="2.50139" transform="matrix(0 -1 -1 0 35.0195 36.8911)" fill="#794DFF" fill-opacity="0.5"/>
<ellipse cx="2.1702" cy="2.50139" rx="2.1702" ry="2.50139" transform="matrix(0 -1 -1 0 27.5156 36.895)" fill="#794DFF" fill-opacity="0.5"/>
<ellipse cx="2.1702" cy="2.50139" rx="2.1702" ry="2.50139" transform="matrix(0 -1 -1 0 20.0117 36.895)" fill="#794DFF" fill-opacity="0.5"/>
<ellipse cx="2.1702" cy="2.50139" rx="2.1702" ry="2.50139" transform="matrix(0 -1 -1 0 12.5078 36.895)" fill="#794DFF" fill-opacity="0.5"/>
<ellipse cx="2.1702" cy="2.50139" rx="2.1702" ry="2.50139" transform="matrix(0 -1 -1 0 5.00293 36.8911)" fill="#794DFF" fill-opacity="0.5"/>
<ellipse cx="2.1702" cy="2.50139" rx="2.1702" ry="2.50139" transform="matrix(0 -1 -1 0 50.0283 30.3833)" fill="#794DFF" fill-opacity="0.5"/>
<ellipse cx="2.1702" cy="2.50139" rx="2.1702" ry="2.50139" transform="matrix(0 -1 -1 0 42.5234 30.3833)" fill="#794DFF" fill-opacity="0.5"/>
<ellipse cx="2.1702" cy="2.50139" rx="2.1702" ry="2.50139" transform="matrix(0 -1 -1 0 35.0195 30.3833)" fill="#794DFF" fill-opacity="0.5"/>
<ellipse cx="2.1702" cy="2.50139" rx="2.1702" ry="2.50139" transform="matrix(0 -1 -1 0 27.5156 30.3833)" fill="#794DFF" fill-opacity="0.5"/>
<ellipse cx="2.1702" cy="2.50139" rx="2.1702" ry="2.50139" transform="matrix(0 -1 -1 0 20.0117 30.3833)" fill="#794DFF" fill-opacity="0.5"/>
<ellipse cx="2.1702" cy="2.50139" rx="2.1702" ry="2.50139" transform="matrix(0 -1 -1 0 12.5068 30.3833)" fill="#794DFF" fill-opacity="0.5"/>
<ellipse cx="2.1702" cy="2.50139" rx="2.1702" ry="2.50139" transform="matrix(0 -1 -1 0 5.00293 30.3833)" fill="#794DFF" fill-opacity="0.5"/>
<ellipse cx="2.1702" cy="2.50139" rx="2.1702" ry="2.50139" transform="matrix(0 -1 -1 0 50.0283 23.8716)" fill="#794DFF" fill-opacity="0.5"/>
<ellipse cx="2.1702" cy="2.50139" rx="2.1702" ry="2.50139" transform="matrix(0 -1 -1 0 42.5244 23.8716)" fill="#794DFF" fill-opacity="0.5"/>
<ellipse cx="2.1702" cy="2.50139" rx="2.1702" ry="2.50139" transform="matrix(0 -1 -1 0 35.0195 23.8716)" fill="#794DFF" fill-opacity="0.5"/>
<ellipse cx="2.1702" cy="2.50139" rx="2.1702" ry="2.50139" transform="matrix(0 -1 -1 0 27.5156 23.8716)" fill="#794DFF" fill-opacity="0.5"/>
<ellipse cx="2.1702" cy="2.50139" rx="2.1702" ry="2.50139" transform="matrix(0 -1 -1 0 20.0117 23.8716)" fill="#794DFF" fill-opacity="0.5"/>
<ellipse cx="2.1702" cy="2.50139" rx="2.1702" ry="2.50139" transform="matrix(0 -1 -1 0 12.5078 23.8755)" fill="#794DFF" fill-opacity="0.5"/>
<ellipse cx="2.1702" cy="2.50139" rx="2.1702" ry="2.50139" transform="matrix(0 -1 -1 0 5.00293 23.8755)" fill="#794DFF" fill-opacity="0.5"/>
<ellipse cx="2.1702" cy="2.50139" rx="2.1702" ry="2.50139" transform="matrix(0 -1 -1 0 50.0283 17.3638)" fill="#794DFF" fill-opacity="0.5"/>
<ellipse cx="2.1702" cy="2.50139" rx="2.1702" ry="2.50139" transform="matrix(0 -1 -1 0 42.5234 17.3638)" fill="#794DFF" fill-opacity="0.5"/>
<ellipse cx="2.1702" cy="2.50139" rx="2.1702" ry="2.50139" transform="matrix(0 -1 -1 0 35.0195 17.3638)" fill="#794DFF" fill-opacity="0.5"/>
<ellipse cx="2.1702" cy="2.50139" rx="2.1702" ry="2.50139" transform="matrix(0 -1 -1 0 27.5156 17.3638)" fill="#794DFF" fill-opacity="0.5"/>
<ellipse cx="2.1702" cy="2.50139" rx="2.1702" ry="2.50139" transform="matrix(0 -1 -1 0 20.0107 17.3638)" fill="#794DFF" fill-opacity="0.5"/>
<ellipse cx="2.1702" cy="2.50139" rx="2.1702" ry="2.50139" transform="matrix(0 -1 -1 0 12.5068 17.3638)" fill="#794DFF" fill-opacity="0.5"/>
<ellipse cx="2.1702" cy="2.50139" rx="2.1702" ry="2.50139" transform="matrix(0 -1 -1 0 5.00293 17.3638)" fill="#794DFF" fill-opacity="0.5"/>
<ellipse cx="2.1702" cy="2.50139" rx="2.1702" ry="2.50139" transform="matrix(0 -1 -1 0 50.0283 10.8521)" fill="#794DFF" fill-opacity="0.5"/>
<ellipse cx="2.1702" cy="2.50139" rx="2.1702" ry="2.50139" transform="matrix(0 -1 -1 0 42.5234 10.8521)" fill="#794DFF" fill-opacity="0.5"/>
<ellipse cx="2.1702" cy="2.50139" rx="2.1702" ry="2.50139" transform="matrix(0 -1 -1 0 35.0195 10.8521)" fill="#794DFF" fill-opacity="0.5"/>
<ellipse cx="2.1702" cy="2.50139" rx="2.1702" ry="2.50139" transform="matrix(0 -1 -1 0 27.5156 10.8521)" fill="#794DFF" fill-opacity="0.5"/>
<ellipse cx="2.1702" cy="2.50139" rx="2.1702" ry="2.50139" transform="matrix(0 -1 -1 0 20.0117 10.8521)" fill="#794DFF" fill-opacity="0.5"/>
<ellipse cx="2.1702" cy="2.50139" rx="2.1702" ry="2.50139" transform="matrix(0 -1 -1 0 12.5068 10.8521)" fill="#794DFF" fill-opacity="0.5"/>
<ellipse cx="2.1702" cy="2.50139" rx="2.1702" ry="2.50139" transform="matrix(0 -1 -1 0 5.00293 10.8521)" fill="#794DFF" fill-opacity="0.5"/>
</g>
</svg>
