<svg width="230" height="150" viewBox="0 0 230 150" fill="none" xmlns="http://www.w3.org/2000/svg">
<g clip-path="url(#clip0_5593_183)">
<path d="M25 150L25 -8.10623e-06" stroke="url(#paint0_linear_5593_183)" stroke-opacity="0.4"/>
<path d="M205 150L205 -8.10623e-06" stroke="url(#paint1_linear_5593_183)" stroke-opacity="0.4"/>
<path d="M230 20L-4.11272e-06 20" stroke="url(#paint2_linear_5593_183)" stroke-opacity="0.4"/>
<path d="M230 130L-4.11272e-06 130" stroke="url(#paint3_linear_5593_183)" stroke-opacity="0.4"/>
<rect x="25" y="20" width="180" height="110" rx="4" fill="#76717F" fill-opacity="0.06"/>
<path d="M44.5327 71.0909V60.1818H45.2315V71.0909H44.5327ZM46.7188 63.5653C46.6733 63.1619 46.4858 62.8494 46.1562 62.6278C45.8267 62.4034 45.4119 62.2912 44.9119 62.2912C44.554 62.2912 44.2443 62.348 43.983 62.4616C43.7216 62.5724 43.5185 62.7259 43.3736 62.9219C43.2315 63.1151 43.1605 63.3352 43.1605 63.5824C43.1605 63.7898 43.2088 63.9687 43.3054 64.1193C43.4048 64.2699 43.5341 64.3963 43.6932 64.4986C43.8551 64.598 44.0284 64.6818 44.2131 64.75C44.3977 64.8153 44.5753 64.8693 44.7457 64.9119L45.598 65.1335C45.8764 65.2017 46.1619 65.294 46.4545 65.4105C46.7472 65.527 47.0185 65.6804 47.2685 65.8707C47.5185 66.0611 47.7202 66.2969 47.8736 66.5781C48.0298 66.8594 48.108 67.196 48.108 67.5881C48.108 68.0824 47.9801 68.5213 47.7244 68.9048C47.4716 69.2884 47.1037 69.5909 46.6207 69.8125C46.1406 70.0341 45.5597 70.1449 44.8778 70.1449C44.2244 70.1449 43.6591 70.0412 43.1818 69.8338C42.7045 69.6264 42.331 69.3324 42.0611 68.9517C41.7912 68.5682 41.642 68.1136 41.6136 67.5881H42.9347C42.9602 67.9034 43.0625 68.1662 43.2415 68.3764C43.4233 68.5838 43.6548 68.7386 43.9361 68.8409C44.2202 68.9403 44.5312 68.9901 44.8693 68.9901C45.2415 68.9901 45.5724 68.9318 45.8622 68.8153C46.1548 68.696 46.3849 68.5312 46.5526 68.321C46.7202 68.108 46.804 67.8594 46.804 67.5753C46.804 67.3168 46.7301 67.1051 46.5824 66.9403C46.4375 66.7756 46.2401 66.6392 45.9901 66.5312C45.7429 66.4233 45.4631 66.3281 45.1506 66.2457L44.1193 65.9645C43.4205 65.7741 42.8665 65.4943 42.4574 65.125C42.0511 64.7557 41.848 64.267 41.848 63.6591C41.848 63.1562 41.9844 62.7173 42.2571 62.3423C42.5298 61.9673 42.8991 61.6761 43.3651 61.4688C43.831 61.2585 44.3565 61.1534 44.9418 61.1534C45.5327 61.1534 46.054 61.2571 46.5057 61.4645C46.9602 61.6719 47.3182 61.9574 47.5795 62.321C47.8409 62.6818 47.9773 63.0966 47.9886 63.5653H46.7188ZM54.0291 66.1136V70H52.755V63.4545H53.978V64.5199H54.0589C54.2095 64.1733 54.4453 63.8949 54.7663 63.6847C55.0902 63.4744 55.4979 63.3693 55.9893 63.3693C56.4354 63.3693 56.826 63.4631 57.1612 63.6506C57.4964 63.8352 57.7564 64.1108 57.9411 64.4773C58.1257 64.8437 58.218 65.2969 58.218 65.8366V70H56.9439V65.9901C56.9439 65.5156 56.8203 65.1449 56.5732 64.8778C56.326 64.608 55.9865 64.473 55.5547 64.473C55.2592 64.473 54.9964 64.5369 54.7663 64.6648C54.5391 64.7926 54.3587 64.9801 54.2251 65.2273C54.0945 65.4716 54.0291 65.767 54.0291 66.1136ZM59.9268 72.4545V63.4545H61.1712V64.5156H61.2777C61.3516 64.3793 61.4581 64.2216 61.5973 64.0426C61.7365 63.8636 61.9297 63.7074 62.1768 63.5739C62.424 63.4375 62.7507 63.3693 63.157 63.3693C63.6854 63.3693 64.157 63.5028 64.5717 63.7699C64.9865 64.0369 65.3118 64.4219 65.5476 64.9247C65.7862 65.4276 65.9055 66.0327 65.9055 66.7401C65.9055 67.4474 65.7876 68.054 65.5518 68.5597C65.3161 69.0625 64.9922 69.4503 64.5803 69.723C64.1683 69.9929 63.6982 70.1278 63.1697 70.1278C62.772 70.1278 62.4467 70.0611 62.1939 69.9276C61.9439 69.794 61.7479 69.6378 61.6058 69.4588C61.4638 69.2798 61.3544 69.1207 61.2777 68.9815H61.201V72.4545H59.9268ZM61.1754 66.7273C61.1754 67.1875 61.2422 67.5909 61.3757 67.9375C61.5092 68.2841 61.7024 68.5554 61.9553 68.7514C62.2081 68.9446 62.5178 69.0412 62.8842 69.0412C63.2649 69.0412 63.5831 68.9403 63.8388 68.7386C64.0945 68.5341 64.2876 68.2571 64.4183 67.9077C64.5518 67.5582 64.6186 67.1648 64.6186 66.7273C64.6186 66.2955 64.5533 65.9077 64.4226 65.5639C64.2947 65.2202 64.1016 64.9489 63.843 64.75C63.5874 64.5511 63.2678 64.4517 62.8842 64.4517C62.5149 64.4517 62.2024 64.5469 61.9467 64.7372C61.6939 64.9276 61.5021 65.1932 61.3714 65.5341C61.2408 65.875 61.1754 66.2727 61.1754 66.7273ZM67.3331 70V63.4545H68.5561V64.5199H68.6371C68.7734 64.1591 68.9964 63.8778 69.3061 63.6761C69.6158 63.4716 69.9865 63.3693 70.4183 63.3693C70.8558 63.3693 71.2223 63.4716 71.5178 63.6761C71.8161 63.8807 72.0362 64.1619 72.1783 64.5199H72.2464C72.4027 64.1705 72.6513 63.892 72.9922 63.6847C73.3331 63.4744 73.7393 63.3693 74.2109 63.3693C74.8047 63.3693 75.2891 63.5554 75.6641 63.9276C76.0419 64.2997 76.2308 64.8608 76.2308 65.6108V70H74.9567V65.7301C74.9567 65.2869 74.8359 64.9659 74.5945 64.767C74.353 64.5682 74.0646 64.4688 73.7294 64.4688C73.3146 64.4688 72.9922 64.5966 72.7621 64.8523C72.532 65.1051 72.4169 65.4304 72.4169 65.8281V70H71.147V65.6491C71.147 65.294 71.0362 65.0085 70.8146 64.7926C70.593 64.5767 70.3047 64.4688 69.9496 64.4688C69.7081 64.4688 69.4851 64.5327 69.2805 64.6605C69.0788 64.7855 68.9155 64.9602 68.7905 65.1847C68.6683 65.4091 68.6072 65.669 68.6072 65.9645V70H67.3331ZM81.1143 70V63.4545H82.3885V70H81.1143ZM81.7578 62.4446C81.5362 62.4446 81.3459 62.3707 81.1868 62.223C81.0305 62.0724 80.9524 61.8935 80.9524 61.6861C80.9524 61.4759 81.0305 61.2969 81.1868 61.1491C81.3459 60.9986 81.5362 60.9233 81.7578 60.9233C81.9794 60.9233 82.1683 60.9986 82.3246 61.1491C82.4837 61.2969 82.5632 61.4759 82.5632 61.6861C82.5632 61.8935 82.4837 62.0724 82.3246 62.223C82.1683 62.3707 81.9794 62.4446 81.7578 62.4446ZM90.3935 63.4545V64.4773H86.6946V63.4545H90.3935ZM87.7088 70V62.696C87.7088 62.2869 87.7983 61.9474 87.9773 61.6776C88.1563 61.4048 88.3935 61.2017 88.6889 61.0682C88.9844 60.9318 89.3054 60.8636 89.652 60.8636C89.9077 60.8636 90.1264 60.8849 90.3082 60.9276C90.4901 60.9673 90.625 61.0043 90.7131 61.0384L90.4148 62.0696C90.3551 62.0526 90.2784 62.0327 90.1847 62.0099C90.0909 61.9844 89.9773 61.9716 89.8438 61.9716C89.5341 61.9716 89.3125 62.0483 89.179 62.2017C89.0483 62.3551 88.983 62.5767 88.983 62.8665V70H87.7088ZM92.9822 61.2727V70H91.7081V61.2727H92.9822ZM95.5018 72.4545C95.3114 72.4545 95.1381 72.4389 94.9819 72.4077C94.8256 72.3793 94.7092 72.348 94.6325 72.3139L94.9393 71.2699C95.1722 71.3324 95.3796 71.3594 95.5614 71.3509C95.7433 71.3423 95.9038 71.2741 96.043 71.1463C96.185 71.0185 96.31 70.8097 96.418 70.5199L96.5756 70.0852L94.1808 63.4545H95.5444L97.2021 68.5341H97.2702L98.9279 63.4545H100.296L97.5984 70.8736C97.4734 71.2145 97.3143 71.5028 97.1211 71.7386C96.9279 71.9773 96.6978 72.1563 96.4308 72.2756C96.1637 72.3949 95.854 72.4545 95.5018 72.4545ZM104.028 70.1321C103.414 70.1321 102.879 69.9915 102.421 69.7102C101.964 69.429 101.609 69.0355 101.356 68.5298C101.103 68.0241 100.977 67.4332 100.977 66.7571C100.977 66.0781 101.103 65.4844 101.356 64.9759C101.609 64.4673 101.964 64.0724 102.421 63.7912C102.879 63.5099 103.414 63.3693 104.028 63.3693C104.641 63.3693 105.177 63.5099 105.634 63.7912C106.092 64.0724 106.447 64.4673 106.7 64.9759C106.952 65.4844 107.079 66.0781 107.079 66.7571C107.079 67.4332 106.952 68.0241 106.7 68.5298C106.447 69.0355 106.092 69.429 105.634 69.7102C105.177 69.9915 104.641 70.1321 104.028 70.1321ZM104.032 69.0625C104.43 69.0625 104.759 68.9574 105.021 68.7472C105.282 68.5369 105.475 68.2571 105.6 67.9077C105.728 67.5582 105.792 67.1733 105.792 66.7528C105.792 66.3352 105.728 65.9517 105.6 65.6023C105.475 65.25 105.282 64.9673 105.021 64.7543C104.759 64.5412 104.43 64.4347 104.032 64.4347C103.631 64.4347 103.299 64.5412 103.035 64.7543C102.773 64.9673 102.579 65.25 102.451 65.6023C102.326 65.9517 102.263 66.3352 102.263 66.7528C102.263 67.1733 102.326 67.5582 102.451 67.9077C102.579 68.2571 102.773 68.5369 103.035 68.7472C103.299 68.9574 103.631 69.0625 104.032 69.0625ZM109.775 66.1136V70H108.501V63.4545H109.724V64.5199H109.805C109.956 64.1733 110.191 63.8949 110.512 63.6847C110.836 63.4744 111.244 63.3693 111.735 63.3693C112.181 63.3693 112.572 63.4631 112.907 63.6506C113.243 63.8352 113.502 64.1108 113.687 64.4773C113.872 64.8437 113.964 65.2969 113.964 65.8366V70H112.69V65.9901C112.69 65.5156 112.566 65.1449 112.319 64.8778C112.072 64.608 111.733 64.473 111.301 64.473C111.005 64.473 110.743 64.5369 110.512 64.6648C110.285 64.7926 110.105 64.9801 109.971 65.2273C109.841 65.4716 109.775 65.767 109.775 66.1136ZM121.387 61.2727H122.708V67.0128C122.708 67.6236 122.565 68.1648 122.278 68.6364C121.991 69.1051 121.588 69.4744 121.068 69.7443C120.548 70.0114 119.939 70.1449 119.24 70.1449C118.544 70.1449 117.936 70.0114 117.416 69.7443C116.896 69.4744 116.493 69.1051 116.206 68.6364C115.919 68.1648 115.775 67.6236 115.775 67.0128V61.2727H117.092V66.9062C117.092 67.3011 117.179 67.652 117.352 67.9588C117.528 68.2656 117.777 68.5071 118.098 68.6832C118.419 68.8565 118.799 68.9432 119.24 68.9432C119.683 68.9432 120.065 68.8565 120.386 68.6832C120.71 68.5071 120.957 68.2656 121.127 67.9588C121.301 67.652 121.387 67.3011 121.387 66.9062V61.2727ZM125.94 61.2727V70H124.623V61.2727H125.94Z" fill="#794DFF"/>
<circle cx="45" cy="38" r="4" fill="#794DFF"/>
<circle opacity="0.4" cx="57" cy="38" r="4" fill="#794DFF"/>
<circle opacity="0.4" cx="69" cy="38" r="4" fill="#794DFF"/>
</g>
<defs>
<linearGradient id="paint0_linear_5593_183" x1="25.5" y1="8.04235e-06" x2="25.4735" y2="150" gradientUnits="userSpaceOnUse">
<stop stop-color="#76717F" stop-opacity="0"/>
<stop offset="0.245" stop-color="#3F404D" stop-opacity="0.5"/>
<stop offset="0.75" stop-color="#3F404D" stop-opacity="0.5"/>
<stop offset="1" stop-color="#76717F" stop-opacity="0"/>
</linearGradient>
<linearGradient id="paint1_linear_5593_183" x1="205.5" y1="8.04235e-06" x2="205.473" y2="150" gradientUnits="userSpaceOnUse">
<stop stop-color="#76717F" stop-opacity="0"/>
<stop offset="0.245" stop-color="#3F404D" stop-opacity="0.5"/>
<stop offset="0.75" stop-color="#3F404D" stop-opacity="0.5"/>
<stop offset="1" stop-color="#76717F" stop-opacity="0"/>
</linearGradient>
<linearGradient id="paint2_linear_5593_183" x1="1.22952e-05" y1="19.5" x2="230" y2="19.5624" gradientUnits="userSpaceOnUse">
<stop stop-color="#76717F" stop-opacity="0"/>
<stop offset="0.245" stop-color="#3F404D" stop-opacity="0.5"/>
<stop offset="0.75" stop-color="#3F404D" stop-opacity="0.5"/>
<stop offset="1" stop-color="#76717F" stop-opacity="0"/>
</linearGradient>
<linearGradient id="paint3_linear_5593_183" x1="1.22952e-05" y1="129.5" x2="230" y2="129.562" gradientUnits="userSpaceOnUse">
<stop stop-color="#76717F" stop-opacity="0"/>
<stop offset="0.245" stop-color="#3F404D" stop-opacity="0.5"/>
<stop offset="0.75" stop-color="#3F404D" stop-opacity="0.5"/>
<stop offset="1" stop-color="#76717F" stop-opacity="0"/>
</linearGradient>
<clipPath id="clip0_5593_183">
<rect width="230" height="150" fill="white"/>
</clipPath>
</defs>
</svg>
