<svg width="93" height="121" viewBox="0 0 93 121" fill="none" xmlns="http://www.w3.org/2000/svg">
<g clip-path="url(#clip0_5593_211)">
<path d="M12.6133 120.969L12.6133 0.0317719" stroke="url(#paint0_linear_5593_211)" stroke-opacity="0.4"/>
<path d="M80.3867 120.969L80.3867 0.0317719" stroke="url(#paint1_linear_5593_211)" stroke-opacity="0.4"/>
<path d="M93 11L-1.81794e-06 11" stroke="url(#paint2_linear_5593_211)" stroke-opacity="0.4"/>
<path d="M93 110L-1.81794e-06 110" stroke="url(#paint3_linear_5593_211)" stroke-opacity="0.4"/>
<rect x="12.4565" y="11.2712" width="68.087" height="98.4575" rx="8" fill="#76717F" fill-opacity="0.06"/>
<path d="M39.9588 64V55.2727H41.2756V59.0653H45.6264V55.2727H46.9474V64H45.6264V60.1946H41.2756V64H39.9588ZM48.7628 64V57.4545H50.0369V64H48.7628ZM49.4062 56.4446C49.1847 56.4446 48.9943 56.3707 48.8352 56.223C48.679 56.0724 48.6009 55.8935 48.6009 55.6861C48.6009 55.4759 48.679 55.2969 48.8352 55.1491C48.9943 54.9986 49.1847 54.9233 49.4062 54.9233C49.6278 54.9233 49.8168 54.9986 49.973 55.1491C50.1321 55.2969 50.2116 55.4759 50.2116 55.6861C50.2116 55.8935 50.1321 56.0724 49.973 56.223C49.8168 56.3707 49.6278 56.4446 49.4062 56.4446ZM52.5906 64.081C52.3576 64.081 52.1573 63.9986 51.9897 63.8338C51.8221 63.6662 51.7383 63.4645 51.7383 63.2287C51.7383 62.9957 51.8221 62.7969 51.9897 62.6321C52.1573 62.4645 52.3576 62.3807 52.5906 62.3807C52.8235 62.3807 53.0238 62.4645 53.1914 62.6321C53.359 62.7969 53.4428 62.9957 53.4428 63.2287C53.4428 63.3849 53.4031 63.5284 53.3235 63.6591C53.2468 63.7869 53.1445 63.8892 53.0167 63.9659C52.8888 64.0426 52.7468 64.081 52.5906 64.081Z" fill="#794DFF"/>
<rect x="33.74" y="17.6804" width="24.9945" height="5.12444" rx="2.56222" fill="#794DFF"/>
</g>
<defs>
<linearGradient id="paint0_linear_5593_211" x1="13.1133" y1="0.0317753" x2="13.096" y2="120.969" gradientUnits="userSpaceOnUse">
<stop stop-color="#76717F" stop-opacity="0"/>
<stop offset="0.245" stop-color="#3F404D" stop-opacity="0.5"/>
<stop offset="0.75" stop-color="#3F404D" stop-opacity="0.5"/>
<stop offset="1" stop-color="#76717F" stop-opacity="0"/>
</linearGradient>
<linearGradient id="paint1_linear_5593_211" x1="80.8867" y1="0.0317753" x2="80.8695" y2="120.969" gradientUnits="userSpaceOnUse">
<stop stop-color="#76717F" stop-opacity="0"/>
<stop offset="0.245" stop-color="#3F404D" stop-opacity="0.5"/>
<stop offset="0.75" stop-color="#3F404D" stop-opacity="0.5"/>
<stop offset="1" stop-color="#76717F" stop-opacity="0"/>
</linearGradient>
<linearGradient id="paint2_linear_5593_211" x1="4.97153e-06" y1="10.5" x2="93.0001" y2="10.5102" gradientUnits="userSpaceOnUse">
<stop stop-color="#76717F" stop-opacity="0"/>
<stop offset="0.245" stop-color="#3F404D" stop-opacity="0.5"/>
<stop offset="0.75" stop-color="#3F404D" stop-opacity="0.5"/>
<stop offset="1" stop-color="#76717F" stop-opacity="0"/>
</linearGradient>
<linearGradient id="paint3_linear_5593_211" x1="4.97153e-06" y1="109.5" x2="93.0001" y2="109.51" gradientUnits="userSpaceOnUse">
<stop stop-color="#76717F" stop-opacity="0"/>
<stop offset="0.245" stop-color="#3F404D" stop-opacity="0.5"/>
<stop offset="0.75" stop-color="#3F404D" stop-opacity="0.5"/>
<stop offset="1" stop-color="#76717F" stop-opacity="0"/>
</linearGradient>
<clipPath id="clip0_5593_211">
<rect width="93" height="121" fill="white"/>
</clipPath>
</defs>
</svg>
