<svg width="230" height="150" viewBox="0 0 230 150" fill="none" xmlns="http://www.w3.org/2000/svg">
<g clip-path="url(#clip0_5593_238)">
<path d="M25 150L25 -8.10623e-06" stroke="url(#paint0_linear_5593_238)" stroke-opacity="0.4"/>
<path d="M205 150L205 -8.10623e-06" stroke="url(#paint1_linear_5593_238)" stroke-opacity="0.4"/>
<path d="M230 20L-4.11272e-06 20" stroke="url(#paint2_linear_5593_238)" stroke-opacity="0.4"/>
<path d="M230 130L-4.11272e-06 130" stroke="url(#paint3_linear_5593_238)" stroke-opacity="0.4"/>
<rect x="25" y="20" width="180" height="110" rx="4" fill="#76717F" fill-opacity="0.06"/>
<path d="M62.1307 75.1136V79H60.8565V70.2727H62.1136V73.5199H62.1946C62.348 73.1676 62.5824 72.8878 62.8977 72.6804C63.2131 72.473 63.625 72.3693 64.1335 72.3693C64.5824 72.3693 64.9744 72.4616 65.3097 72.6463C65.6477 72.831 65.9091 73.1065 66.0938 73.473C66.2812 73.8366 66.375 74.2912 66.375 74.8366V79H65.1009V74.9901C65.1009 74.5099 64.9773 74.1378 64.7301 73.8736C64.483 73.6065 64.1392 73.473 63.6989 73.473C63.3977 73.473 63.1278 73.5369 62.8892 73.6648C62.6534 73.7926 62.4673 73.9801 62.331 74.2273C62.1974 74.4716 62.1307 74.767 62.1307 75.1136ZM71.1307 72.4545V73.4773H67.5554V72.4545H71.1307ZM68.5142 70.8864H69.7884V77.0781C69.7884 77.3253 69.8253 77.5114 69.8991 77.6364C69.973 77.7585 70.0682 77.8423 70.1847 77.8878C70.304 77.9304 70.4332 77.9517 70.5724 77.9517C70.6747 77.9517 70.7642 77.9446 70.8409 77.9304C70.9176 77.9162 70.9773 77.9048 71.0199 77.8963L71.25 78.9489C71.1761 78.9773 71.071 79.0057 70.9347 79.0341C70.7983 79.0653 70.6278 79.0824 70.4233 79.0852C70.0881 79.0909 69.7756 79.0312 69.4858 78.9062C69.196 78.7812 68.9616 78.5881 68.7827 78.3267C68.6037 78.0653 68.5142 77.7372 68.5142 77.3423V70.8864ZM75.5955 72.4545V73.4773H72.0202V72.4545H75.5955ZM72.979 70.8864H74.2532V77.0781C74.2532 77.3253 74.2901 77.5114 74.364 77.6364C74.4379 77.7585 74.533 77.8423 74.6495 77.8878C74.7688 77.9304 74.8981 77.9517 75.0373 77.9517C75.1396 77.9517 75.229 77.9446 75.3058 77.9304C75.3825 77.9162 75.4421 77.9048 75.4847 77.8963L75.7148 78.9489C75.641 78.9773 75.5359 79.0057 75.3995 79.0341C75.2631 79.0653 75.0927 79.0824 74.8881 79.0852C74.5529 79.0909 74.2404 79.0312 73.9506 78.9062C73.6609 78.7812 73.4265 78.5881 73.2475 78.3267C73.0685 78.0653 72.979 77.7372 72.979 77.3423V70.8864ZM77.005 81.4545V72.4545H78.2493V73.5156H78.3558C78.4297 73.3793 78.5362 73.2216 78.6754 73.0426C78.8146 72.8636 79.0078 72.7074 79.255 72.5739C79.5021 72.4375 79.8288 72.3693 80.2351 72.3693C80.7635 72.3693 81.2351 72.5028 81.6499 72.7699C82.0646 73.0369 82.3899 73.4219 82.6257 73.9247C82.8643 74.4276 82.9837 75.0327 82.9837 75.7401C82.9837 76.4474 82.8658 77.054 82.63 77.5597C82.3942 78.0625 82.0703 78.4503 81.6584 78.723C81.2464 78.9929 80.7763 79.1278 80.2479 79.1278C79.8501 79.1278 79.5249 79.0611 79.272 78.9276C79.022 78.794 78.826 78.6378 78.6839 78.4588C78.5419 78.2798 78.4325 78.1207 78.3558 77.9815H78.2791V81.4545H77.005ZM78.2536 75.7273C78.2536 76.1875 78.3203 76.5909 78.4538 76.9375C78.5874 77.2841 78.7805 77.5554 79.0334 77.7514C79.2862 77.9446 79.5959 78.0412 79.9624 78.0412C80.343 78.0412 80.6612 77.9403 80.9169 77.7386C81.1726 77.5341 81.3658 77.2571 81.4964 76.9077C81.63 76.5582 81.6967 76.1648 81.6967 75.7273C81.6967 75.2955 81.6314 74.9077 81.5007 74.5639C81.3729 74.2202 81.1797 73.9489 80.9212 73.75C80.6655 73.5511 80.3459 73.4517 79.9624 73.4517C79.593 73.4517 79.2805 73.5469 79.0249 73.7372C78.772 73.9276 78.5803 74.1932 78.4496 74.5341C78.3189 74.875 78.2536 75.2727 78.2536 75.7273ZM89.3161 74.0526L88.1612 74.2571C88.1129 74.1094 88.0362 73.9687 87.9311 73.8352C87.8288 73.7017 87.6896 73.5923 87.5135 73.5071C87.3374 73.4219 87.1172 73.3793 86.853 73.3793C86.4922 73.3793 86.1911 73.4602 85.9496 73.6222C85.7081 73.7812 85.5874 73.9872 85.5874 74.2401C85.5874 74.4588 85.6683 74.6349 85.8303 74.7685C85.9922 74.902 86.2536 75.0114 86.6143 75.0966L87.6541 75.3352C88.2564 75.4744 88.7053 75.6889 89.0007 75.9787C89.2962 76.2685 89.4439 76.6449 89.4439 77.108C89.4439 77.5 89.3303 77.8494 89.103 78.1562C88.8786 78.4602 88.5646 78.6989 88.1612 78.8722C87.7607 79.0455 87.2962 79.1321 86.7678 79.1321C86.0348 79.1321 85.4368 78.9759 84.9737 78.6634C84.5107 78.348 84.2266 77.9006 84.1214 77.321L85.353 77.1335C85.4297 77.4545 85.5874 77.6974 85.826 77.8622C86.0646 78.0241 86.3757 78.1051 86.7592 78.1051C87.1768 78.1051 87.5107 78.0185 87.7607 77.8452C88.0107 77.669 88.1357 77.4545 88.1357 77.2017C88.1357 76.9972 88.0589 76.8253 87.9055 76.6861C87.755 76.5469 87.5234 76.4418 87.2109 76.3707L86.103 76.1278C85.4922 75.9886 85.0405 75.767 84.7479 75.4631C84.4581 75.1591 84.3132 74.7741 84.3132 74.3082C84.3132 73.9219 84.4212 73.5838 84.6371 73.294C84.853 73.0043 85.1513 72.7784 85.532 72.6165C85.9126 72.4517 86.3487 72.3693 86.8402 72.3693C87.5476 72.3693 88.1044 72.5227 88.5107 72.8295C88.9169 73.1335 89.1854 73.5412 89.3161 74.0526ZM91.6843 79.081C91.4513 79.081 91.2511 78.9986 91.0835 78.8338C90.9158 78.6662 90.832 78.4645 90.832 78.2287C90.832 77.9957 90.9158 77.7969 91.0835 77.6321C91.2511 77.4645 91.4513 77.3807 91.6843 77.3807C91.9173 77.3807 92.1175 77.4645 92.2852 77.6321C92.4528 77.7969 92.5366 77.9957 92.5366 78.2287C92.5366 78.3849 92.4968 78.5284 92.4173 78.6591C92.3406 78.7869 92.2383 78.8892 92.1104 78.9659C91.9826 79.0426 91.8406 79.081 91.6843 79.081ZM91.6843 74.3168C91.4513 74.3168 91.2511 74.233 91.0835 74.0653C90.9158 73.8977 90.832 73.6974 90.832 73.4645C90.832 73.2315 90.9158 73.0327 91.0835 72.8679C91.2511 72.7003 91.4513 72.6165 91.6843 72.6165C91.9173 72.6165 92.1175 72.7003 92.2852 72.8679C92.4528 73.0327 92.5366 73.2315 92.5366 73.4645C92.5366 73.6207 92.4968 73.7642 92.4173 73.8949C92.3406 74.0227 92.2383 74.125 92.1104 74.2017C91.9826 74.2784 91.8406 74.3168 91.6843 74.3168ZM97.5671 69.8636L94.7546 80.3125H93.6168L96.4293 69.8636H97.5671ZM101.973 69.8636L99.1609 80.3125H98.0231L100.836 69.8636H101.973ZM106.171 72.4545V73.4773H102.472V72.4545H106.171ZM103.486 79V71.696C103.486 71.2869 103.576 70.9474 103.755 70.6776C103.934 70.4048 104.171 70.2017 104.466 70.0682C104.762 69.9318 105.083 69.8636 105.429 69.8636C105.685 69.8636 105.904 69.8849 106.086 69.9276C106.267 69.9673 106.402 70.0043 106.49 70.0384L106.192 71.0696C106.132 71.0526 106.056 71.0327 105.962 71.0099C105.868 70.9844 105.755 70.9716 105.621 70.9716C105.311 70.9716 105.09 71.0483 104.956 71.2017C104.826 71.3551 104.76 71.5767 104.76 71.8665V79H103.486ZM108.76 70.2727V79H107.485V70.2727H108.76ZM111.279 81.4545C111.089 81.4545 110.915 81.4389 110.759 81.4077C110.603 81.3793 110.487 81.348 110.41 81.3139L110.717 80.2699C110.95 80.3324 111.157 80.3594 111.339 80.3509C111.521 80.3423 111.681 80.2741 111.82 80.1463C111.962 80.0185 112.087 79.8097 112.195 79.5199L112.353 79.0852L109.958 72.4545H111.322L112.979 77.5341H113.048L114.705 72.4545H116.073L113.376 79.8736C113.251 80.2145 113.092 80.5028 112.898 80.7386C112.705 80.9773 112.475 81.1563 112.208 81.2756C111.941 81.3949 111.631 81.4545 111.279 81.4545ZM119.805 79.1321C119.191 79.1321 118.656 78.9915 118.199 78.7102C117.741 78.429 117.386 78.0355 117.133 77.5298C116.88 77.0241 116.754 76.4332 116.754 75.7571C116.754 75.0781 116.88 74.4844 117.133 73.9759C117.386 73.4673 117.741 73.0724 118.199 72.7912C118.656 72.5099 119.191 72.3693 119.805 72.3693C120.419 72.3693 120.954 72.5099 121.412 72.7912C121.869 73.0724 122.224 73.4673 122.477 73.9759C122.73 74.4844 122.856 75.0781 122.856 75.7571C122.856 76.4332 122.73 77.0241 122.477 77.5298C122.224 78.0355 121.869 78.429 121.412 78.7102C120.954 78.9915 120.419 79.1321 119.805 79.1321ZM119.809 78.0625C120.207 78.0625 120.537 77.9574 120.798 77.7472C121.059 77.5369 121.252 77.2571 121.377 76.9077C121.505 76.5582 121.569 76.1733 121.569 75.7528C121.569 75.3352 121.505 74.9517 121.377 74.6023C121.252 74.25 121.059 73.9673 120.798 73.7543C120.537 73.5412 120.207 73.4347 119.809 73.4347C119.409 73.4347 119.076 73.5412 118.812 73.7543C118.551 73.9673 118.356 74.25 118.228 74.6023C118.103 74.9517 118.041 75.3352 118.041 75.7528C118.041 76.1733 118.103 76.5582 118.228 76.9077C118.356 77.2571 118.551 77.5369 118.812 77.7472C119.076 77.9574 119.409 78.0625 119.809 78.0625ZM125.553 75.1136V79H124.278V72.4545H125.501V73.5199H125.582C125.733 73.1733 125.969 72.8949 126.29 72.6847C126.614 72.4744 127.021 72.3693 127.513 72.3693C127.959 72.3693 128.349 72.4631 128.685 72.6506C129.02 72.8352 129.28 73.1108 129.464 73.4773C129.649 73.8437 129.741 74.2969 129.741 74.8366V79H128.467V74.9901C128.467 74.5156 128.344 74.1449 128.097 73.8778C127.849 73.608 127.51 73.473 127.078 73.473C126.783 73.473 126.52 73.5369 126.29 73.6648C126.063 73.7926 125.882 73.9801 125.749 74.2273C125.618 74.4716 125.553 74.767 125.553 75.1136ZM135.597 76.2855V72.4545H136.875V79H135.622V77.8665H135.554C135.403 78.2159 135.162 78.5071 134.83 78.7401C134.5 78.9702 134.089 79.0852 133.598 79.0852C133.178 79.0852 132.805 78.9929 132.482 78.8082C132.161 78.6207 131.908 78.3438 131.723 77.9773C131.541 77.6108 131.45 77.1577 131.45 76.6179V72.4545H132.724V76.4645C132.724 76.9105 132.848 77.2656 133.095 77.5298C133.342 77.794 133.663 77.9261 134.058 77.9261C134.297 77.9261 134.534 77.8665 134.77 77.7472C135.009 77.6278 135.206 77.4474 135.362 77.206C135.521 76.9645 135.599 76.6577 135.597 76.2855ZM138.587 79V72.4545H139.861V79H138.587ZM139.23 71.4446C139.009 71.4446 138.819 71.3707 138.659 71.223C138.503 71.0724 138.425 70.8935 138.425 70.6861C138.425 70.4759 138.503 70.2969 138.659 70.1491C138.819 69.9986 139.009 69.9233 139.23 69.9233C139.452 69.9233 139.641 69.9986 139.797 70.1491C139.956 70.2969 140.036 70.4759 140.036 70.6861C140.036 70.8935 139.956 71.0724 139.797 71.223C139.641 71.3707 139.452 71.4446 139.23 71.4446ZM142.415 79.081C142.182 79.081 141.982 78.9986 141.814 78.8338C141.646 78.6662 141.562 78.4645 141.562 78.2287C141.562 77.9957 141.646 77.7969 141.814 77.6321C141.982 77.4645 142.182 77.3807 142.415 77.3807C142.648 77.3807 142.848 77.4645 143.016 77.6321C143.183 77.7969 143.267 77.9957 143.267 78.2287C143.267 78.3849 143.227 78.5284 143.148 78.6591C143.071 78.7869 142.969 78.8892 142.841 78.9659C142.713 79.0426 142.571 79.081 142.415 79.081ZM147.731 79.1321C147.097 79.1321 146.552 78.9886 146.094 78.7017C145.64 78.4119 145.29 78.0128 145.046 77.5043C144.802 76.9957 144.68 76.4134 144.68 75.7571C144.68 75.0923 144.805 74.5057 145.055 73.9972C145.305 73.4858 145.657 73.0866 146.112 72.7997C146.566 72.5128 147.102 72.3693 147.718 72.3693C148.215 72.3693 148.658 72.4616 149.048 72.6463C149.437 72.8281 149.751 73.0838 149.989 73.4134C150.231 73.7429 150.374 74.1278 150.42 74.5682H149.18C149.112 74.2614 148.955 73.9972 148.711 73.7756C148.469 73.554 148.146 73.4432 147.739 73.4432C147.384 73.4432 147.073 73.5369 146.806 73.7244C146.542 73.9091 146.336 74.1733 146.188 74.517C146.04 74.858 145.967 75.2614 145.967 75.7273C145.967 76.2045 146.039 76.6165 146.184 76.9631C146.329 77.3097 146.533 77.5781 146.798 77.7685C147.065 77.9588 147.379 78.054 147.739 78.054C147.981 78.054 148.2 78.0099 148.396 77.9219C148.594 77.831 148.761 77.7017 148.894 77.5341C149.031 77.3665 149.126 77.1648 149.18 76.929H150.42C150.374 77.3523 150.237 77.7301 150.006 78.0625C149.776 78.3949 149.468 78.6562 149.082 78.8466C148.698 79.0369 148.248 79.1321 147.731 79.1321ZM154.539 79.1321C153.926 79.1321 153.39 78.9915 152.933 78.7102C152.475 78.429 152.12 78.0355 151.868 77.5298C151.615 77.0241 151.488 76.4332 151.488 75.7571C151.488 75.0781 151.615 74.4844 151.868 73.9759C152.12 73.4673 152.475 73.0724 152.933 72.7912C153.39 72.5099 153.926 72.3693 154.539 72.3693C155.153 72.3693 155.689 72.5099 156.146 72.7912C156.603 73.0724 156.958 73.4673 157.211 73.9759C157.464 74.4844 157.591 75.0781 157.591 75.7571C157.591 76.4332 157.464 77.0241 157.211 77.5298C156.958 78.0355 156.603 78.429 156.146 78.7102C155.689 78.9915 155.153 79.1321 154.539 79.1321ZM154.544 78.0625C154.941 78.0625 155.271 77.9574 155.532 77.7472C155.794 77.5369 155.987 77.2571 156.112 76.9077C156.24 76.5582 156.304 76.1733 156.304 75.7528C156.304 75.3352 156.24 74.9517 156.112 74.6023C155.987 74.25 155.794 73.9673 155.532 73.7543C155.271 73.5412 154.941 73.4347 154.544 73.4347C154.143 73.4347 153.811 73.5412 153.547 73.7543C153.285 73.9673 153.091 74.25 152.963 74.6023C152.838 74.9517 152.775 75.3352 152.775 75.7528C152.775 76.1733 152.838 76.5582 152.963 76.9077C153.091 77.2571 153.285 77.5369 153.547 77.7472C153.811 77.9574 154.143 78.0625 154.544 78.0625ZM159.013 79V72.4545H160.236V73.5199H160.317C160.453 73.1591 160.676 72.8778 160.986 72.6761C161.295 72.4716 161.666 72.3693 162.098 72.3693C162.536 72.3693 162.902 72.4716 163.197 72.6761C163.496 72.8807 163.716 73.1619 163.858 73.5199H163.926C164.082 73.1705 164.331 72.892 164.672 72.6847C165.013 72.4744 165.419 72.3693 165.891 72.3693C166.484 72.3693 166.969 72.5554 167.344 72.9276C167.722 73.2997 167.911 73.8608 167.911 74.6108V79H166.636V74.7301C166.636 74.2869 166.516 73.9659 166.274 73.767C166.033 73.5682 165.744 73.4688 165.409 73.4688C164.994 73.4688 164.672 73.5966 164.442 73.8523C164.212 74.1051 164.097 74.4304 164.097 74.8281V79H162.827V74.6491C162.827 74.294 162.716 74.0085 162.494 73.7926C162.273 73.5767 161.984 73.4688 161.629 73.4688C161.388 73.4688 161.165 73.5327 160.96 73.6605C160.759 73.7855 160.595 73.9602 160.47 74.1847C160.348 74.4091 160.287 74.669 160.287 74.9645V79H159.013Z" fill="#794DFF"/>
<circle cx="38" cy="31" r="4" fill="#794DFF"/>
<circle opacity="0.4" cx="50" cy="31" r="4" fill="#794DFF"/>
<circle opacity="0.4" cx="62" cy="31" r="4" fill="#794DFF"/>
</g>
<defs>
<linearGradient id="paint0_linear_5593_238" x1="25.5" y1="8.04235e-06" x2="25.4735" y2="150" gradientUnits="userSpaceOnUse">
<stop stop-color="#76717F" stop-opacity="0"/>
<stop offset="0.245" stop-color="#3F404D" stop-opacity="0.5"/>
<stop offset="0.75" stop-color="#3F404D" stop-opacity="0.5"/>
<stop offset="1" stop-color="#76717F" stop-opacity="0"/>
</linearGradient>
<linearGradient id="paint1_linear_5593_238" x1="205.5" y1="8.04235e-06" x2="205.473" y2="150" gradientUnits="userSpaceOnUse">
<stop stop-color="#76717F" stop-opacity="0"/>
<stop offset="0.245" stop-color="#3F404D" stop-opacity="0.5"/>
<stop offset="0.75" stop-color="#3F404D" stop-opacity="0.5"/>
<stop offset="1" stop-color="#76717F" stop-opacity="0"/>
</linearGradient>
<linearGradient id="paint2_linear_5593_238" x1="1.22952e-05" y1="19.5" x2="230" y2="19.5624" gradientUnits="userSpaceOnUse">
<stop stop-color="#76717F" stop-opacity="0"/>
<stop offset="0.245" stop-color="#3F404D" stop-opacity="0.5"/>
<stop offset="0.75" stop-color="#3F404D" stop-opacity="0.5"/>
<stop offset="1" stop-color="#76717F" stop-opacity="0"/>
</linearGradient>
<linearGradient id="paint3_linear_5593_238" x1="1.22952e-05" y1="129.5" x2="230" y2="129.562" gradientUnits="userSpaceOnUse">
<stop stop-color="#76717F" stop-opacity="0"/>
<stop offset="0.245" stop-color="#3F404D" stop-opacity="0.5"/>
<stop offset="0.75" stop-color="#3F404D" stop-opacity="0.5"/>
<stop offset="1" stop-color="#76717F" stop-opacity="0"/>
</linearGradient>
<clipPath id="clip0_5593_238">
<rect width="230" height="150" fill="white"/>
</clipPath>
</defs>
</svg>
