<svg width="250" height="160" viewBox="0 0 250 160" fill="none" xmlns="http://www.w3.org/2000/svg">
  <g clip-path="url(#a)">
    <path d="M35 160V0" stroke="url(#b)" stroke-opacity=".4"/>
    <path d="M215 160V0" stroke="url(#c)" stroke-opacity=".4"/>
    <path d="M250 24H0" stroke="url(#d)" stroke-opacity=".4"/>
    <path d="M250 132H0" stroke="url(#e)" stroke-opacity=".4"/>
    <rect x="35" y="24" width="180" height="32" rx="8" fill="#76717F" fill-opacity=".06"/>
    <rect x="47" y="36" width="83" height="8" rx="4" fill="#76717F" fill-opacity=".3"/>
    <path d="m188 37.5 5 5 5-5" stroke="#474857" stroke-opacity=".5" stroke-width="1.5" stroke-linecap="round" stroke-linejoin="round"/>
    <rect x="35" y="61" width="180" height="34" rx="8" fill="#76717F" fill-opacity=".06"/>
    <rect x="47" y="67" width="63" height="8" rx="4" fill="oklch(var(--p))"/>
    <rect x="47" y="83" width="103" height="6" rx="3" fill="#76717F" fill-opacity=".2"/>
    <path d="m188 75.5 5 5 5-5" stroke="#474857" stroke-opacity=".5" stroke-width="1.5" stroke-linecap="round" stroke-linejoin="round"/>
    <rect x="35" y="100" width="180" height="32" rx="8" fill="#76717F" fill-opacity=".06"/>
    <rect x="47" y="112" width="50" height="8" rx="4" fill="#76717F" fill-opacity=".3"/>
    <path d="m188 113.5 5 5 5-5" stroke="#474857" stroke-opacity=".5" stroke-width="1.5" stroke-linecap="round" stroke-linejoin="round"/>
  </g>
  <defs>
    <linearGradient id="b" x1="35.5" y1="0" x2="35.47" y2="160" gradientUnits="userSpaceOnUse">
      <stop stop-color="#76717F" stop-opacity="0"/>
      <stop offset=".245" stop-color="#3F404D" stop-opacity=".5"/>
      <stop offset=".75" stop-color="#3F404D" stop-opacity=".5"/>
      <stop offset="1" stop-color="#76717F" stop-opacity="0"/>
    </linearGradient>
    <linearGradient id="c" x1="215.5" y1="0" x2="215.47" y2="160" gradientUnits="userSpaceOnUse">
      <stop stop-color="#76717F" stop-opacity="0"/>
      <stop offset=".245" stop-color="#3F404D" stop-opacity=".5"/>
      <stop offset=".75" stop-color="#3F404D" stop-opacity=".5"/>
      <stop offset="1" stop-color="#76717F" stop-opacity="0"/>
    </linearGradient>
    <linearGradient id="d" x1="0" y1="23.5" x2="250" y2="23.574" gradientUnits="userSpaceOnUse">
      <stop stop-color="#76717F" stop-opacity="0"/>
      <stop offset=".245" stop-color="#3F404D" stop-opacity=".5"/>
      <stop offset=".75" stop-color="#3F404D" stop-opacity=".5"/>
      <stop offset="1" stop-color="#76717F" stop-opacity="0"/>
    </linearGradient>
    <linearGradient id="e" x1="0" y1="131.5" x2="250" y2="131.574" gradientUnits="userSpaceOnUse">
      <stop stop-color="#76717F" stop-opacity="0"/>
      <stop offset=".245" stop-color="#3F404D" stop-opacity=".5"/>
      <stop offset=".75" stop-color="#3F404D" stop-opacity=".5"/>
      <stop offset="1" stop-color="#76717F" stop-opacity="0"/>
    </linearGradient>
    <clipPath id="a">
      <path fill="#fff" d="M0 0h250v160H0z"/>
    </clipPath>
  </defs>
</svg>
