<svg width="204" height="112" viewBox="0 0 204 112" fill="none" xmlns="http://www.w3.org/2000/svg">
<g clip-path="url(#clip0_5372_59922)">
<path d="M28 112L28 2.02656e-06" stroke="url(#paint0_linear_5372_59922)" stroke-opacity="0.4"/>
<path d="M176 112L176 2.02656e-06" stroke="url(#paint1_linear_5372_59922)" stroke-opacity="0.4"/>
<path d="M204 18L7.51019e-06 18" stroke="url(#paint2_linear_5372_59922)" stroke-opacity="0.4"/>
<path d="M204 94L7.51019e-06 94" stroke="url(#paint3_linear_5372_59922)" stroke-opacity="0.4"/>
<rect x="113" y="18" width="42" height="10" rx="5" fill="#76717F" fill-opacity="0.2"/>
<rect x="99" y="18" width="10" height="10" rx="5" fill="#76717F" fill-opacity="0.2"/>
<rect x="99" y="40" width="10" height="10" rx="5" fill="#794DFF"/>
<rect x="99" y="62" width="10" height="10" rx="5" fill="#76717F" fill-opacity="0.2"/>
<rect x="28" y="40" width="67" height="10" rx="5" fill="#794DFF"/>
<rect x="99" y="84" width="10" height="10" rx="5" fill="#76717F" fill-opacity="0.2"/>
<rect x="63" y="84" width="32" height="10" rx="5" fill="#76717F" fill-opacity="0.2"/>
<rect x="113" y="62" width="63" height="10" rx="5" fill="#76717F" fill-opacity="0.2"/>
<rect x="103" y="30" width="2" height="8" rx="1" fill="#76717F" fill-opacity="0.2"/>
<rect x="103" y="52" width="2" height="8" rx="1" fill="#76717F" fill-opacity="0.2"/>
<rect x="103" y="74" width="2" height="8" rx="1" fill="#76717F" fill-opacity="0.2"/>
</g>
<defs>
<linearGradient id="paint0_linear_5372_59922" x1="28.5" y1="6.00907e-06" x2="28.4852" y2="112" gradientUnits="userSpaceOnUse">
<stop stop-color="#76717F" stop-opacity="0"/>
<stop offset="0.245" stop-color="#3F404D" stop-opacity="0.5"/>
<stop offset="0.75" stop-color="#3F404D" stop-opacity="0.5"/>
<stop offset="1" stop-color="#76717F" stop-opacity="0"/>
</linearGradient>
<linearGradient id="paint1_linear_5372_59922" x1="176.5" y1="6.00907e-06" x2="176.485" y2="112" gradientUnits="userSpaceOnUse">
<stop stop-color="#76717F" stop-opacity="0"/>
<stop offset="0.245" stop-color="#3F404D" stop-opacity="0.5"/>
<stop offset="0.75" stop-color="#3F404D" stop-opacity="0.5"/>
<stop offset="1" stop-color="#76717F" stop-opacity="0"/>
</linearGradient>
<linearGradient id="paint2_linear_5372_59922" x1="1.0868e-05" y1="17.5" x2="204" y2="17.5491" gradientUnits="userSpaceOnUse">
<stop stop-color="#76717F" stop-opacity="0"/>
<stop offset="0.245" stop-color="#3F404D" stop-opacity="0.5"/>
<stop offset="0.75" stop-color="#3F404D" stop-opacity="0.5"/>
<stop offset="1" stop-color="#76717F" stop-opacity="0"/>
</linearGradient>
<linearGradient id="paint3_linear_5372_59922" x1="1.0868e-05" y1="93.5" x2="204" y2="93.5491" gradientUnits="userSpaceOnUse">
<stop stop-color="#76717F" stop-opacity="0"/>
<stop offset="0.245" stop-color="#3F404D" stop-opacity="0.5"/>
<stop offset="0.75" stop-color="#3F404D" stop-opacity="0.5"/>
<stop offset="1" stop-color="#76717F" stop-opacity="0"/>
</linearGradient>
<clipPath id="clip0_5372_59922">
<rect width="204" height="112" fill="white"/>
</clipPath>
</defs>
</svg>
