<svg width="1329" height="1315" viewBox="0 0 1329 1315" fill="none" xmlns="http://www.w3.org/2000/svg">
<g clip-path="url(#clip0_7405_14866)">
<path d="M861.8 167.27C861.44 255.19 772.68 326.08 663.58 325.63C554.48 325.18 466.3 253.61 466.62 165.61C466.88 103.37 511.44 49.61 576.16 23.76C582.413 21.2533 588.84 19.0167 595.44 17.05C597.84 16.33 600.25 15.65 602.69 15.05C620.743 10.3389 639.286 7.75794 657.94 7.35999C660.23 7.28999 662.53 7.27 664.84 7.28C773.99 7.73 862.16 79.35 861.8 167.27Z" fill="white"/>
<path d="M664.62 332.92H663.62C550.62 332.45 459.08 257.41 459.45 165.62C459.71 102.02 503.45 45.09 573.57 17.04C579.97 14.47 586.67 12.14 593.48 10.11C596.13 9.31003 598.6 8.62002 600.99 8.01002C619.582 3.15611 638.679 0.497996 657.89 0.0900404C660.21 0.0200404 662.59 -0.0099559 664.98 4.41027e-05C719.41 0.230044 770.57 17.56 809.05 48.82C847.99 80.46 869.34 122.53 869.15 167.3C868.71 258.8 777.07 332.92 664.62 332.92ZM663.95 14.61C662.02 14.61 660.1 14.61 658.19 14.69C640.091 15.0797 622.099 17.5833 604.58 22.15C602.35 22.73 600.07 23.37 597.58 24.15C591.19 26.05 584.92 28.23 578.92 30.64C514.4 56.44 474.18 108.22 473.92 165.76C473.58 249.52 558.67 318 663.59 318.43H664.59C769.07 318.43 854.17 250.81 854.51 167.32C854.68 127.05 835.24 89.01 799.79 60.21C763.88 31.04 715.96 14.86 664.79 14.65L663.95 14.61Z" fill="#9880FF"/>
<path d="M634.06 147.05L546.32 146.69C546.32 146.69 548.32 61.97 602.73 15.06C620.784 10.3489 639.327 7.76795 657.98 7.37C635.7 33.99 608.62 83.04 634.06 147.05Z" fill="#9880FF"/>
<path d="M533.78 152.88L505.78 146.52C505.78 146.52 498.55 79.34 576.22 23.8C582.473 21.2934 588.9 19.0567 595.5 17.09C565.84 42.32 522.55 90.92 533.78 152.88Z" fill="#9880FF"/>
<path d="M1040.81 267.06C1040.67 300.26 871.94 326.49 663.94 325.64C455.94 324.79 287.42 297.18 287.56 263.98C287.79 207.3 456.78 119.54 664.78 120.39C872.78 121.24 1041.04 210.38 1040.81 267.06Z" fill="white"/>
<path d="M663.92 331.53C563.01 331.12 468.13 324.45 396.74 312.76C319.23 300.06 281.58 284.1 281.66 263.95C281.73 248.22 292.75 230.6 313.54 213.01C333.54 196.09 362.04 179.55 395.96 165.18C474.05 132.11 569.53 114.1 664.81 114.49C760.09 114.88 855.41 133.66 933.23 167.38C967.03 182.02 995.39 198.79 1015.23 215.88C1035.87 233.64 1046.75 251.35 1046.68 267.08C1046.6 287.22 1008.83 302.88 931.21 314.94C859.75 326.05 764.82 331.95 663.92 331.53ZM664.76 126.28C610.48 126.06 503.98 132.23 400.55 176.04C367.71 189.95 340.26 205.84 321.15 222.04C303.34 237.12 293.5 252.04 293.45 264.04C293.45 271.42 315.54 287.55 398.65 301.16C469.44 312.76 563.65 319.37 663.97 319.78C764.29 320.19 858.54 314.35 929.42 303.33C1012.63 290.4 1034.88 274.46 1034.92 267.07C1034.92 255.07 1025.25 240.07 1007.56 224.86C988.56 208.53 961.26 192.41 928.56 178.24C884.3 159.03 791.21 126.8 664.76 126.28Z" fill="#9880FF"/>
<path d="M1040.81 267.06C1040.67 300.26 871.94 326.49 663.94 325.64C455.94 324.79 287.42 297.18 287.56 263.98C287.7 230.78 456.43 204.61 664.44 205.41C872.45 206.21 1040.94 233.86 1040.81 267.06Z" fill="#9880FF"/>
<path d="M663.62 318.93C628.39 318.79 595.23 316.61 570.25 312.79C537.14 307.73 528.89 301.47 527.3 295.66L505.87 271.49C504.858 270.624 504.044 269.551 503.481 268.344C502.919 267.136 502.622 265.822 502.61 264.49C502.61 253.49 522.92 248.77 553.34 245.09C582.93 241.51 622.21 239.63 663.94 239.8C705.67 239.97 744.94 242.17 774.49 246C816.49 251.43 825.1 257.85 825.07 265.81C825.038 267.135 824.724 268.438 824.15 269.633C823.576 270.827 822.754 271.887 821.74 272.74L800.12 296.74C798.48 302.53 790.18 308.74 757.03 313.52C732.01 317.17 698.84 319.08 663.62 318.93Z" fill="white"/>
<path d="M819.52 266.16C819.52 255.42 750.05 246.42 664.26 246.07C578.47 245.72 508.89 254.15 508.85 264.89C508.896 265.44 509.061 265.974 509.332 266.456C509.603 266.937 509.974 267.354 510.42 267.68L533.22 293.38L794.92 294.45L817.92 268.93C818.37 268.611 818.747 268.198 819.023 267.72C819.299 267.242 819.468 266.71 819.52 266.16Z" fill="white"/>
<path d="M364.98 307.61L359.84 306.78C356.48 306.2 351.55 305.38 345.35 303.93C337.845 302.262 330.45 300.128 323.21 297.54C318.692 295.926 314.289 294.008 310.03 291.8C307.665 290.564 305.395 289.154 303.24 287.58C300.81 285.869 298.664 283.787 296.88 281.41C295.85 280.024 295.066 278.471 294.56 276.82C294.291 275.905 294.13 274.962 294.08 274.01V273.83C294.08 273.7 294.08 273.83 294.08 273.5V273.24C294.08 273.04 294.08 272.94 294.08 272.66C294.116 272.129 294.189 271.601 294.3 271.08C295.15 267.18 297.54 264.35 299.93 262.08C302.34 259.894 304.994 257.995 307.84 256.42C310.63 254.828 313.504 253.39 316.45 252.11C328.26 246.98 341.07 243.21 354.45 240.03C367.83 236.85 381.68 234.09 395.85 231.88C410.02 229.67 424.45 227.72 438.85 226.05C453.25 224.38 467.79 223.2 482.05 222.05C496.31 220.9 510.36 220.25 523.95 219.6C537.54 218.95 550.7 218.6 563.16 218.42C575.62 218.24 587.42 218.16 598.3 218.24C609.18 218.32 619.15 218.49 627.99 218.73C636.83 218.97 644.52 219.28 650.86 219.55C657.2 219.82 662.18 220.15 665.57 220.33L670.78 220.65L598.48 224.61L563.48 226.67L524.48 229.3C510.97 230.23 497.03 231.5 482.87 232.66C468.71 233.82 454.35 235.3 440.03 236.93C425.71 238.56 411.39 240.23 397.38 242.32C383.37 244.41 369.61 246.61 356.48 249.41C343.35 252.21 330.74 255.28 319.48 259.62C313.92 261.79 308.61 264.34 304.64 267.53C302.875 268.806 301.522 270.573 300.75 272.61C300.55 273.534 300.551 274.491 300.755 275.414C300.959 276.337 301.36 277.206 301.93 277.96C303.241 279.915 304.847 281.656 306.69 283.12C308.56 284.64 310.52 286.046 312.56 287.33C316.459 289.741 320.515 291.89 324.7 293.76C331.609 296.835 338.672 299.552 345.86 301.9C351.86 303.9 356.63 305.33 359.86 306.24L364.98 307.61Z" fill="white"/>
<path d="M488.45 258.77C488.45 263.07 475.78 266.51 460.18 266.45C444.58 266.39 431.95 262.84 431.97 258.54C431.99 254.24 444.65 250.79 460.24 250.86C475.83 250.93 488.47 254.46 488.45 258.77Z" fill="white"/>
<path d="M491.79 260.49C491.79 264.8 479.11 268.24 463.51 268.17C447.91 268.1 435.29 264.57 435.3 260.26C435.31 255.95 447.98 252.52 463.58 252.58C479.18 252.64 491.8 256.19 491.79 260.49Z" fill="#9880FF"/>
<path d="M485.62 262.2C485.62 265.68 474.78 268.45 461.43 268.4C448.08 268.35 437.28 265.48 437.29 262C437.3 258.52 448.14 255.74 461.48 255.8C474.82 255.86 485.62 258.72 485.62 262.2Z" fill="white"/>
<path d="M488.43 263.61C488.43 267.09 477.59 269.87 464.24 269.82C450.89 269.77 440.09 266.9 440.1 263.42C440.11 259.94 450.95 257.16 464.29 257.22C477.63 257.28 488.45 260.12 488.43 263.61Z" fill="#9880FF"/>
<path d="M476.41 264.66C476.41 265.66 469.68 266.44 461.41 266.4C453.14 266.36 446.41 265.53 446.41 264.54C446.41 263.55 453.14 262.76 461.41 262.79C469.68 262.82 476.41 263.66 476.41 264.66Z" fill="white"/>
<path d="M490.16 297.28C490.16 299.53 483.54 301.28 475.39 301.28C467.24 301.28 460.64 299.39 460.64 297.14C460.64 294.89 467.27 293.14 475.42 293.14C483.57 293.14 490.17 295.03 490.16 297.28Z" fill="white"/>
<path d="M491.9 298.18C491.9 300.43 485.28 302.18 477.13 302.18C468.98 302.18 462.38 300.3 462.39 298.05C462.4 295.8 469.01 294 477.16 294.05C485.31 294.1 491.91 295.93 491.9 298.18Z" fill="#9880FF"/>
<path d="M488.62 299.07C488.62 300.89 482.95 302.34 475.98 302.31C469.01 302.28 463.36 300.78 463.36 298.97C463.36 297.16 469.03 295.7 476 295.73C482.97 295.76 488.67 297.25 488.62 299.07Z" fill="white"/>
<path d="M490.15 299.8C490.15 301.62 484.48 303.07 477.51 303.04C470.54 303.01 464.89 301.51 464.89 299.7C464.89 297.89 470.56 296.43 477.53 296.46C484.5 296.49 490.16 297.98 490.15 299.8Z" fill="#9880FF"/>
<path d="M483.86 300.35C483.86 300.88 480.35 301.28 476.02 301.27C471.69 301.26 468.179 300.81 468.189 300.27C468.199 299.73 471.7 299.34 476.03 299.36C480.36 299.38 483.87 299.83 483.86 300.35Z" fill="white"/>
<path d="M587.47 142.61C424.62 166.94 396.74 190.02 367.62 202.53C336.98 215.68 315.62 232.01 293.24 252.71C309.16 248.13 342.57 235.07 365.37 230.87C407.76 223.05 525.67 211.74 579.87 207.87C579.87 207.87 456.15 215.71 457.94 195.49C460.17 169.94 587.47 142.61 587.47 142.61Z" fill="#9880FF"/>
<path d="M1034.16 254.96C1019.71 250.8 990.74 237.43 968.47 232.25C966.19 231.73 964 231.25 961.88 230.87C960.88 230.69 959.88 230.5 958.88 230.32C914.44 222.58 801.88 211.78 748.46 207.95C760.54 208.64 871.03 214.61 869.34 195.5C867.12 170.33 743.74 143.45 739.88 142.61C850.21 159.09 898.57 175.03 927.33 187.45C932.98 189.9 937.85 192.21 942.33 194.36C948.69 197.36 954.16 200.15 959.69 202.53C990.26 215.69 1014.92 231.61 1034.16 254.96Z" fill="#9880FF"/>
<path d="M839.96 260.2C839.96 264.51 852.58 268.05 868.17 268.11C883.76 268.17 896.43 264.74 896.45 260.43C896.47 256.12 883.83 252.59 868.24 252.52C852.65 252.45 839.98 255.9 839.96 260.2Z" fill="white"/>
<path d="M836.62 261.9C836.62 266.21 849.23 269.75 864.83 269.81C880.43 269.87 893.08 266.44 893.1 262.14C893.12 257.84 880.49 254.29 864.89 254.22C849.29 254.15 836.62 257.61 836.62 261.9Z" fill="#9880FF"/>
<path d="M842.81 263.66C842.81 267.14 853.6 270 866.95 270.06C880.3 270.12 891.12 267.33 891.14 263.86C891.16 260.39 880.34 257.51 867 257.46C853.66 257.41 842.82 260.18 842.81 263.66Z" fill="white"/>
<path d="M839.939 265.03C839.939 268.51 850.739 271.38 864.079 271.43C877.419 271.48 888.26 268.71 888.28 265.23C888.3 261.75 877.48 258.89 864.13 258.83C850.78 258.77 839.959 261.55 839.939 265.03Z" fill="#9880FF"/>
<path d="M851.96 266.19C851.96 267.19 858.67 268.03 866.96 268.06C875.25 268.09 881.96 267.31 881.96 266.32C881.96 265.33 875.26 264.48 866.96 264.45C858.66 264.42 851.96 265.2 851.96 266.19Z" fill="white"/>
<path d="M837.939 298.7C837.939 300.95 844.53 302.8 852.68 302.83C860.83 302.86 867.449 301.07 867.459 298.83C867.469 296.59 860.869 294.73 852.719 294.69C844.569 294.65 837.949 296.45 837.939 298.7Z" fill="white"/>
<path d="M836.189 299.61C836.189 301.86 842.78 303.71 850.93 303.74C859.08 303.77 865.699 301.98 865.709 299.74C865.719 297.5 859.119 295.64 850.969 295.6C842.819 295.56 836.199 297.34 836.189 299.61Z" fill="#9880FF"/>
<path d="M839.43 300.5C839.43 302.32 845.07 303.82 852.04 303.85C859.01 303.88 864.68 302.42 864.68 300.61C864.68 298.8 859.04 297.29 852.07 297.26C845.1 297.23 839.44 298.68 839.43 300.5Z" fill="white"/>
<path d="M837.93 301.22C837.93 303.04 843.57 304.54 850.55 304.56C857.53 304.58 863.18 303.14 863.19 301.32C863.2 299.5 857.55 298.01 850.57 297.98C843.59 297.95 837.94 299.4 837.93 301.22Z" fill="#9880FF"/>
<path d="M844.21 301.83C844.21 302.35 847.72 302.83 852.05 302.83C856.38 302.83 859.89 302.44 859.89 301.92C859.89 301.4 856.38 300.92 852.06 300.92C847.74 300.92 844.21 301.31 844.21 301.83Z" fill="white"/>
<path d="M549.28 253.02C564.14 250.73 567.14 249.93 586.15 249.07L593.63 279.07C561.63 283.07 538.63 291.64 534.41 295.99L508.85 264.85C511.25 262.82 521.96 257.24 549.28 253.02Z" fill="#9880FF"/>
<path d="M579.11 249.49C579.11 249.49 619.34 246.4 633.65 245.95L579.09 253.95L579.11 249.49Z" fill="#9880FF"/>
<path d="M578.81 256.54L578.94 252.16C579.32 252.16 618.52 249.38 631.4 248.98C630.99 248.98 578.81 256.54 578.81 256.54Z" fill="#9880FF"/>
<path d="M578.53 259.17L578.77 254.82C579.53 254.75 617.7 252.37 629.15 252.01C628.32 252.02 578.53 259.17 578.53 259.17Z" fill="#9880FF"/>
<path d="M578.25 261.8L578.61 257.49C579.73 257.38 616.88 255.36 626.9 255.04C625.62 255.06 578.25 261.8 578.25 261.8Z" fill="#9880FF"/>
<path d="M577.97 264.43L578.44 260.15C579.94 260 616.06 258.35 624.64 258.08C622.98 258.09 577.97 264.43 577.97 264.43Z" fill="#9880FF"/>
<path d="M577.689 267.06L578.27 262.81C580.15 262.63 615.27 261.33 622.39 261.11C620.31 261.13 577.689 267.06 577.689 267.06Z" fill="#9880FF"/>
<path d="M577.41 269.69L578.1 265.48C580.36 265.26 614.42 264.32 620.1 264.14C617.62 264.16 577.41 269.69 577.41 269.69Z" fill="#9880FF"/>
<path d="M577.13 272.23L577.93 268.05C580.57 267.79 613.59 267.21 617.93 267.05C614.98 267.11 577.13 272.23 577.13 272.23Z" fill="#9880FF"/>
<path d="M576.85 274.84L577.77 270.7C580.77 270.41 612.77 270.19 615.64 270.1C612.31 270.13 576.85 274.84 576.85 274.84Z" fill="#9880FF"/>
<path d="M576.62 277.46L577.62 273.35C581 273.02 611.97 273.16 613.4 273.12C609.62 273.15 576.62 277.46 576.62 277.46Z" fill="#9880FF"/>
<path d="M576.28 280.21C576.28 280.21 606.97 276.31 611.13 276.27C611.13 276.27 581.19 275.77 577.43 276.13L576.28 280.21Z" fill="#9880FF"/>
<path d="M779.18 253.96C764.34 251.55 761.35 250.72 742.35 249.71L734.62 279.71C766.62 283.96 789.48 292.71 793.71 297.12L819.52 266.19C817.13 264.07 806.47 258.41 779.18 253.96Z" fill="#9880FF"/>
<path d="M749.38 250.19C749.38 250.19 709.18 246.76 694.87 246.19L749.37 254.59L749.38 250.19Z" fill="#9880FF"/>
<path d="M749.62 257.24C749.62 257.24 697.51 249.24 697.09 249.24C709.97 249.75 749.15 252.81 749.52 252.84L749.62 257.24Z" fill="#9880FF"/>
<path d="M749.89 259.87C749.89 259.87 700.16 252.31 699.33 252.3C710.77 252.75 748.93 255.44 749.68 255.52L749.89 259.87Z" fill="#9880FF"/>
<path d="M750.14 262.5C750.14 262.5 702.8 255.37 701.56 255.35C711.56 255.75 748.7 258.07 749.82 258.18L750.14 262.5Z" fill="#9880FF"/>
<path d="M750.4 265.13C750.4 265.13 705.4 258.43 703.78 258.4C712.37 258.74 748.47 260.69 749.97 260.85L750.4 265.13Z" fill="#9880FF"/>
<path d="M750.62 267.77C750.62 267.77 708.05 261.49 705.97 261.45C713.12 261.73 748.2 263.32 750.08 263.52L750.62 267.77Z" fill="#9880FF"/>
<path d="M750.92 270.4C750.92 270.4 710.73 264.54 708.24 264.5C713.96 264.73 748.01 265.94 750.24 266.18L750.92 270.4Z" fill="#9880FF"/>
<path d="M751.18 273.03C751.18 273.03 713.38 267.6 710.47 267.55C714.76 267.72 747.78 268.55 750.41 268.85L751.18 273.03Z" fill="#9880FF"/>
<path d="M751.439 275.67C751.439 275.67 716.019 270.67 712.689 270.6C715.549 270.71 747.549 271.2 750.559 271.51L751.439 275.67Z" fill="#9880FF"/>
<path d="M751.7 278.3C751.7 278.3 718.7 273.72 714.92 273.65C716.35 273.71 747.32 273.82 750.7 274.18L751.7 278.3Z" fill="#9880FF"/>
<path d="M751.96 280.93C751.96 280.93 721.31 276.78 717.15 276.7C717.15 276.7 747.09 276.45 750.85 276.84L751.96 280.93Z" fill="#9880FF"/>
<path d="M959.94 244.61C959.94 244.61 958.7 205.12 922.79 185.23H927.62C927.62 185.23 964.87 202.82 970 246.78L959.94 244.61Z" fill="white"/>
<path d="M367.89 242.13C367.89 242.13 369.46 202.66 405.52 183.06H400.69C400.69 183.06 363.29 200.34 357.8 244.26L367.89 242.13Z" fill="white"/>
<path d="M579.13 245.72C579.13 245.72 570.96 268.99 581.05 281.41C581.05 281.41 558.31 268.25 557.6 248.95L579.13 245.72Z" fill="white"/>
<path d="M794.8 294.392C794.843 283.65 736.295 274.706 664.03 274.416C591.764 274.126 533.146 282.599 533.102 293.341C533.059 304.083 591.607 313.026 663.873 313.316C736.139 313.606 794.757 305.133 794.8 294.392Z" fill="#9880FF"/>
<path d="M754.25 291.7C754.25 284.863 711.042 279.32 657.741 279.32C604.44 279.32 561.23 284.863 561.23 291.7C561.23 298.537 604.44 304.08 657.741 304.08C711.042 304.08 754.25 298.537 754.25 291.7Z" fill="white"/>
<path d="M362.98 275.09C362.98 276.26 356.91 277.19 349.42 277.16C341.93 277.13 335.86 276.16 335.87 274.98C335.88 273.8 341.95 272.87 349.44 272.9C356.93 272.93 362.99 273.91 362.98 275.09Z" fill="white"/>
<path d="M965.29 277.55C965.29 278.72 971.35 279.7 978.84 279.73C986.33 279.76 992.4 278.84 992.41 277.66C992.42 276.48 986.35 275.51 978.86 275.48C971.37 275.45 965.3 276.37 965.29 277.55Z" fill="white"/>
<path d="M1203.03 408.84C1202.83 456.36 961.4 493.84 663.78 492.67C366.16 491.5 125.02 451.95 125.21 404.44C125.54 323.34 367.34 197.76 664.98 198.98C962.62 200.2 1203.36 327.74 1203.03 408.84Z" fill="white"/>
<path d="M663.74 501.1C519.36 500.51 383.59 490.97 281.45 474.24C170.52 456.07 116.66 433.24 116.78 404.4C116.87 381.89 132.641 356.68 162.391 331.51C191.001 307.3 231.78 283.63 280.32 263.07C392.06 215.74 528.68 189.99 665.01 190.54C801.34 191.09 937.74 217.98 1049.09 266.22C1097.45 287.17 1138.03 311.17 1166.45 335.62C1195.99 361.03 1211.55 386.36 1211.45 408.88C1211.33 437.7 1157.29 460.1 1046.22 477.36C943.96 493.26 808.12 501.69 663.74 501.1ZM664.94 207.41C587.28 207.09 434.94 215.92 286.94 278.6C239.94 298.51 200.66 321.25 173.32 344.39C147.83 365.96 133.761 387.3 133.691 404.47C133.691 415.04 165.3 438.11 284.21 457.59C385.5 474.18 520.33 483.65 663.85 484.23C807.37 484.81 942.261 476.46 1043.68 460.7C1162.75 442.19 1194.59 419.37 1194.63 408.81C1194.7 391.63 1180.8 370.18 1155.49 348.4C1128.34 325.05 1089.25 301.98 1042.42 281.69C979.081 254.27 845.87 208.15 664.94 207.41Z" fill="#9880FF"/>
<path d="M1203.03 408.84C1202.83 456.36 961.4 493.84 663.78 492.67C366.16 491.5 125.02 451.95 125.21 404.44C125.4 356.93 366.84 319.44 664.48 320.63C962.12 321.82 1203.22 361.34 1203.03 408.84Z" fill="#9880FF"/>
<path d="M663.29 483.08C612.88 482.87 565.44 479.75 529.7 474.29C482.32 467.04 470.52 458.09 468.25 449.77L437.62 415.19C433.75 411.57 432.94 407.8 432.95 405.19C433.01 389.44 462.02 382.71 505.55 377.44C547.89 372.31 604.09 369.62 663.8 369.87C723.51 370.12 779.68 373.26 821.98 378.73C882.11 386.51 894.4 395.73 894.35 407.07C894.35 409.64 893.49 413.4 889.59 416.99L858.62 451.37C856.28 459.67 844.41 468.52 796.97 475.37C761.18 480.55 713.71 483.28 663.29 483.08Z" fill="white"/>
<path d="M886.39 407.61C886.45 392.24 786.99 379.37 664.23 378.87C541.47 378.37 441.91 390.42 441.85 405.79C441.85 407.14 442.63 408.47 444.11 409.79L476.72 446.57L851.18 448.1L884.1 411.59C885.62 410.23 886.38 408.91 886.39 407.61Z" fill="white"/>
<path d="M236 466.94L228.62 465.61C223.85 464.7 216.82 463.4 207.99 461.22C197.318 458.68 186.809 455.498 176.52 451.69C170.125 449.328 163.897 446.535 157.88 443.33C154.562 441.57 151.38 439.564 148.36 437.33C145.022 434.92 142.068 432.017 139.6 428.72C138.235 426.847 137.193 424.758 136.52 422.54C136.169 421.335 135.961 420.093 135.9 418.84V418.36V417.84C135.9 417.57 135.9 417.39 135.9 417.04C135.95 416.367 136.047 415.699 136.19 415.04C137.32 409.94 140.55 406.1 143.87 403.04C147.26 400.026 150.98 397.406 154.96 395.23C158.912 393.011 162.982 391.008 167.15 389.23C183.93 382.07 202.22 376.83 221.27 372.35C240.32 367.87 260.16 364.06 280.41 360.91C300.66 357.76 321.27 355.03 341.91 352.66C362.55 350.29 383.26 348.54 403.64 346.94C424.02 345.34 444.11 344.24 463.54 343.25C482.97 342.26 501.77 341.67 519.6 341.25C537.43 340.83 554.28 340.62 569.84 340.58C585.4 340.54 599.66 340.65 612.3 340.84C624.94 341.03 635.95 341.32 645.02 341.59C654.09 341.86 661.21 342.18 666.02 342.36L673.47 342.68L644.98 343.76L612.31 345.03L569.96 346.86L519.88 349.41C502.13 350.41 483.41 351.6 464.06 352.87C444.71 354.14 424.74 355.87 404.46 357.47C384.18 359.07 363.61 361.19 343.08 363.47C322.55 365.75 302.08 368.25 281.97 371.28C261.86 374.31 242.18 377.56 223.34 381.65C204.5 385.74 186.41 390.29 170.21 396.65C162.21 399.86 154.5 403.57 148.61 408.41C145.72 410.83 143.41 413.66 142.68 416.52C141.95 419.38 142.79 422.41 144.68 425.25C146.668 428.132 149.082 430.694 151.84 432.85C154.575 435.033 157.447 437.037 160.44 438.85C166.099 442.241 171.979 445.248 178.04 447.85C188.026 452.162 198.234 455.941 208.62 459.17C217.25 461.85 224.11 463.81 228.8 465.05L236 466.94Z" fill="white"/>
<path d="M412.29 396.43C412.29 390.272 394.198 385.28 371.88 385.28C349.562 385.28 331.47 390.272 331.47 396.43C331.47 402.588 349.562 407.58 371.88 407.58C394.198 407.58 412.29 402.588 412.29 396.43Z" fill="#9880FF"/>
<path d="M408.56 401.89C408.56 406.89 393.04 410.89 373.95 410.76C354.86 410.63 339.38 406.59 339.4 401.61C339.42 396.63 354.92 392.61 374.02 392.74C393.12 392.87 408.62 396.91 408.56 401.89Z" fill="white"/>
<path d="M412.62 403.89C412.62 408.89 397.1 412.89 378.01 412.76C358.92 412.63 343.45 408.59 343.47 403.61C343.49 398.63 358.98 394.61 378.08 394.73C397.18 394.85 412.62 398.91 412.62 403.89Z" fill="#9880FF"/>
<path d="M395.43 405.41C395.43 406.84 385.81 407.96 373.96 407.91C362.11 407.86 352.5 406.66 352.5 405.24C352.5 403.82 362.12 402.69 373.98 402.74C385.84 402.79 395.44 403.99 395.43 405.41Z" fill="white"/>
<path d="M415.11 452.08C415.11 455.3 405.63 457.87 393.97 457.83C382.31 457.79 372.87 455.13 372.88 451.91C372.89 448.69 382.36 446.12 394.02 446.17C405.68 446.22 415.12 448.86 415.11 452.08Z" fill="white"/>
<path d="M417.62 453.38C417.62 456.59 408.15 459.17 396.48 459.12C384.81 459.07 375.38 456.42 375.39 453.2C375.4 449.98 384.87 447.41 396.53 447.46C408.19 447.51 417.62 450.16 417.62 453.38Z" fill="#9880FF"/>
<path d="M412.96 454.61C412.96 457.21 404.85 459.29 394.88 459.25C384.91 459.21 376.81 457.06 376.88 454.46C376.95 451.86 384.98 449.78 394.96 449.83C404.94 449.88 412.97 452.05 412.96 454.61Z" fill="white"/>
<path d="M415.1 455.69C415.1 458.29 406.99 460.37 397.01 460.33C387.03 460.29 378.95 458.15 378.96 455.55C378.97 452.95 387.07 450.87 397.05 450.91C407.03 450.95 415.11 453.09 415.1 455.69Z" fill="#9880FF"/>
<path d="M406.1 456.49C406.1 457.23 401.1 457.82 394.88 457.79C388.66 457.76 383.67 457.14 383.67 456.4C383.67 455.66 388.67 455.07 394.89 455.09C401.11 455.11 406.11 455.74 406.1 456.49Z" fill="white"/>
<path d="M915.62 399.04C915.62 405.2 933.62 410.27 955.98 410.36C978.34 410.45 996.41 405.53 996.44 399.36C996.47 393.19 978.44 388.13 956.07 388.04C933.7 387.95 915.62 392.88 915.62 399.04Z" fill="white"/>
<path d="M910.85 401.47C910.85 407.63 928.85 412.7 951.21 412.79C973.57 412.88 991.65 407.96 991.67 401.79C991.69 395.62 973.67 390.56 951.31 390.47C928.95 390.38 910.87 395.31 910.85 401.47Z" fill="#9880FF"/>
<path d="M988.725 404.2C988.745 399.224 973.279 395.127 954.181 395.051C935.084 394.974 919.585 398.946 919.565 403.922C919.545 408.898 935.011 412.994 954.109 413.071C973.207 413.147 988.705 409.176 988.725 404.2Z" fill="white"/>
<path d="M915.62 405.95C915.62 410.95 931.07 415.02 950.16 415.1C969.25 415.18 984.76 411.21 984.78 406.23C984.8 401.25 969.33 397.15 950.24 397.07C931.15 396.99 915.62 400.97 915.62 405.95Z" fill="#9880FF"/>
<path d="M932.81 407.61C932.81 409.04 942.41 410.23 954.26 410.28C966.11 410.33 975.73 409.21 975.74 407.78C975.75 406.35 966.14 405.16 954.28 405.11C942.42 405.06 932.81 406.18 932.81 407.61Z" fill="white"/>
<path d="M912.75 454.12C912.75 457.34 922.18 459.99 933.84 460.03C945.5 460.07 954.97 457.51 954.98 454.29C954.99 451.07 945.55 448.42 933.89 448.38C922.23 448.34 912.76 450.9 912.75 454.12Z" fill="white"/>
<path d="M910.25 455.39C910.25 458.61 919.68 461.26 931.34 461.3C943 461.34 952.47 458.78 952.48 455.56C952.49 452.34 943.05 449.7 931.39 449.65C919.73 449.6 910.26 452.17 910.25 455.39Z" fill="#9880FF"/>
<path d="M914.88 456.7C914.88 459.3 922.95 461.44 932.88 461.49C942.81 461.54 950.96 459.49 950.97 456.85C950.98 454.21 942.9 452.11 932.92 452.06C922.94 452.01 914.89 454.1 914.88 456.7Z" fill="white"/>
<path d="M912.73 457.73C912.73 460.33 920.801 462.47 930.781 462.51C940.761 462.55 948.86 460.51 948.87 457.88C948.88 455.25 940.8 453.13 930.87 453.09C920.94 453.05 912.74 455.13 912.73 457.73Z" fill="#9880FF"/>
<path d="M921.72 458.61C921.72 459.35 926.72 459.98 932.93 460C939.14 460.02 944.15 459.44 944.15 458.7C944.15 457.96 939.15 457.33 932.94 457.3C926.73 457.27 921.72 457.85 921.72 458.61Z" fill="white"/>
<path d="M499.71 388.75C520.97 385.48 525.27 384.34 552.46 383.1L563.17 426.1C517.4 431.79 484.53 444.1 478.42 450.3L441.85 405.75C445.29 402.79 460.62 394.8 499.71 388.75Z" fill="#9880FF"/>
<path d="M542.39 383.71C542.39 383.71 599.96 379.28 620.39 378.64L542.32 390.03L542.39 383.71Z" fill="#9880FF"/>
<path d="M541.96 393.79L542.15 387.52C542.69 387.52 598.78 383.52 617.21 382.98C616.62 382.98 541.96 393.79 541.96 393.79Z" fill="#9880FF"/>
<path d="M541.56 397.61L541.91 391.39C542.98 391.28 597.61 387.88 613.99 387.39C612.8 387.33 541.56 397.61 541.56 397.61Z" fill="#9880FF"/>
<path d="M541.16 401.32L541.67 395.15C543.28 394.99 596.43 392.15 610.77 391.65C608.98 391.67 541.16 401.32 541.16 401.32Z" fill="#9880FF"/>
<path d="M540.76 405.08L541.43 398.96C543.58 398.75 595.26 396.38 607.54 395.96C605.16 396.02 540.76 405.08 540.76 405.08Z" fill="#9880FF"/>
<path d="M540.36 408.75L541.19 402.67C543.88 402.42 594.08 400.56 604.32 400.24C601.35 400.26 540.36 408.75 540.36 408.75Z" fill="#9880FF"/>
<path d="M539.95 412.5L540.95 406.5C544.17 406.19 592.95 404.84 601.1 404.59C597.53 404.61 539.95 412.5 539.95 412.5Z" fill="#9880FF"/>
<path d="M539.55 416.24L540.71 410.24C544.47 409.88 591.71 409.05 597.88 408.85C593.71 408.91 539.55 416.24 539.55 416.24Z" fill="#9880FF"/>
<path d="M539.15 419.99L540.46 414.05C544.77 413.64 590.56 413.32 594.65 413.19C589.89 413.24 539.15 419.99 539.15 419.99Z" fill="#9880FF"/>
<path d="M538.75 423.73L540.22 417.84C545.07 417.38 589.38 417.58 591.43 417.51C586.07 417.61 538.75 423.73 538.75 423.73Z" fill="#9880FF"/>
<path d="M538.35 427.67C538.35 427.67 582.26 422.08 588.21 422.03C588.21 422.03 545.36 421.31 539.98 421.83L538.35 427.67Z" fill="#9880FF"/>
<path d="M828.67 390.1C807.44 386.65 803.15 385.47 775.97 384.02L764.91 426.91C810.63 432.98 843.4 445.54 849.45 451.81L886.39 407.61C882.97 404.61 867.71 396.47 828.67 390.1Z" fill="#9880FF"/>
<path d="M786.03 384.71C786.03 384.71 728.5 379.81 708.03 379L786.03 391V384.71Z" fill="#9880FF"/>
<path d="M786.38 394.79C786.38 394.79 711.82 383.37 711.22 383.36C729.64 384.09 785.7 388.47 786.22 388.52L786.38 394.79Z" fill="#9880FF"/>
<path d="M786.75 398.61C786.75 398.61 715.6 387.8 714.41 387.78C730.78 388.42 785.41 392.27 786.41 392.39L786.75 398.61Z" fill="#9880FF"/>
<path d="M787.12 402.33C787.12 402.33 719.38 392.12 717.59 392.09C731.92 392.66 785.05 395.98 786.66 396.15L787.12 402.33Z" fill="#9880FF"/>
<path d="M787.49 406.09C787.49 406.09 723.16 396.5 720.78 396.46C733.06 396.94 784.72 399.74 786.87 399.96L787.49 406.09Z" fill="#9880FF"/>
<path d="M787.86 409.86C787.86 409.86 726.94 400.86 723.97 400.86C734.2 401.27 784.39 403.54 787.08 403.86L787.86 409.86Z" fill="#9880FF"/>
<path d="M788.23 413.61C788.23 413.61 730.73 405.23 727.16 405.17C735.34 405.49 784.06 407.23 787.29 407.57L788.23 413.61Z" fill="#9880FF"/>
<path d="M788.62 417.4C788.62 417.4 734.53 409.63 730.36 409.55C736.5 409.79 783.76 411.01 787.52 411.4L788.62 417.4Z" fill="#9880FF"/>
<path d="M788.97 421.16C788.97 421.16 738.29 414 733.53 413.92C737.62 414.08 783.41 414.77 787.71 415.22L788.97 421.16Z" fill="#9880FF"/>
<path d="M789.35 424.93C789.35 424.93 742.07 418.38 736.72 418.28C738.72 418.36 783.08 418.52 787.92 419.03L789.35 424.93Z" fill="#9880FF"/>
<path d="M789.72 428.7C789.72 428.7 745.85 422.7 739.9 422.65C739.9 422.65 782.75 422.28 788.13 422.84L789.72 428.7Z" fill="#9880FF"/>
<path d="M542.41 378.32C542.41 378.32 530.73 411.61 545.16 429.39C545.16 429.39 512.63 410.54 511.62 382.94L542.41 378.32Z" fill="white"/>
<path d="M851.068 447.973C851.129 432.603 767.354 419.807 663.951 419.392C560.547 418.977 476.672 431.1 476.611 446.47C476.549 461.84 560.324 474.636 663.727 475.052C767.131 475.467 851.006 463.343 851.068 447.973Z" fill="#9880FF"/>
<path d="M776.19 448.05C776.19 457.84 725.87 465.57 663.88 465.31C601.89 465.05 551.67 456.92 551.71 447.13C551.75 437.34 602.03 429.62 664.02 429.87C726.01 430.12 776.23 438.27 776.19 448.05Z" fill="white"/>
<path d="M233.14 420.33C233.14 422.02 224.44 423.33 213.73 423.33C203.02 423.33 194.33 421.89 194.34 420.21C194.35 418.53 203.04 417.21 213.75 417.21C224.46 417.21 233.14 418.61 233.14 420.33Z" fill="white"/>
<path d="M1094.97 423.86C1094.97 425.54 1103.65 426.94 1114.36 426.98C1125.07 427.02 1133.76 425.7 1133.77 423.98C1133.78 422.26 1125.1 420.9 1114.38 420.85C1103.66 420.8 1094.98 422.18 1094.97 423.86Z" fill="white"/>
<path d="M693.9 25.61C693.9 25.61 778.55 25.43 831.04 110.02C831.913 111.369 832.359 112.951 832.32 114.557C832.281 116.164 831.759 117.722 830.823 119.028C829.886 120.333 828.577 121.327 827.068 121.878C825.558 122.43 823.918 122.514 822.36 122.12C794.03 115.28 735.78 104.01 671.26 107.64C671.26 107.64 715.75 96.13 807.58 111.79C809.163 112.079 810.797 111.884 812.268 111.23C813.739 110.576 814.978 109.493 815.824 108.123C816.67 106.754 817.083 105.161 817.009 103.553C816.935 101.945 816.378 100.396 815.41 99.11C798.21 75.5 758.91 33.21 693.9 25.61Z" fill="#9880FF"/>
<path d="M554.62 230.46C322.85 265.11 283.24 297.94 241.77 315.75C198.19 334.46 167.77 357.75 135.94 387.15C158.6 380.62 206.13 362.05 238.57 356.07C298.89 344.95 466.66 328.85 543.78 323.36C543.78 323.36 367.78 334.51 370.29 305.75C373.47 269.37 554.62 230.46 554.62 230.46Z" fill="#9880FF"/>
<path d="M1189.95 387.13C1169.39 381.21 1128.4 365.4 1096.71 358.04C1093.47 357.3 1090.35 356.63 1087.34 356.04C1085.97 355.79 1084.54 355.51 1083.03 355.26C1019.79 344.26 859.6 328.89 783.62 323.43C800.81 324.43 958.02 332.9 955.62 305.71C952.47 269.9 776.92 231.65 771.43 230.45C928.43 253.91 997.22 276.59 1038.14 294.27C1046.14 297.75 1053.14 301.03 1059.46 304.09C1068.46 308.42 1076.29 312.33 1084.15 315.71C1127.72 334.48 1158.15 357.69 1189.95 387.13Z" fill="#9880FF"/>
<path d="M1113.34 366.33L1117.82 367.08C1120.73 367.62 1125.02 368.35 1130.43 369.53C1135.84 370.71 1142.43 372.16 1149.87 374.28C1158.31 376.562 1166.57 379.456 1174.58 382.94C1179.29 384.986 1183.8 387.453 1188.06 390.31C1190.42 391.917 1192.6 393.778 1194.56 395.86C1196.82 398.205 1198.53 401.023 1199.56 404.11C1200.14 405.869 1200.4 407.719 1200.33 409.57C1200.33 409.93 1200.33 410.21 1200.28 410.64L1200.04 412.19C1199.86 413.102 1199.61 413.999 1199.29 414.87C1198.04 418.059 1196.15 420.958 1193.74 423.39C1189.22 428.08 1183.9 431.39 1178.48 434.32C1172.99 437.217 1167.34 439.782 1161.54 442C1155.74 444.27 1149.8 446.3 1143.76 448.11C1131.7 451.75 1119.33 454.82 1106.91 457.56C1094.49 460.3 1081.99 462.51 1069.67 464.46C1057.35 466.41 1045.18 468.01 1033.4 469.46C1021.62 470.91 1010.21 472.02 999.401 472.99C988.591 473.96 978.33 474.71 968.87 475.29C959.41 475.87 950.731 476.29 943.041 476.62C935.351 476.95 928.63 477.1 923.1 477.24C917.57 477.38 913.231 477.38 910.271 477.42H905.73L910.22 476.78L922.94 475.06L968.26 469.06L998.47 464.9C1009.18 463.39 1020.47 461.68 1032.11 459.9C1043.75 458.12 1055.75 456.07 1067.92 453.97C1080.09 451.87 1092.4 449.49 1104.63 446.85C1116.86 444.21 1129.03 441.39 1140.77 437.97C1152.51 434.55 1163.95 430.82 1174.06 425.77C1178.89 423.492 1183.38 420.55 1187.39 417.03C1189.05 415.552 1190.39 413.756 1191.34 411.75C1191.52 411.33 1191.67 410.899 1191.79 410.46C1191.83 410.297 1191.87 410.137 1191.93 409.98C1191.93 409.72 1192 409.31 1192.03 408.98C1192.1 408.102 1192.01 407.219 1191.78 406.37C1191.2 404.355 1190.18 402.496 1188.78 400.93C1187.27 399.166 1185.6 397.549 1183.78 396.1C1180.05 393.214 1176.07 390.67 1171.88 388.5C1164.33 384.626 1156.57 381.197 1148.62 378.23C1141.47 375.54 1135.15 373.34 1129.92 371.62C1124.69 369.9 1120.55 368.56 1117.72 367.69L1113.34 366.33Z" fill="white"/>
<path d="M240.161 373.18C240.161 373.18 242.4 316.71 294 288.65H287.09C287.09 288.65 233.57 313.37 225.73 376.21L240.161 373.18Z" fill="white"/>
<path d="M1087.31 376.61C1087.31 376.61 1085.53 320.11 1034.16 291.61H1041.07C1041.07 291.61 1094.39 316.77 1101.72 379.67L1087.31 376.61Z" fill="white"/>
<path d="M1191.13 387.13L1179.81 383.45L1180.87 385.29L1190.42 391.29C1190.42 391.29 1193.61 392.11 1193.37 391.29C1192.71 389.857 1191.96 388.467 1191.13 387.13Z" fill="#9880FF"/>
<path d="M520.19 453.4L420.26 884.17L320.34 1314.94L378.19 1095.23L436.04 875.51L551.73 436.09L520.19 453.4Z" fill="#9880FF"/>
<path d="M807.72 453.4L907.64 884.17L1007.57 1314.94L949.72 1095.23L891.87 875.51L776.18 436.09L807.72 453.4Z" fill="#9880FF"/>
<path d="M177.85 1268.03V1161.48H0V1067.88L170.51 664.61H284.62V1061.43H328.24V1161.43H284.62V1267.98L177.85 1268.03ZM177.85 1061.45V888.77L104.97 1061.45H177.85Z" fill="#9880FF"/>
<path d="M617.36 1136.07C601.08 1136.07 583.52 1131.86 565.17 1123.56C533.45 1109.22 512.83 1088.8 503.89 1062.88C495 1037.14 498.06 1007.34 512.99 974.32L603.62 773.8C618.55 740.8 638.9 718.8 664.11 708.48C674.852 704.1 686.349 701.868 697.95 701.91C714.23 701.91 731.79 706.12 750.14 714.42C781.85 728.75 802.46 749.17 811.42 775.09C820.31 800.85 817.25 830.65 802.33 863.65L711.65 1064.18C696.72 1097.18 676.37 1119.18 651.15 1129.5C640.424 1133.88 628.944 1136.11 617.36 1136.07ZM705.96 781.17C703.263 781.161 700.588 781.653 698.07 782.62C692 784.9 686 792.3 680.71 804L586.55 1012.23C581.26 1023.94 579.67 1033.33 581.95 1039.39C584.31 1045.63 589.14 1050.33 596.73 1053.76C600.69 1055.64 605.005 1056.67 609.39 1056.76C612.087 1056.76 614.761 1056.27 617.28 1055.31C623.35 1053.03 629.35 1045.63 634.64 1033.93L728.81 825.69C734.1 814 735.68 804.61 733.39 798.54C731.04 792.3 726.2 787.54 718.62 784.16C714.658 782.282 710.344 781.263 705.96 781.17Z" fill="#9880FF"/>
<path d="M1177.87 1268.03V1161.48H1000.02V1067.88L1170.53 664.61H1284.62V1061.43H1328.24V1161.43H1284.62V1267.98L1177.87 1268.03ZM1177.87 1061.45V888.77L1104.99 1061.45H1177.87Z" fill="#9880FF"/>
<path d="M618.24 730.61C618.24 736.61 627.99 725.04 625.24 718.08C622.49 711.12 618.24 722.26 618.24 730.61Z" fill="#9880FF"/>
<path d="M482.9 961.61C482.9 967.61 492.65 956.04 489.9 949.08C487.15 942.12 482.9 953.29 482.9 961.61Z" fill="#9880FF"/>
<path d="M691.34 666.61C687.16 663.83 678.11 667.76 688.56 672.75C699.01 677.74 709.44 670.44 705.27 669.22C701.1 668 691.34 666.61 691.34 666.61Z" fill="#9880FF"/>
<path d="M850.83 1014.2C846.65 1011.41 837.6 1015.34 848.04 1020.34C858.48 1025.34 868.93 1018.02 864.75 1016.8C860.57 1015.58 850.83 1014.2 850.83 1014.2Z" fill="#9880FF"/>
<path d="M679.51 605.99C679.51 605.99 668.37 608.78 675.33 612.26C682.29 615.74 679.51 605.99 679.51 605.99Z" fill="#9880FF"/>
<path d="M790.62 1132.72C790.62 1132.72 779.48 1135.5 786.44 1138.98C793.4 1142.46 790.62 1132.72 790.62 1132.72Z" fill="#9880FF"/>
<path d="M695.51 826.05C690.63 829.19 688.51 833.36 692.72 833.05C696.93 832.74 700.03 831.67 699.34 829.58C698.65 827.49 695.51 826.05 695.51 826.05Z" fill="#9880FF"/>
</g>
<defs>
<clipPath id="clip0_7405_14866">
<rect width="1328.24" height="1314.94" fill="white"/>
</clipPath>
</defs>
</svg>
