<svg width="810" height="631" viewBox="0 0 810 631" fill="none" xmlns="http://www.w3.org/2000/svg">
<g clip-path="url(#clip0_7405_15004)">
<path fill-rule="evenodd" clip-rule="evenodd" d="M404.99 608.45C624.79 608.45 802.99 613.39 802.99 619.45C802.99 625.51 624.81 630.45 404.99 630.45C185.17 630.45 6.99023 625.51 6.99023 619.45C6.99023 613.39 185.2 608.45 404.99 608.45Z" fill="#474857" fill-opacity="0.1"/>
<path fill-rule="evenodd" clip-rule="evenodd" d="M753.73 398.83C776.25 398.13 790.21 397.83 795.49 397.83C800.36 397.83 803.97 398.74 806.4 400.54C808.83 402.34 809.95 406.1 809.95 411.66C809.95 418.54 807.86 424.1 803.62 428.13C799.38 432.16 793.62 434.24 786.32 434.24C767.213 434.24 752.347 434.38 741.72 434.66C729.56 470.72 722.1 497.657 719.34 515.47C717.05 530.13 714.62 539.79 712.05 544.58C709.48 549.37 703.92 551.67 695.3 551.67C689.46 551.67 684.95 549.8 681.82 545.9C678.69 542 677.03 536.9 677.03 530.55C677.03 516.79 685.923 485.103 703.71 435.49C638.377 437.09 599.627 437.9 587.46 437.92C584.324 437.968 581.214 437.335 578.346 436.065C575.479 434.794 572.921 432.916 570.85 430.56C566.52 426.172 564.076 420.265 564.04 414.1C564.04 406.87 571.76 390.1 587.25 363.72C602.348 337.793 620.22 313.584 640.55 291.52C660.63 269.85 676.55 258.93 688.21 258.93C699.603 258.93 705.3 262.477 705.3 269.57C705.3 274.29 701.97 279.02 695.3 283.57C677.44 295.937 659.163 316.32 640.47 344.72C621.79 373.21 610.81 392.66 607.4 403.29C619.08 403.29 655.513 402.203 716.7 400.03C731.92 359.17 744.52 327.81 754.5 305.95C764.48 284.09 771.96 269.777 776.94 263.01C781.94 256.2 787.85 252.86 794.66 252.86C801.89 252.86 805.43 256.68 805.43 264.47C805.43 268.91 802.37 277.74 796.19 291.01C790.01 304.28 783.48 319.84 776.53 337.91L753.73 398.83Z" fill="#794DFF"/>
<path fill-rule="evenodd" clip-rule="evenodd" d="M189.73 398.83C212.24 398.13 226.21 397.83 231.49 397.83C236.36 397.83 239.97 398.74 242.4 400.54C244.83 402.34 245.94 406.1 245.94 411.66C245.94 418.54 243.86 424.1 239.62 428.13C235.38 432.16 229.62 434.24 222.32 434.24C203.213 434.24 188.343 434.38 177.71 434.66C165.55 470.72 158.093 497.657 155.34 515.47C153.04 530.13 150.61 539.79 148.04 544.58C145.47 549.37 139.91 551.67 131.29 551.67C125.46 551.67 120.94 549.8 117.81 545.9C114.68 542 113.02 536.9 113.02 530.55C113.02 516.79 121.913 485.103 139.7 435.49C74.3667 437.09 35.62 437.9 23.46 437.92C20.3236 437.969 17.2139 437.336 14.3461 436.066C11.4782 434.795 8.92058 432.916 6.85004 430.56C2.51523 426.175 0.0706049 420.266 0.0400391 414.1C0.0400391 406.87 7.75006 390.1 23.2501 363.72C38.3414 337.791 56.2099 313.582 76.54 291.52C96.62 269.85 112.54 258.93 124.21 258.93C135.603 258.93 141.3 262.477 141.3 269.57C141.3 274.29 137.97 279.02 131.3 283.57C113.45 295.94 95.11 316.3 76.48 344.72C57.85 373.14 46.81 392.66 43.41 403.29C55.0767 403.29 91.51 402.203 152.71 400.03C167.917 359.17 180.517 327.81 190.51 305.95C200.503 284.09 207.983 269.777 212.95 263.01C217.95 256.2 223.86 252.86 230.67 252.86C237.89 252.86 241.43 256.68 241.43 264.47C241.43 268.91 238.38 277.74 232.19 291.01C226 304.28 219.48 319.84 212.53 337.91L189.73 398.83Z" fill="#794DFF"/>
<path fill-rule="evenodd" clip-rule="evenodd" d="M240.51 507.73L269.08 536.29C269.919 537.126 270.585 538.12 271.039 539.214C271.493 540.308 271.727 541.48 271.727 542.665C271.727 543.849 271.493 545.022 271.039 546.116C270.585 547.21 269.919 548.204 269.08 549.04C267.385 550.722 265.093 551.666 262.705 551.666C260.317 551.666 258.025 550.722 256.33 549.04L227.73 520.45C226.048 518.755 225.104 516.463 225.104 514.075C225.104 511.687 226.048 509.395 227.73 507.7C228.566 506.862 229.559 506.198 230.652 505.745C231.745 505.291 232.917 505.058 234.1 505.058C235.283 505.058 236.455 505.291 237.548 505.745C238.641 506.198 239.634 506.862 240.47 507.7L240.51 507.73ZM515.09 261.73C495.273 241.917 469.794 228.746 442.17 224.035C414.546 219.323 386.141 223.305 360.878 235.429C335.614 247.553 314.738 267.222 301.131 291.72C287.525 316.217 281.861 344.335 284.92 372.19C287.5 395.85 281.28 417.58 266.86 435.55C265.358 437.404 264.597 439.75 264.724 442.133C264.852 444.516 265.859 446.767 267.55 448.45L328.35 509.24C330.031 510.934 332.279 511.944 334.662 512.077C337.044 512.21 339.391 511.456 341.25 509.96C359.25 495.53 380.97 489.3 404.63 491.89C432.485 494.953 460.604 489.291 485.103 475.686C509.602 462.082 529.272 441.206 541.397 415.942C553.522 390.678 557.503 362.272 552.791 334.648C548.078 307.024 534.905 281.545 515.09 261.73ZM262.67 456.81C261.834 455.972 260.841 455.308 259.748 454.855C258.655 454.401 257.483 454.168 256.3 454.168C255.117 454.168 253.945 454.401 252.852 454.855C251.759 455.308 250.766 455.972 249.93 456.81C249.089 457.646 248.422 458.64 247.967 459.735C247.512 460.83 247.278 462.004 247.278 463.19C247.278 464.376 247.512 465.55 247.967 466.645C248.422 467.739 249.089 468.734 249.93 469.57L307.25 526.89C308.945 528.572 311.237 529.516 313.625 529.516C316.013 529.516 318.305 528.572 320 526.89C320.839 526.054 321.505 525.06 321.959 523.966C322.413 522.872 322.647 521.699 322.647 520.515C322.647 519.33 322.413 518.158 321.959 517.064C321.505 515.97 320.839 514.976 320 514.14L262.68 456.82L262.67 456.81ZM244.12 475.37C242.422 473.689 240.129 472.747 237.74 472.747C235.351 472.747 233.058 473.689 231.36 475.37C229.678 477.065 228.734 479.357 228.734 481.745C228.734 484.133 229.678 486.425 231.36 488.12L288.73 545.45C289.566 546.289 290.56 546.955 291.654 547.409C292.748 547.863 293.92 548.097 295.105 548.097C296.29 548.097 297.462 547.863 298.556 547.409C299.65 546.955 300.644 546.289 301.48 545.45C302.318 544.614 302.982 543.621 303.435 542.528C303.889 541.435 304.122 540.263 304.122 539.08C304.122 537.897 303.889 536.725 303.435 535.632C302.982 534.539 302.318 533.546 301.48 532.71L244.12 475.37Z" fill="#794DFF"/>
<path fill-rule="evenodd" clip-rule="evenodd" d="M287.16 440.66L336.16 489.66C356.98 475.54 381.28 469.84 406.73 472.66C424.421 474.593 442.32 472.427 459.039 466.33C475.758 460.233 490.849 450.369 503.143 437.501C515.437 424.634 524.603 409.109 529.932 392.129C535.261 375.15 536.609 357.171 533.872 339.587C531.135 322.002 524.387 305.284 514.15 290.727C503.912 276.17 490.461 264.165 474.838 255.643C459.215 247.121 441.84 242.31 424.058 241.583C406.277 240.856 388.567 244.232 372.3 251.45L375.11 299.39L400.54 296.04L402.98 338.42L424.8 334.94L412.09 408.19L409.96 355.89L389.34 358.27L387.51 311.74L362.98 317.17L358.51 258.74C339.863 270.273 324.863 286.851 315.248 306.555C305.633 326.26 301.796 348.285 304.18 370.08C306.97 395.54 301.27 419.83 287.16 440.66Z" fill="white"/>
<path fill-rule="evenodd" clip-rule="evenodd" d="M171.8 1.62997H236.56V22.45H192.9V48.45H220.04V69.22H192.9V98.33H236.56V119.05H171.8V1.62997ZM276.62 22.45V53.45H298.86C309.1 53.45 314.223 48.5466 314.23 38.74C314.23 27.8266 309.106 22.3733 298.86 22.38L276.62 22.45ZM293.14 74.45H276.62V119.05H255.52V1.62997H299.34C304.328 1.56817 309.286 2.40138 313.98 4.08999C318.215 5.61244 322.067 8.03861 325.27 11.2C328.461 14.456 330.913 18.3612 332.46 22.65C334.216 27.5533 335.076 32.7323 335 37.94C335 54.5066 328.13 65.79 314.39 71.79L336.63 119.05H313.9L293.14 74.45ZM372.45 22.45V53.45H394.73C404.983 53.45 410.11 48.5466 410.11 38.74C410.11 27.8266 404.983 22.3733 394.73 22.38L372.45 22.45ZM388.96 74.45H372.45V119.05H351.34V1.62997H395.17C400.157 1.56989 405.116 2.40305 409.81 4.08999C414.041 5.61373 417.89 8.03983 421.09 11.2C424.287 14.4529 426.744 18.3588 428.29 22.65C430.042 27.554 430.899 32.7329 430.82 37.94C430.82 54.5066 423.953 65.79 410.22 71.79L432.45 119.05H409.73L388.96 74.45ZM491.49 20.82C483.643 20.82 477.21 24.09 472.19 30.63C467.17 37.17 464.663 47.0333 464.67 60.22C464.575 66.047 465.289 71.8589 466.79 77.49C467.959 81.9066 469.895 86.0834 472.51 89.83C474.718 92.9277 477.636 95.4514 481.02 97.19C484.268 98.819 487.856 99.6551 491.49 99.63C495.176 99.666 498.818 98.8299 502.12 97.19C505.501 95.451 508.415 92.9272 510.62 89.83C513.235 86.0939 515.146 81.9121 516.26 77.49C517.689 71.8473 518.361 66.0399 518.26 60.22C518.26 47.0267 515.926 37.1633 511.26 30.63C506.593 24.0966 499.973 20.8266 491.4 20.82H491.49ZM492.49 120.74C485.869 120.789 479.316 119.393 473.29 116.65C467.315 113.902 462.032 109.849 457.83 104.79C453.23 99.175 449.759 92.7231 447.61 85.79C442.734 69.2767 442.703 51.7105 447.52 35.18C449.625 28.2726 453.018 21.826 457.52 16.18C461.581 11.1458 466.703 7.06901 472.52 4.23995C481.433 -0.0274601 491.523 -1.17023 501.165 0.995752C510.806 3.16173 519.438 8.51036 525.67 16.18C530.161 21.816 533.52 28.2679 535.56 35.18C538.005 43.3151 539.192 51.7761 539.08 60.27C539.193 68.8166 538.037 77.3327 535.65 85.54C533.645 92.4193 530.372 98.8633 526 104.54C522.047 109.652 516.961 113.776 511.142 116.587C505.323 119.399 498.931 120.82 492.47 120.74H492.49ZM578.19 22.45V53.45H600.42C610.673 53.45 615.8 48.5466 615.8 38.74C615.8 27.8266 610.673 22.3733 600.42 22.38L578.19 22.45ZM594.7 74.45H578.19V119.05H557.08V1.62997H600.91C605.898 1.56817 610.856 2.40138 615.55 4.08999C619.783 5.60996 623.633 8.03654 626.83 11.2C630.027 14.4529 632.484 18.3588 634.03 22.65C635.782 27.554 636.639 32.7329 636.56 37.94C636.56 54.5066 629.693 65.79 615.96 71.79L638.19 119.05H615.43L594.7 74.45Z" fill="#3F404D" fill-opacity="0.5"/>
</g>
<defs>
<clipPath id="clip0_7405_15004">
<rect width="809.98" height="630.52" fill="white"/>
</clipPath>
</defs>
</svg>
