<svg width="252" height="218" viewBox="0 0 252 218" fill="none" xmlns="http://www.w3.org/2000/svg">
<path d="M237.325 109C237.325 168.628 189.59 216.952 130.723 216.952C71.8559 216.952 24.1205 168.628 24.1205 109C24.1205 49.3719 71.8559 1.04823 130.723 1.04823C189.59 1.04823 237.325 49.3719 237.325 109Z" stroke="url(#paint0_linear_9118_12884)" stroke-opacity="0.2" stroke-width="1.3494"/>
<g filter="url(#filter0_d_9118_12884)">
<path d="M200.217 173.096C200.217 162.663 208.675 154.205 219.108 154.205C229.542 154.205 238 162.663 238 173.096C238 183.53 229.542 191.988 219.108 191.988C208.675 191.988 200.217 183.53 200.217 173.096Z" fill="white" shape-rendering="crispEdges"/>
<path d="M219.108 153.705C208.399 153.705 199.717 162.387 199.717 173.096C199.717 183.806 208.399 192.488 219.108 192.488C229.818 192.488 238.5 183.806 238.5 173.096C238.5 162.387 229.818 153.705 219.108 153.705Z" stroke="#3F404D" stroke-opacity="0.2" shape-rendering="crispEdges"/>
<g clip-path="url(#clip0_9118_12884)">
<path fill-rule="evenodd" clip-rule="evenodd" d="M222.153 163.921H216.064C214.702 163.921 213.603 163.921 212.739 164.037C211.842 164.157 211.087 164.415 210.487 165.015C209.888 165.615 209.63 166.37 209.509 167.267C209.393 168.131 209.393 169.229 209.393 170.592V176.68C209.393 178.043 209.393 179.142 209.509 180.005C209.63 180.902 209.888 181.658 210.487 182.257C211.087 182.857 211.842 183.115 212.739 183.236C213.603 183.352 214.702 183.352 216.064 183.352H222.153C223.515 183.352 224.614 183.352 225.478 183.236C226.375 183.115 227.13 182.857 227.73 182.257C228.33 181.658 228.587 180.902 228.708 180.005C228.824 179.142 228.824 178.043 228.824 176.68V170.592C228.824 169.229 228.824 168.131 228.708 167.267C228.587 166.37 228.33 165.615 227.73 165.015C227.13 164.415 226.375 164.157 225.478 164.037C224.614 163.921 223.515 163.921 222.153 163.921Z" fill="#FCAA1D" fill-opacity="0.2"/>
<path fill-rule="evenodd" clip-rule="evenodd" d="M225.374 169.193C225.572 169.331 225.698 169.55 225.718 169.79L225.987 172.969C226.025 173.414 225.694 173.806 225.249 173.844C224.803 173.882 224.411 173.551 224.374 173.105L224.3 172.235L221.607 176.274C220.618 177.758 218.42 177.706 217.503 176.177L216.897 175.167C216.592 174.658 215.859 174.64 215.529 175.135L213.71 177.864C213.462 178.236 212.959 178.336 212.587 178.088C212.215 177.84 212.115 177.337 212.363 176.965L214.182 174.237C215.171 172.753 217.368 172.805 218.286 174.334L218.891 175.344C219.197 175.853 219.93 175.871 220.259 175.376L223.031 171.218L222.052 171.489C221.621 171.608 221.175 171.356 221.056 170.925C220.937 170.494 221.189 170.048 221.62 169.928L224.695 169.078C224.927 169.013 225.176 169.056 225.374 169.193Z" fill="#FCAA1D"/>
</g>
</g>
<g filter="url(#filter1_d_9118_12884)">
<path d="M14 148.807C14 138.374 22.458 129.916 32.8916 129.916C43.3251 129.916 51.7831 138.374 51.7831 148.807C51.7831 159.241 43.3251 167.699 32.8916 167.699C22.458 167.699 14 159.241 14 148.807Z" fill="white" shape-rendering="crispEdges"/>
<path d="M32.8916 129.416C22.1819 129.416 13.5 138.098 13.5 148.807C13.5 159.517 22.1819 168.199 32.8916 168.199C43.6012 168.199 52.2831 159.517 52.2831 148.807C52.2831 138.098 43.6012 129.416 32.8916 129.416Z" stroke="#3F404D" stroke-opacity="0.2" shape-rendering="crispEdges"/>
<path fill-rule="evenodd" clip-rule="evenodd" d="M31.2968 139.806C31.423 140.243 31.1709 140.7 30.7339 140.826C27.3191 141.811 24.823 144.961 24.823 148.691C24.823 153.211 28.4875 156.876 33.0078 156.876C36.7381 156.876 39.8875 154.38 40.8729 150.965C40.9989 150.528 41.4555 150.276 41.8926 150.402C42.3296 150.528 42.5816 150.985 42.4555 151.422C41.2722 155.523 37.4915 158.523 33.0078 158.523C27.5777 158.523 23.1758 154.121 23.1758 148.691C23.1758 144.207 26.1763 140.427 30.2772 139.243C30.7142 139.117 31.1707 139.369 31.2968 139.806Z" fill="#02CA4B"/>
<path d="M34.2809 139.11L34.2528 139.108C34.1307 139.098 33.9606 139.085 33.808 139.096C33.6065 139.11 33.3393 139.172 33.104 139.389C32.8614 139.613 32.7836 139.885 32.7552 140.079C32.7331 140.232 32.7333 140.405 32.7334 140.535L32.7334 147.082C32.7333 147.307 32.7332 147.55 32.7609 147.756C32.7933 147.997 32.8765 148.305 33.1355 148.563C33.3945 148.822 33.7021 148.906 33.943 148.938C34.1486 148.966 34.3922 148.966 34.6174 148.965L41.1636 148.966C41.2936 148.966 41.4673 148.966 41.6198 148.944C41.8144 148.915 42.0857 148.838 42.3099 148.595C42.5273 148.36 42.5886 148.092 42.6032 147.891C42.6142 147.738 42.6005 147.568 42.5907 147.446L42.5884 147.418C42.2381 142.991 38.7079 139.461 34.2809 139.11Z" fill="#02CA4B" fill-opacity="0.2"/>
</g>
<path d="M215.735 109C215.735 156.706 177.664 195.361 130.723 195.361C83.7819 195.361 45.7108 156.706 45.7108 109C45.7108 61.2939 83.7819 22.6386 130.723 22.6386C177.664 22.6386 215.735 61.2939 215.735 109Z" stroke="url(#paint1_linear_9118_12884)" stroke-opacity="0.2" stroke-width="1.3494"/>
<g filter="url(#filter2_d_9118_12884)">
<path d="M200.217 40.8554C200.217 30.4219 208.675 21.9639 219.108 21.9639C229.542 21.9639 238 30.4219 238 40.8554C238 51.289 229.542 59.747 219.108 59.747C208.675 59.747 200.217 51.289 200.217 40.8554Z" fill="white" shape-rendering="crispEdges"/>
<path d="M219.108 21.4639C208.399 21.4639 199.717 30.1458 199.717 40.8554C199.717 51.5651 208.399 60.247 219.108 60.247C229.818 60.247 238.5 51.5651 238.5 40.8554C238.5 30.1458 229.818 21.4639 219.108 21.4639Z" stroke="#3F404D" stroke-opacity="0.2" shape-rendering="crispEdges"/>
<path d="M222.153 31.1398H216.064C214.702 31.1398 213.603 31.1397 212.739 31.2559C211.842 31.3765 211.087 31.6345 210.487 32.2343C209.888 32.8341 209.63 33.5893 209.509 34.4862C209.393 35.3501 209.393 36.4485 209.393 37.8113V43.8996C209.393 45.2623 209.393 46.3608 209.509 47.2247C209.63 48.1217 209.888 48.8768 210.487 49.4766C211.087 50.0765 211.842 50.3344 212.739 50.4549C213.603 50.5711 214.702 50.5711 216.064 50.5711H222.153C223.515 50.5711 224.614 50.5711 225.478 50.4549C226.375 50.3344 227.13 50.0765 227.73 49.4766C228.33 48.8768 228.587 48.1217 228.708 47.2247C228.824 46.3608 228.824 45.2623 228.824 43.8996V37.8113C228.824 36.4485 228.824 35.3501 228.708 34.4862C228.587 33.5893 228.33 32.8341 227.73 32.2343C227.13 31.6345 226.375 31.3765 225.478 31.2559C224.614 31.1397 223.515 31.1398 222.153 31.1398Z" fill="#FB4141" fill-opacity="0.2"/>
<path d="M213.887 41.8937C213.433 41.8937 213.064 42.2621 213.064 42.7166V46.7025C213.064 47.157 213.433 47.5254 213.887 47.5254C214.342 47.5254 214.71 47.157 214.71 46.7025V42.7166C214.71 42.2621 214.342 41.8937 213.887 41.8937Z" fill="#FB4141"/>
<path d="M217.368 36.9111C216.914 36.9111 216.545 37.2796 216.545 37.7341V46.7024C216.545 47.1568 216.914 47.5253 217.368 47.5253C217.823 47.5253 218.191 47.1568 218.191 46.7024V37.7341C218.191 37.2796 217.823 36.9111 217.368 36.9111Z" fill="#FB4141"/>
<path d="M220.849 38.9042C220.395 38.9042 220.026 39.2726 220.026 39.7271V46.7024C220.026 47.1569 220.395 47.5253 220.849 47.5253C221.304 47.5253 221.672 47.1569 221.672 46.7024V39.7271C221.672 39.2726 221.304 38.9042 220.849 38.9042Z" fill="#FB4141"/>
<path d="M224.33 34.9181C223.876 34.9181 223.507 35.2865 223.507 35.741V46.7023C223.507 47.1568 223.876 47.5252 224.33 47.5252C224.784 47.5252 225.153 47.1568 225.153 46.7023V35.741C225.153 35.2865 224.784 34.9181 224.33 34.9181Z" fill="#FB4141"/>
</g>
<circle cx="130.723" cy="109" r="60.7229" stroke="url(#paint2_linear_9118_12884)" stroke-opacity="0.2" stroke-width="1.3494"/>
<path d="M105.759 108.325C105.759 94.1656 117.238 82.6868 131.398 82.6868C145.557 82.6868 157.036 94.1656 157.036 108.325C157.036 122.485 145.557 133.964 131.398 133.964C117.238 133.964 105.759 122.485 105.759 108.325Z" fill="#794DFF"/>
<path d="M105.759 108.325C105.759 94.1656 117.238 82.6868 131.398 82.6868C145.557 82.6868 157.036 94.1656 157.036 108.325C157.036 122.485 145.557 133.964 131.398 133.964C117.238 133.964 105.759 122.485 105.759 108.325Z" stroke="white" stroke-width="2.69879"/>
<path fill-rule="evenodd" clip-rule="evenodd" d="M140.196 114.758L132.308 105.036C131.759 104.359 130.722 104.372 130.191 105.062L123.045 114.339C122.789 114.671 122.394 114.865 121.976 114.865H118.783C117.651 114.865 117.022 113.555 117.73 112.672L130.188 97.1228C130.725 96.4522 131.744 96.448 132.287 97.1141L145.279 113.056C145.997 113.937 145.37 115.258 144.233 115.258H141.244C140.837 115.258 140.452 115.074 140.196 114.758ZM132.25 112.589L136.037 116.906C136.803 117.778 136.183 119.145 135.023 119.145H127.828C126.7 119.145 126.07 117.844 126.769 116.96L130.177 112.642C130.699 111.98 131.694 111.955 132.25 112.589Z" fill="url(#paint3_linear_9118_12884)"/>
<g filter="url(#filter3_d_9118_12884)">
<path d="M46.3857 23.3133C46.3857 12.8798 54.8438 4.42175 65.2773 4.42175C75.7108 4.42175 84.1689 12.8798 84.1689 23.3133C84.1689 33.7468 75.7108 42.2049 65.2773 42.2049C54.8438 42.2049 46.3857 33.7468 46.3857 23.3133Z" fill="white" shape-rendering="crispEdges"/>
<path d="M65.2773 3.92175C54.5676 3.92175 45.8857 12.6037 45.8857 23.3133C45.8857 34.023 54.5676 42.7049 65.2773 42.7049C75.987 42.7049 84.6689 34.023 84.6689 23.3133C84.6689 12.6037 75.987 3.92175 65.2773 3.92175Z" stroke="#3F404D" stroke-opacity="0.2" shape-rendering="crispEdges"/>
<path fill-rule="evenodd" clip-rule="evenodd" d="M65.2373 13.5977H65.317C66.9429 13.5977 68.2174 13.5976 69.238 13.6896C70.2779 13.7833 71.1325 13.9774 71.8938 14.4137C72.8441 14.9583 73.6322 15.7464 74.1768 16.6968C74.6131 17.458 74.8072 18.3125 74.9009 19.3524C74.9928 20.3731 74.9928 21.6477 74.9928 23.2735V23.3532C74.9928 24.2457 74.9928 25.0325 74.9776 25.7294C74.0713 24.0348 72.2843 22.8817 70.2281 22.8817C67.2554 22.8817 64.8455 25.2916 64.8455 28.2643C64.8455 30.3205 65.9985 32.1074 67.6931 33.0138C66.9962 33.029 66.2096 33.029 65.317 33.029H65.2374C63.6115 33.029 62.337 33.029 61.3163 32.937C60.2764 32.8433 59.4219 32.6492 58.6606 32.213C57.7103 31.6684 56.9222 30.8802 56.3775 29.9299C55.9413 29.1686 55.7471 28.3141 55.6535 27.2742C55.5615 26.2535 55.5615 24.979 55.5615 23.3532V23.2735C55.5615 21.6477 55.5615 20.3731 55.6535 19.3524C55.7471 18.3125 55.9413 17.458 56.3775 16.6968C56.9222 15.7464 57.7103 14.9583 58.6606 14.4137C59.4219 13.9774 60.2764 13.7833 61.3163 13.6896C62.337 13.5976 63.6115 13.5977 65.2373 13.5977ZM59.1131 19.0253C59.1131 18.5812 59.4731 18.2212 59.9171 18.2212H65.7764C66.2205 18.2212 66.5804 18.5812 66.5804 19.0253C66.5804 19.4693 66.2205 19.8293 65.7764 19.8293H59.9171C59.4731 19.8293 59.1131 19.4693 59.1131 19.0253ZM59.9171 21.1918C59.4731 21.1918 59.1131 21.5518 59.1131 21.9958C59.1131 22.4398 59.4731 22.7998 59.9171 22.7998H62.8058C63.2499 22.7998 63.6098 22.4398 63.6098 21.9958C63.6098 21.5518 63.2499 21.1918 62.8058 21.1918H59.9171Z" fill="#794DFF" fill-opacity="0.2"/>
<path fill-rule="evenodd" clip-rule="evenodd" d="M70.2254 24.4835C68.1388 24.4835 66.4473 26.175 66.4473 28.2615C66.4473 30.3481 68.1388 32.0396 70.2254 32.0396C70.9756 32.0396 71.6747 31.8209 72.2626 31.4438L73.6106 32.7918C73.9268 33.108 74.4394 33.108 74.7556 32.7918C75.0718 32.4756 75.0718 31.963 74.7556 31.6468L73.4076 30.2988C73.7846 29.711 74.0034 29.0118 74.0034 28.2615C74.0034 26.175 72.3119 24.4835 70.2254 24.4835ZM68.0665 28.2615C68.0665 27.0693 69.033 26.1028 70.2254 26.1028C71.4176 26.1028 72.3841 27.0693 72.3841 28.2615C72.3841 29.4538 71.4176 30.4203 70.2254 30.4203C69.033 30.4203 68.0665 29.4538 68.0665 28.2615Z" fill="#794DFF"/>
</g>
<defs>
<filter id="filter0_d_9118_12884" x="186.217" y="150.205" width="65.7832" height="65.7831" filterUnits="userSpaceOnUse" color-interpolation-filters="sRGB">
<feFlood flood-opacity="0" result="BackgroundImageFix"/>
<feColorMatrix in="SourceAlpha" type="matrix" values="0 0 0 0 0 0 0 0 0 0 0 0 0 0 0 0 0 0 127 0" result="hardAlpha"/>
<feMorphology radius="2" operator="erode" in="SourceAlpha" result="effect1_dropShadow_9118_12884"/>
<feOffset dy="10"/>
<feGaussianBlur stdDeviation="7.5"/>
<feComposite in2="hardAlpha" operator="out"/>
<feColorMatrix type="matrix" values="0 0 0 0 0.247059 0 0 0 0 0.25098 0 0 0 0 0.301961 0 0 0 0.34 0"/>
<feBlend mode="normal" in2="BackgroundImageFix" result="effect1_dropShadow_9118_12884"/>
<feBlend mode="normal" in="SourceGraphic" in2="effect1_dropShadow_9118_12884" result="shape"/>
</filter>
<filter id="filter1_d_9118_12884" x="0" y="125.916" width="65.7832" height="65.7831" filterUnits="userSpaceOnUse" color-interpolation-filters="sRGB">
<feFlood flood-opacity="0" result="BackgroundImageFix"/>
<feColorMatrix in="SourceAlpha" type="matrix" values="0 0 0 0 0 0 0 0 0 0 0 0 0 0 0 0 0 0 127 0" result="hardAlpha"/>
<feMorphology radius="2" operator="erode" in="SourceAlpha" result="effect1_dropShadow_9118_12884"/>
<feOffset dy="10"/>
<feGaussianBlur stdDeviation="7.5"/>
<feComposite in2="hardAlpha" operator="out"/>
<feColorMatrix type="matrix" values="0 0 0 0 0.247059 0 0 0 0 0.25098 0 0 0 0 0.301961 0 0 0 0.34 0"/>
<feBlend mode="normal" in2="BackgroundImageFix" result="effect1_dropShadow_9118_12884"/>
<feBlend mode="normal" in="SourceGraphic" in2="effect1_dropShadow_9118_12884" result="shape"/>
</filter>
<filter id="filter2_d_9118_12884" x="186.217" y="17.9639" width="65.7832" height="65.7831" filterUnits="userSpaceOnUse" color-interpolation-filters="sRGB">
<feFlood flood-opacity="0" result="BackgroundImageFix"/>
<feColorMatrix in="SourceAlpha" type="matrix" values="0 0 0 0 0 0 0 0 0 0 0 0 0 0 0 0 0 0 127 0" result="hardAlpha"/>
<feMorphology radius="2" operator="erode" in="SourceAlpha" result="effect1_dropShadow_9118_12884"/>
<feOffset dy="10"/>
<feGaussianBlur stdDeviation="7.5"/>
<feComposite in2="hardAlpha" operator="out"/>
<feColorMatrix type="matrix" values="0 0 0 0 0.247059 0 0 0 0 0.25098 0 0 0 0 0.301961 0 0 0 0.34 0"/>
<feBlend mode="normal" in2="BackgroundImageFix" result="effect1_dropShadow_9118_12884"/>
<feBlend mode="normal" in="SourceGraphic" in2="effect1_dropShadow_9118_12884" result="shape"/>
</filter>
<filter id="filter3_d_9118_12884" x="32.3857" y="0.421753" width="65.7832" height="65.7831" filterUnits="userSpaceOnUse" color-interpolation-filters="sRGB">
<feFlood flood-opacity="0" result="BackgroundImageFix"/>
<feColorMatrix in="SourceAlpha" type="matrix" values="0 0 0 0 0 0 0 0 0 0 0 0 0 0 0 0 0 0 127 0" result="hardAlpha"/>
<feMorphology radius="2" operator="erode" in="SourceAlpha" result="effect1_dropShadow_9118_12884"/>
<feOffset dy="10"/>
<feGaussianBlur stdDeviation="7.5"/>
<feComposite in2="hardAlpha" operator="out"/>
<feColorMatrix type="matrix" values="0 0 0 0 0.247059 0 0 0 0 0.25098 0 0 0 0 0.301961 0 0 0 0.34 0"/>
<feBlend mode="normal" in2="BackgroundImageFix" result="effect1_dropShadow_9118_12884"/>
<feBlend mode="normal" in="SourceGraphic" in2="effect1_dropShadow_9118_12884" result="shape"/>
</filter>
<linearGradient id="paint0_linear_9118_12884" x1="130.723" y1="0.373535" x2="130.723" y2="217.627" gradientUnits="userSpaceOnUse">
<stop stop-color="#7033FF"/>
<stop offset="1" stop-color="#794DFF" stop-opacity="0.2"/>
</linearGradient>
<linearGradient id="paint1_linear_9118_12884" x1="68.0779" y1="54.3327" x2="196.13" y2="168.835" gradientUnits="userSpaceOnUse">
<stop stop-color="#7033FF"/>
<stop offset="1" stop-color="#794DFF" stop-opacity="0.2"/>
</linearGradient>
<linearGradient id="paint2_linear_9118_12884" x1="163.783" y1="160.277" x2="96.9878" y2="58.3976" gradientUnits="userSpaceOnUse">
<stop stop-color="#7033FF"/>
<stop offset="1" stop-color="#794DFF" stop-opacity="0.2"/>
</linearGradient>
<linearGradient id="paint3_linear_9118_12884" x1="131.508" y1="96.6172" x2="131.508" y2="119.145" gradientUnits="userSpaceOnUse">
<stop stop-color="white"/>
<stop offset="1" stop-color="white" stop-opacity="0.6"/>
</linearGradient>
<clipPath id="clip0_9118_12884">
<rect width="21.5904" height="21.5904" fill="white" transform="translate(208.313 162.301)"/>
</clipPath>
</defs>
</svg>
